<svg width="24" height="26" viewBox="0 0 24 26" fill="none" xmlns="http://www.w3.org/2000/svg">
<path d="M4.5 25.5V14.0625C3.375 13.7708 2.46875 13.1771 1.78125 12.2812C1.09375 11.3854 0.75 10.375 0.75 9.25V0.5H3.25V8H4.5V0.5H7V8H8.25V0.5H10.75V9.25C10.75 10.375 10.4062 11.3854 9.71875 12.2812C9.03125 13.1771 8.125 13.7708 7 14.0625V25.5H4.5ZM17 25.5V13.5938C15.875 13.2188 14.9688 12.4323 14.2812 11.2344C13.5938 10.0365 13.25 8.67708 13.25 7.15625C13.25 5.30208 13.7396 3.72917 14.7188 2.4375C15.6979 1.14583 16.875 0.5 18.25 0.5C19.625 0.5 20.8021 1.15104 21.7812 2.45312C22.7604 3.75521 23.25 5.33333 23.25 7.1875C23.25 8.70833 22.9063 10.0625 22.2188 11.25C21.5313 12.4375 20.625 13.2188 19.5 13.5938V25.5H17Z" fill="white" fill-opacity="0.7"/>
</svg>
