<svg width="26" height="26" viewBox="0 0 26 26" fill="none" xmlns="http://www.w3.org/2000/svg">
<path d="M1.75 6.75V1.75L6.75 4.25L1.75 6.75ZM20.5 6.75V1.75L25.5 4.25L20.5 6.75ZM11.75 5.5V0.5L16.75 3L11.75 5.5ZM11.75 25.5C10.1667 25.4583 8.69271 25.3281 7.32812 25.1094C5.96354 24.8906 4.77604 24.6146 3.76562 24.2812C2.75521 23.9479 1.95833 23.5625 1.375 23.125C0.791667 22.6875 0.5 22.2292 0.5 21.75V10.5C0.5 9.97917 0.828125 9.49479 1.48438 9.04688C2.14063 8.59896 3.03125 8.20313 4.15625 7.85938C5.28125 7.51563 6.60417 7.24479 8.125 7.04688C9.64583 6.84896 11.2708 6.75 13 6.75C14.7292 6.75 16.3542 6.84896 17.875 7.04688C19.3958 7.24479 20.7188 7.51563 21.8438 7.85938C22.9688 8.20313 23.8594 8.59896 24.5156 9.04688C25.1719 9.49479 25.5 9.97917 25.5 10.5V21.75C25.5 22.2292 25.2083 22.6875 24.625 23.125C24.0417 23.5625 23.2448 23.9479 22.2344 24.2812C21.224 24.6146 20.0365 24.8906 18.6719 25.1094C17.3073 25.3281 15.8333 25.4583 14.25 25.5V20.5H11.75V25.5ZM13 11.75C15.0208 11.75 16.7656 11.6302 18.2344 11.3906C19.7031 11.151 20.875 10.875 21.75 10.5625C21.75 10.4583 20.9583 10.2135 19.375 9.82812C17.7917 9.44271 15.6667 9.25 13 9.25C10.3333 9.25 8.20833 9.44271 6.625 9.82812C5.04167 10.2135 4.25 10.4583 4.25 10.5625C5.125 10.875 6.29687 11.151 7.76562 11.3906C9.23438 11.6302 10.9792 11.75 13 11.75ZM9.25 22.8125V18H16.75V22.8125C18.4167 22.6458 19.7812 22.401 20.8438 22.0781C21.9062 21.7552 22.625 21.4688 23 21.2188V12.75C21.8542 13.2083 20.4167 13.5729 18.6875 13.8438C16.9583 14.1146 15.0625 14.25 13 14.25C10.9375 14.25 9.04167 14.1146 7.3125 13.8438C5.58333 13.5729 4.14583 13.2083 3 12.75V21.2188C3.375 21.4688 4.09375 21.7552 5.15625 22.0781C6.21875 22.401 7.58333 22.6458 9.25 22.8125Z" fill="white" fill-opacity="0.7"/>
</svg>
