<svg width="28" height="25" viewBox="0 0 28 25" fill="none" xmlns="http://www.w3.org/2000/svg">
<path d="M6.5 18C5.8125 18 5.22396 17.7552 4.73438 17.2656C4.24479 16.776 4 16.1875 4 15.5C4 14.8125 4.24479 14.224 4.73438 13.7344C5.22396 13.2448 5.8125 13 6.5 13C7.1875 13 7.77604 13.2448 8.26562 13.7344C8.75521 14.224 9 14.8125 9 15.5C9 16.1875 8.75521 16.776 8.26562 17.2656C7.77604 17.7552 7.1875 18 6.5 18ZM21.5 18C20.8125 18 20.224 17.7552 19.7344 17.2656C19.2448 16.776 19 16.1875 19 15.5C19 14.8125 19.2448 14.224 19.7344 13.7344C20.224 13.2448 20.8125 13 21.5 13C22.1875 13 22.776 13.2448 23.2656 13.7344C23.7552 14.224 24 14.8125 24 15.5C24 16.1875 23.7552 16.776 23.2656 17.2656C22.776 17.7552 22.1875 18 21.5 18ZM14 16.75C13.125 16.75 12.3854 16.4479 11.7812 15.8438C11.1771 15.2396 10.875 14.5 10.875 13.625C10.875 12.75 11.1771 12.0104 11.7812 11.4062C12.3854 10.8021 13.125 10.5 14 10.5C14.875 10.5 15.6146 10.8021 16.2188 11.4062C16.8229 12.0104 17.125 12.75 17.125 13.625C17.125 14.5 16.8229 15.2396 16.2188 15.8438C15.6146 16.4479 14.875 16.75 14 16.75ZM7.875 24.25C8.16667 22.8125 8.88021 21.6198 10.0156 20.6719C11.151 19.724 12.4792 19.25 14 19.25C15.5208 19.25 16.849 19.724 17.9844 20.6719C19.1198 21.6198 19.8333 22.8125 20.125 24.25H7.875ZM1.5 24.25C1.5 22.875 1.98958 21.6979 2.96875 20.7188C3.94792 19.7396 5.125 19.25 6.5 19.25C6.85417 19.25 7.1875 19.2812 7.5 19.3438C7.8125 19.4062 8.11458 19.5 8.40625 19.625C7.78125 20.2292 7.26042 20.9219 6.84375 21.7031C6.42708 22.4844 6.14583 23.3333 6 24.25H1.5ZM22 24.25C21.8542 23.3333 21.5729 22.4844 21.1562 21.7031C20.7396 20.9219 20.2188 20.2292 19.5938 19.625C19.8854 19.5 20.1875 19.4062 20.5 19.3438C20.8125 19.2812 21.1458 19.25 21.5 19.25C22.875 19.25 24.0521 19.7396 25.0312 20.7188C26.0104 21.6979 26.5 22.875 26.5 24.25H22ZM1.75 13L0.25 11L14 0.5L19 4.3125V1.75H22.75V7.1875L27.75 11L26.25 13L14 3.65625L1.75 13Z" fill="white" fill-opacity="0.7"/>
</svg>
