<svg width="25" height="29" viewBox="0 0 25 29" fill="none" xmlns="http://www.w3.org/2000/svg">
<path d="M3.75004 28.6253C3.33685 28.6253 2.99049 28.4856 2.71098 28.2061C2.43146 27.9265 2.29171 27.5802 2.29171 27.167V24.1774C1.85421 23.6913 1.50178 23.1505 1.23442 22.555C0.967055 21.9595 0.833374 21.3094 0.833374 20.6045V6.75033C0.833374 4.73296 1.76914 3.2564 3.64067 2.32064C5.51219 1.38487 8.46532 0.916992 12.5 0.916992C16.6806 0.916992 19.6702 1.36664 21.4688 2.26595C23.2674 3.16526 24.1667 4.66005 24.1667 6.75033V20.6045C24.1667 21.3094 24.033 21.9595 23.7657 22.555C23.4983 23.1505 23.1459 23.6913 22.7084 24.1774V27.167C22.7084 27.5802 22.5686 27.9265 22.2891 28.2061C22.0096 28.4856 21.6632 28.6253 21.25 28.6253H19.7917C19.3785 28.6253 19.0322 28.4856 18.7526 28.2061C18.4731 27.9265 18.3334 27.5802 18.3334 27.167V25.7087H6.66671V27.167C6.66671 27.5802 6.52695 27.9265 6.24744 28.2061C5.96792 28.4856 5.62157 28.6253 5.20837 28.6253H3.75004ZM3.75004 12.5837H21.25V8.20866H3.75004V12.5837ZM7.39587 21.3337C8.00351 21.3337 8.52001 21.121 8.94535 20.6956C9.3707 20.2703 9.58337 19.7538 9.58337 19.1462C9.58337 18.5385 9.3707 18.022 8.94535 17.5967C8.52001 17.1713 8.00351 16.9587 7.39587 16.9587C6.78824 16.9587 6.27174 17.1713 5.8464 17.5967C5.42105 18.022 5.20837 18.5385 5.20837 19.1462C5.20837 19.7538 5.42105 20.2703 5.8464 20.6956C6.27174 21.121 6.78824 21.3337 7.39587 21.3337ZM17.6042 21.3337C18.2118 21.3337 18.7283 21.121 19.1537 20.6956C19.579 20.2703 19.7917 19.7538 19.7917 19.1462C19.7917 18.5385 19.579 18.022 19.1537 17.5967C18.7283 17.1713 18.2118 16.9587 17.6042 16.9587C16.9966 16.9587 16.4801 17.1713 16.0547 17.5967C15.6294 18.022 15.4167 18.5385 15.4167 19.1462C15.4167 19.7538 15.6294 20.2703 16.0547 20.6956C16.4801 21.121 16.9966 21.3337 17.6042 21.3337ZM4.40629 5.29199H20.7396C20.375 4.8788 19.5912 4.53244 18.3881 4.25293C17.1849 3.97342 15.2466 3.83366 12.573 3.83366C9.97226 3.83366 8.07035 3.98557 6.86723 4.28939C5.6641 4.59321 4.84379 4.92741 4.40629 5.29199ZM6.66671 22.792H18.3334C19.1355 22.792 19.8221 22.5064 20.3933 21.9352C20.9645 21.364 21.25 20.6774 21.25 19.8753V15.5003H3.75004V19.8753C3.75004 20.6774 4.03563 21.364 4.60681 21.9352C5.17799 22.5064 5.86462 22.792 6.66671 22.792Z" fill="white" fill-opacity="0.7"/>
</svg>
