<svg width="33" height="33" viewBox="0 0 33 33" fill="none" xmlns="http://www.w3.org/2000/svg">
<path d="M4.05695 29.7V17.5312L2.50157 18.81C2.13865 19.085 1.7498 19.195 1.33504 19.14C0.920267 19.085 0.583268 18.865 0.324038 18.48C0.0648075 18.095 -0.0388845 17.6825 0.0129615 17.2425C0.0648075 16.8025 0.25923 16.445 0.596229 16.17L4.05695 13.365V9.9C4.05695 9.4325 4.20601 9.04062 4.50412 8.72437C4.80224 8.40812 5.17164 8.25 5.61233 8.25C6.05302 8.25 6.42243 8.40812 6.72054 8.72437C7.01866 9.04062 7.16771 9.4325 7.16771 9.9V10.8488L14.5947 4.82625C15.165 4.35875 15.8001 4.125 16.5 4.125C17.1999 4.125 17.835 4.35875 18.4053 4.82625L32.4038 16.17C32.7408 16.445 32.9352 16.8025 32.987 17.2425C33.0389 17.6825 32.9352 18.095 32.676 18.48C32.4167 18.8375 32.0797 19.0437 31.665 19.0987C31.2502 19.1537 30.8743 19.0437 30.5373 18.7687L28.943 17.5312V29.7C28.943 30.6075 28.6385 31.3844 28.0293 32.0306C27.4201 32.6769 26.6877 33 25.8323 33H7.16771C6.31225 33 5.57993 32.6769 4.97074 32.0306C4.36155 31.3844 4.05695 30.6075 4.05695 29.7ZM7.16771 29.7H14.9446V24.75C14.9446 24.2825 15.0937 23.8906 15.3918 23.5744C15.6899 23.2581 16.0593 23.1 16.5 23.1C16.9407 23.1 17.3101 23.2581 17.6082 23.5744C17.9063 23.8906 18.0554 24.2825 18.0554 24.75V29.7H25.8323V15.015L16.5 7.46625L7.16771 15.015V29.7ZM6.07895 6.6C5.48272 6.6 5.02258 6.33875 4.69855 5.81625C4.37451 5.29375 4.35507 4.7575 4.64022 4.2075C5.08091 3.41 5.6577 2.78438 6.37058 2.33063C7.08346 1.87688 7.86763 1.65 8.72309 1.65C9.00825 1.65 9.28044 1.57438 9.53967 1.42312C9.7989 1.27187 9.99332 1.05875 10.1229 0.78375C10.2526 0.53625 10.4275 0.34375 10.6479 0.20625C10.8682 0.06875 11.121 0 11.4061 0C12.0024 0 12.456 0.26125 12.7671 0.78375C13.0782 1.30625 13.0911 1.8425 12.806 2.3925C12.3653 3.19 11.7885 3.81563 11.0756 4.26938C10.3627 4.72313 9.57855 4.95 8.72309 4.95C8.43794 4.95 8.16575 5.01875 7.90652 5.15625C7.64729 5.29375 7.45287 5.51375 7.32325 5.81625C7.19364 6.06375 7.02514 6.25625 6.81775 6.39375C6.61037 6.53125 6.3641 6.6 6.07895 6.6Z" fill="white"/>
</svg>
