<svg width="8" height="7" viewBox="0 0 8 7" fill="none" xmlns="http://www.w3.org/2000/svg">
<path d="M3.50413 0.689258C3.56247 0.601758 3.63538 0.536133 3.72288 0.492383C3.81038 0.448633 3.90275 0.426758 3.99997 0.426758C4.09719 0.426758 4.18955 0.448633 4.27705 0.492383C4.36455 0.536133 4.43747 0.601758 4.4958 0.689258L7.51455 5.44342C7.54372 5.49204 7.56559 5.54308 7.58018 5.59655C7.59476 5.65002 7.60205 5.70106 7.60205 5.74967C7.60205 5.90523 7.54615 6.04134 7.43434 6.15801C7.32254 6.27467 7.18399 6.33301 7.01872 6.33301L0.981217 6.33301C0.81594 6.33301 0.677398 6.27467 0.565593 6.15801C0.453787 6.04134 0.397884 5.90523 0.397884 5.74967C0.397884 5.70106 0.405176 5.65002 0.419759 5.59655C0.434343 5.54308 0.456218 5.49204 0.485384 5.44342L3.50413 0.689258Z" fill="white"/>
</svg>
