<svg width="21" height="19" viewBox="0 0 21 19" fill="none" xmlns="http://www.w3.org/2000/svg">
<path d="M0.083374 18.1976V16.1663C0.586846 16.1663 1.01653 16.0882 1.37244 15.932C1.72834 15.7757 2.08858 15.6064 2.45317 15.4242C2.81775 15.2419 3.2214 15.0769 3.6641 14.9294C4.10681 14.7818 4.64935 14.708 5.29171 14.708C5.95143 14.708 6.49396 14.7818 6.91931 14.9294C7.34466 15.0769 7.73962 15.2419 8.10421 15.4242C8.46879 15.6064 8.83337 15.7757 9.19796 15.932C9.56254 16.0882 9.99657 16.1663 10.5 16.1663C11.0035 16.1663 11.4375 16.0882 11.8021 15.932C12.1667 15.7757 12.5313 15.6064 12.8959 15.4242C13.2605 15.2419 13.6598 15.0769 14.0938 14.9294C14.5278 14.7818 15.066 14.708 15.7084 14.708C16.3681 14.708 16.915 14.7818 17.349 14.9294C17.783 15.0769 18.1823 15.2419 18.5469 15.4242C18.9115 15.6064 19.2761 15.7757 19.6407 15.932C20.0053 16.0882 20.4306 16.1663 20.9167 16.1663V18.1976C20.257 18.1976 19.7058 18.1195 19.2631 17.9632C18.8204 17.807 18.4167 17.6377 18.0521 17.4554C17.6875 17.2731 17.3316 17.1082 16.9844 16.9606C16.6372 16.813 16.2118 16.7393 15.7084 16.7393C15.2223 16.7393 14.8013 16.813 14.4454 16.9606C14.0895 17.1082 13.7335 17.2731 13.3776 17.4554C13.0217 17.6377 12.6224 17.807 12.1797 17.9632C11.737 18.1195 11.1771 18.1976 10.5 18.1976C9.82296 18.1976 9.26306 18.1195 8.82035 17.9632C8.37765 17.807 7.97834 17.6377 7.62244 17.4554C7.26653 17.2731 6.91497 17.1082 6.56775 16.9606C6.22053 16.813 5.79518 16.7393 5.29171 16.7393C4.8056 16.7393 4.38459 16.813 4.02869 16.9606C3.67278 17.1082 3.31254 17.2731 2.94796 17.4554C2.58337 17.6377 2.17973 17.807 1.73702 17.9632C1.29431 18.1195 0.743096 18.1976 0.083374 18.1976ZM0.083374 13.5622V11.5309C0.586846 11.5309 1.01653 11.4528 1.37244 11.2965C1.72834 11.1403 2.08858 10.971 2.45317 10.7887C2.81775 10.6064 3.2214 10.4415 3.6641 10.2939C4.10681 10.1464 4.64935 10.0726 5.29171 10.0726C5.95143 10.0726 6.49396 10.1464 6.91931 10.2939C7.34466 10.4415 7.73962 10.6064 8.10421 10.7887C8.46879 10.971 8.83337 11.1403 9.19796 11.2965C9.56254 11.4528 9.99657 11.5309 10.5 11.5309C11.0035 11.5309 11.4375 11.4528 11.8021 11.2965C12.1667 11.1403 12.5313 10.971 12.8959 10.7887C13.2605 10.6064 13.6598 10.4415 14.0938 10.2939C14.5278 10.1464 15.066 10.0726 15.7084 10.0726C16.3681 10.0726 16.915 10.1464 17.349 10.2939C17.783 10.4415 18.1823 10.6064 18.5469 10.7887C18.9115 10.971 19.2761 11.1403 19.6407 11.2965C20.0053 11.4528 20.4306 11.5309 20.9167 11.5309V13.5622C20.257 13.5622 19.7058 13.484 19.2631 13.3278C18.8204 13.1715 18.4167 13.0023 18.0521 12.82C17.6875 12.6377 17.3316 12.4728 16.9844 12.3252C16.6372 12.1776 16.2118 12.1038 15.7084 12.1038C15.2049 12.1038 14.7752 12.1776 14.4193 12.3252C14.0634 12.4728 13.7075 12.6377 13.3516 12.82C12.9957 13.0023 12.6007 13.1715 12.1667 13.3278C11.7327 13.484 11.1771 13.5622 10.5 13.5622C9.82296 13.5622 9.26306 13.484 8.82035 13.3278C8.37765 13.1715 7.97834 13.0023 7.62244 12.82C7.26653 12.6377 6.91497 12.4728 6.56775 12.3252C6.22053 12.1776 5.79518 12.1038 5.29171 12.1038C4.8056 12.1038 4.38459 12.1776 4.02869 12.3252C3.67278 12.4728 3.31254 12.6377 2.94796 12.82C2.58337 13.0023 2.17973 13.1715 1.73702 13.3278C1.29431 13.484 0.743096 13.5622 0.083374 13.5622ZM0.083374 8.92676V6.89551C0.586846 6.89551 1.01653 6.81738 1.37244 6.66113C1.72834 6.50488 2.08858 6.33561 2.45317 6.15332C2.81775 5.97103 3.2214 5.8061 3.6641 5.65853C4.10681 5.51096 4.64935 5.43717 5.29171 5.43717C5.95143 5.43717 6.49396 5.51096 6.91931 5.65853C7.34466 5.8061 7.73962 5.97103 8.10421 6.15332C8.46879 6.33561 8.83337 6.50488 9.19796 6.66113C9.56254 6.81738 9.99657 6.89551 10.5 6.89551C11.0035 6.89551 11.4375 6.81738 11.8021 6.66113C12.1667 6.50488 12.5313 6.33561 12.8959 6.15332C13.2605 5.97103 13.6598 5.8061 14.0938 5.65853C14.5278 5.51096 15.066 5.43717 15.7084 5.43717C16.3681 5.43717 16.915 5.51096 17.349 5.65853C17.783 5.8061 18.1823 5.97103 18.5469 6.15332C18.9115 6.33561 19.2761 6.50488 19.6407 6.66113C20.0053 6.81738 20.4306 6.89551 20.9167 6.89551V8.92676C20.257 8.92676 19.7058 8.84863 19.2631 8.69238C18.8204 8.53613 18.4167 8.36686 18.0521 8.18457C17.6875 8.00228 17.3316 7.83735 16.9844 7.68978C16.6372 7.54221 16.2118 7.46842 15.7084 7.46842C15.2223 7.46842 14.8013 7.54221 14.4454 7.68978C14.0895 7.83735 13.7335 8.00228 13.3776 8.18457C13.0217 8.36686 12.6224 8.53613 12.1797 8.69238C11.737 8.84863 11.1771 8.92676 10.5 8.92676C9.82296 8.92676 9.26306 8.84863 8.82035 8.69238C8.37765 8.53613 7.97834 8.36686 7.62244 8.18457C7.26653 8.00228 6.91497 7.83735 6.56775 7.68978C6.22053 7.54221 5.79518 7.46842 5.29171 7.46842C4.8056 7.46842 4.38459 7.54221 4.02869 7.68978C3.67278 7.83735 3.31254 8.00228 2.94796 8.18457C2.58337 8.36686 2.17973 8.53613 1.73702 8.69238C1.29431 8.84863 0.743096 8.92676 0.083374 8.92676ZM0.083374 4.29134V2.26009C0.586846 2.26009 1.01653 2.18197 1.37244 2.02572C1.72834 1.86947 2.08858 1.7002 2.45317 1.5179C2.81775 1.33561 3.2214 1.17068 3.6641 1.02311C4.10681 0.875543 4.64935 0.801758 5.29171 0.801758C5.95143 0.801758 6.49396 0.875543 6.91931 1.02311C7.34466 1.17068 7.73962 1.33561 8.10421 1.5179C8.46879 1.7002 8.83337 1.86947 9.19796 2.02572C9.56254 2.18197 9.99657 2.26009 10.5 2.26009C11.0035 2.26009 11.4375 2.18197 11.8021 2.02572C12.1667 1.86947 12.5313 1.7002 12.8959 1.5179C13.2605 1.33561 13.6598 1.17068 14.0938 1.02311C14.5278 0.875543 15.066 0.801758 15.7084 0.801758C16.3681 0.801758 16.915 0.875543 17.349 1.02311C17.783 1.17068 18.1823 1.33561 18.5469 1.5179C18.9115 1.7002 19.2761 1.86947 19.6407 2.02572C20.0053 2.18197 20.4306 2.26009 20.9167 2.26009V4.29134C20.257 4.29134 19.7058 4.21322 19.2631 4.05697C18.8204 3.90072 18.4167 3.73145 18.0521 3.54915C17.6875 3.36686 17.3316 3.20193 16.9844 3.05436C16.6372 2.90679 16.2118 2.83301 15.7084 2.83301C15.2223 2.83301 14.8013 2.90679 14.4454 3.05436C14.0895 3.20193 13.7335 3.36686 13.3776 3.54915C13.0217 3.73145 12.6224 3.90072 12.1797 4.05697C11.737 4.21322 11.1771 4.29134 10.5 4.29134C9.82296 4.29134 9.26306 4.21322 8.82035 4.05697C8.37765 3.90072 7.97834 3.73145 7.62244 3.54915C7.26653 3.36686 6.91497 3.20193 6.56775 3.05436C6.22053 2.90679 5.79518 2.83301 5.29171 2.83301C4.8056 2.83301 4.38459 2.90679 4.02869 3.05436C3.67278 3.20193 3.31254 3.36686 2.94796 3.54915C2.58337 3.73145 2.17973 3.90072 1.73702 4.05697C1.29431 4.21322 0.743096 4.29134 0.083374 4.29134Z" fill="white"/>
</svg>
