<svg width="23" height="21" viewBox="0 0 23 21" fill="none" xmlns="http://www.w3.org/2000/svg">
<path d="M11.5 4.20817C11.2048 4.20817 10.9574 4.10834 10.7578 3.90869C10.5581 3.70904 10.4583 3.46164 10.4583 3.1665V1.08317C10.4583 0.788032 10.5581 0.540636 10.7578 0.340983C10.9574 0.14133 11.2048 0.0415039 11.5 0.0415039C11.7951 0.0415039 12.0425 0.14133 12.2421 0.340983C12.4418 0.540636 12.5416 0.788032 12.5416 1.08317V3.1665C12.5416 3.46164 12.4418 3.70904 12.2421 3.90869C12.0425 4.10834 11.7951 4.20817 11.5 4.20817ZM16.6562 6.34359C16.4652 6.15262 16.3698 5.90956 16.3698 5.61442C16.3698 5.31928 16.4652 5.07623 16.6562 4.88525L18.1145 3.40088C18.3229 3.19255 18.5703 3.08838 18.8567 3.08838C19.1432 3.08838 19.3906 3.19255 19.5989 3.40088C19.7899 3.59185 19.8854 3.83491 19.8854 4.13005C19.8854 4.42518 19.7899 4.66824 19.5989 4.85921L18.1145 6.34359C17.9236 6.53456 17.6805 6.63005 17.3854 6.63005C17.0902 6.63005 16.8472 6.53456 16.6562 6.34359ZM19.8333 12.5415C19.5382 12.5415 19.2908 12.4417 19.0911 12.242C18.8915 12.0424 18.7916 11.795 18.7916 11.4998C18.7916 11.2047 18.8915 10.9573 19.0911 10.7577C19.2908 10.558 19.5382 10.4582 19.8333 10.4582H21.9166C22.2118 10.4582 22.4592 10.558 22.6588 10.7577C22.8585 10.9573 22.9583 11.2047 22.9583 11.4998C22.9583 11.795 22.8585 12.0424 22.6588 12.242C22.4592 12.4417 22.2118 12.5415 21.9166 12.5415H19.8333ZM18.1145 19.5988L16.6562 18.1144C16.4652 17.9235 16.3698 17.6804 16.3698 17.3853C16.3698 17.0901 16.4652 16.8471 16.6562 16.6561C16.8472 16.4651 17.0902 16.3696 17.3854 16.3696C17.6805 16.3696 17.9236 16.4651 18.1145 16.6561L19.5989 18.1144C19.8072 18.3228 19.9114 18.5702 19.9114 18.8566C19.9114 19.1431 19.8072 19.3905 19.5989 19.5988C19.3906 19.8071 19.1432 19.9113 18.8567 19.9113C18.5703 19.9113 18.3229 19.8071 18.1145 19.5988ZM4.88538 6.34359L3.401 4.85921C3.21003 4.66824 3.11454 4.42518 3.11454 4.13005C3.11454 3.83491 3.21003 3.59185 3.401 3.40088C3.60933 3.19255 3.85673 3.08838 4.14319 3.08838C4.42965 3.08838 4.67704 3.19255 4.88538 3.40088L6.34371 4.88525C6.53468 5.07623 6.63017 5.31928 6.63017 5.61442C6.63017 5.90956 6.53468 6.15262 6.34371 6.34359C6.15274 6.53456 5.90968 6.63005 5.61454 6.63005C5.3194 6.63005 5.07635 6.53456 4.88538 6.34359ZM5.24996 18.7915H9.93746C10.3715 18.7915 10.7404 18.6396 11.0442 18.3358C11.348 18.032 11.5 17.663 11.5 17.229C11.5 16.795 11.3524 16.4261 11.0573 16.1222C10.7621 15.8184 10.3975 15.6665 9.9635 15.6665H8.63538L8.11454 14.4165C7.87149 13.8436 7.48954 13.3879 6.96871 13.0493C6.44788 12.7108 5.87496 12.5415 5.24996 12.5415C4.3819 12.5415 3.64406 12.8453 3.03642 13.453C2.42878 14.0606 2.12496 14.7984 2.12496 15.6665C2.12496 16.5346 2.42878 17.2724 3.03642 17.88C3.64406 18.4877 4.3819 18.7915 5.24996 18.7915ZM5.24996 20.8748C3.80899 20.8748 2.58069 20.367 1.56506 19.3514C0.549438 18.3358 0.041626 17.1075 0.041626 15.6665C0.041626 14.2255 0.549438 12.9972 1.56506 11.9816C2.58069 10.966 3.80899 10.4582 5.24996 10.4582C6.29163 10.4582 7.24215 10.7403 8.10152 11.3045C8.9609 11.8688 9.59892 12.6283 10.0156 13.5832C11.0225 13.5832 11.8689 13.9564 12.5546 14.703C13.2404 15.4495 13.5833 16.3436 13.5833 17.3853C13.5486 18.3748 13.1796 19.2038 12.4765 19.8722C11.7734 20.5406 10.927 20.8748 9.93746 20.8748H5.24996ZM13.5833 17.3853C13.4965 17.038 13.4097 16.6995 13.3229 16.3696C13.2361 16.0398 13.1493 15.7012 13.0625 15.354C13.8437 15.0241 14.473 14.512 14.9505 13.8175C15.4279 13.1231 15.6666 12.3505 15.6666 11.4998C15.6666 10.354 15.2586 9.3731 14.4427 8.55713C13.6267 7.74116 12.6458 7.33317 11.5 7.33317C10.4583 7.33317 9.54683 7.67171 8.76558 8.3488C7.98433 9.02588 7.52426 9.88525 7.38538 10.9269C7.03815 10.8401 6.68225 10.762 6.31767 10.6925C5.95308 10.6231 5.59718 10.545 5.24996 10.4582C5.49301 8.93039 6.20916 7.68039 7.3984 6.70817C8.58763 5.73595 9.95482 5.24984 11.5 5.24984C13.2361 5.24984 14.7118 5.85748 15.927 7.07275C17.1423 8.28803 17.75 9.76373 17.75 11.4998C17.75 12.8366 17.368 14.0389 16.6041 15.1066C15.8402 16.1743 14.8333 16.9339 13.5833 17.3853Z" fill="white"/>
</svg>
