<svg width="21" height="21" viewBox="0 0 21 21" fill="none" xmlns="http://www.w3.org/2000/svg">
<path d="M10.4999 20.8908C9.87495 20.8908 9.28033 20.8213 8.7161 20.6825C8.15186 20.5436 7.52252 20.3092 6.82807 19.9793C6.0121 20.3092 5.23519 20.5349 4.49735 20.6564C3.7595 20.7779 2.98259 20.8561 2.16662 20.8908C1.87148 20.9081 1.62408 20.817 1.42443 20.6173C1.22478 20.4177 1.12495 20.1703 1.12495 19.8752C1.12495 19.58 1.22478 19.3326 1.42443 19.133C1.62408 18.9333 1.87148 18.8248 2.16662 18.8075C2.58328 18.7901 2.96957 18.7641 3.32547 18.7293C3.68137 18.6946 4.03294 18.6382 4.38016 18.5601C4.72738 18.4819 5.08328 18.3821 5.44787 18.2606C5.81245 18.1391 6.20307 17.9915 6.61974 17.8179C6.70655 17.7831 6.79335 17.7658 6.88016 17.7658C6.96696 17.7658 7.05377 17.7831 7.14057 17.8179C7.71349 18.113 8.23866 18.3561 8.7161 18.547C9.19353 18.738 9.78814 18.8335 10.4999 18.8335C11.2118 18.8335 11.8064 18.738 12.2838 18.547C12.7612 18.3561 13.2864 18.113 13.8593 17.8179C13.9461 17.7831 14.0329 17.7658 14.1197 17.7658C14.2065 17.7658 14.2934 17.7831 14.3802 17.8179C14.7968 17.9915 15.1874 18.1391 15.552 18.2606C15.9166 18.3821 16.2725 18.4819 16.6197 18.5601C16.967 18.6382 17.3229 18.6946 17.6875 18.7293C18.052 18.7641 18.434 18.7901 18.8333 18.8075C19.1284 18.8248 19.3758 18.9333 19.5755 19.133C19.7751 19.3326 19.875 19.58 19.875 19.8752C19.875 20.1703 19.7751 20.4177 19.5755 20.6173C19.3758 20.817 19.1284 20.9081 18.8333 20.8908C18.0173 20.8561 17.2404 20.7779 16.5026 20.6564C15.7647 20.5349 14.9965 20.3092 14.1979 19.9793C13.5034 20.3092 12.8697 20.5436 12.2968 20.6825C11.7239 20.8213 11.1249 20.8908 10.4999 20.8908ZM10.4999 16.7502C9.45828 16.7502 8.54682 16.4029 7.76557 15.7085L6.5937 14.6668C6.26384 14.9793 5.91228 15.2614 5.53901 15.5132C5.16575 15.7649 4.77946 15.9863 4.38016 16.1772C4.0503 16.3161 3.72478 16.2988 3.4036 16.1252C3.08242 15.9516 2.86974 15.6911 2.76557 15.3439L0.942658 9.4585C0.855853 9.16336 0.881894 8.89426 1.02078 8.6512C1.15967 8.40815 1.37669 8.24322 1.67182 8.15641L3.20828 7.73975V4.25016C3.20828 3.67725 3.41228 3.18679 3.82026 2.77881C4.22825 2.37082 4.7187 2.16683 5.29162 2.16683H7.89578V1.12516C7.89578 0.830024 7.99561 0.582628 8.19526 0.382975C8.39491 0.183322 8.64231 0.0834961 8.93745 0.0834961H12.0624C12.3576 0.0834961 12.605 0.183322 12.8046 0.382975C13.0043 0.582628 13.1041 0.830024 13.1041 1.12516V2.16683H15.7083C16.2812 2.16683 16.7717 2.37082 17.1796 2.77881C17.5876 3.18679 17.7916 3.67725 17.7916 4.25016V7.73975L19.3281 8.15641C19.6232 8.24322 19.8402 8.40815 19.9791 8.6512C20.118 8.89426 20.144 9.16336 20.0572 9.4585L18.2343 15.3439C18.1302 15.6911 17.9175 15.9516 17.5963 16.1252C17.2751 16.2988 16.9496 16.3161 16.6197 16.1772C16.2031 15.9863 15.8081 15.7649 15.4348 15.5132C15.0616 15.2614 14.7187 14.9793 14.4062 14.6668L13.2343 15.7085C12.4531 16.4029 11.5416 16.7502 10.4999 16.7502ZM5.29162 4.25016V7.19287L9.97912 5.94287C10.1527 5.89079 10.3263 5.86475 10.4999 5.86475C10.6736 5.86475 10.8472 5.89079 11.0208 5.94287L15.7083 7.19287V4.25016H5.29162ZM10.4999 7.97412L3.26037 9.87516L4.45828 13.7554C4.7187 13.547 4.9661 13.3344 5.20047 13.1173C5.43485 12.9003 5.67356 12.6703 5.91662 12.4272C6.12495 12.2016 6.38103 12.093 6.68485 12.1017C6.98867 12.1104 7.23606 12.2363 7.42703 12.4793C7.82634 12.9481 8.27773 13.4299 8.7812 13.9246C9.28467 14.4194 9.87495 14.6668 10.552 14.6668C11.2118 14.6668 11.7847 14.4151 12.2708 13.9116C12.7569 13.4081 13.1996 12.9307 13.5989 12.4793C13.7899 12.2363 14.0373 12.1104 14.3411 12.1017C14.6449 12.093 14.901 12.2016 15.1093 12.4272C15.3524 12.6703 15.5911 12.9003 15.8255 13.1173C16.0598 13.3344 16.3072 13.547 16.5677 13.7554L17.7656 9.87516L10.4999 7.97412Z" fill="white"/>
</svg>
