<svg width="157" height="60" viewBox="0 0 157 60" fill="none" xmlns="http://www.w3.org/2000/svg">
<g clip-path="url(#clip0_105_12)">
<path d="M32.3224 38.6094C29.4642 38.6131 27.1113 40.8299 27.1113 43.6038C27.1113 46.3776 29.4642 48.572 32.3224 48.5795C35.207 48.5683 37.541 46.3514 37.541 43.6038C37.541 40.8561 35.207 38.6131 32.3224 38.6094ZM32.2508 46.3028C30.7576 46.3028 29.6264 45.0916 29.6264 43.6075C29.6264 42.1234 30.833 40.886 32.3186 40.886C33.8043 40.886 34.9694 42.0935 34.9694 43.6075C34.9694 45.1215 33.7477 46.3028 32.247 46.3028H32.2508Z" fill="white"/>
<path d="M8.40122 35.1704C9.20061 35.9517 10.1131 36.6321 11.0068 37.0732L11.101 37.1218L12.6395 35.3162L12.4924 35.234C11.0294 34.4489 9.8831 33.4583 9.1365 32.2059C8.39368 30.976 8.01284 29.5405 8.01284 27.8321V26.2246H5.26024V27.6601C5.26024 29.5143 4.83415 30.9723 4.04231 32.2508C3.15243 33.6639 1.83646 34.804 0.150963 35.8583L0.00390625 35.948L1.67809 37.6639L1.76859 37.6115C2.76028 37.0732 3.81607 36.247 4.73612 35.3274C5.53173 34.5237 6.22177 33.6564 6.63654 32.8377C7.04 33.6377 7.66217 34.4564 8.40499 35.1592L8.40122 35.1704Z" fill="white"/>
<path d="M5.42578 47.4021H16.9565V39.5928H5.42578V47.4021ZM8.01247 41.7984H14.3585V45.2003H8.01247V41.7984Z" fill="white"/>
<path d="M16.9988 25.7646H14.4385V38.6992H16.9988V32.9759H20.004V30.6768H16.9988V25.7646Z" fill="white"/>
<path d="M82.3892 35.8319C83.2301 36.5572 84.1954 37.1665 85.1003 37.559L85.1946 37.6039L86.5784 35.746L86.4314 35.6749C85.1116 35.002 83.9314 34.1721 83.0868 33.1628C82.2233 32.1273 81.7105 30.8824 81.7105 29.3796V28.9385H85.5226V26.7104H75.1646V28.9385H78.9767V29.4731C78.9767 30.8376 78.5167 32.1123 77.7626 33.2151C76.8727 34.5385 75.5718 35.6076 74.3124 36.2955L74.1465 36.3852L75.8471 38.131L75.9413 38.0862C76.8614 37.5703 77.8719 36.789 78.7392 35.9142C79.433 35.1927 80.0552 34.4301 80.436 33.6712C80.896 34.4076 81.6011 35.1478 82.3892 35.8357V35.8319Z" fill="white"/>
<path d="M100.934 41.8505H110.255V47.4019H112.845V39.6411H100.934V41.8505Z" fill="white"/>
<path d="M107.367 32.9571C107.367 31.7347 106.816 30.6094 105.994 29.7496H108.554V27.5478H103.668V25.1216H100.892V27.5478H95.8887V29.7496H98.5018C97.7061 30.6094 97.1481 31.7235 97.1481 32.9571C97.1481 35.6823 99.4143 37.8992 102.25 37.9066C105.085 37.8992 107.367 35.6823 107.37 32.9571H107.367ZM99.6179 32.8562C99.6179 31.3459 100.904 30.0674 102.246 30.0674C103.588 30.0674 104.87 31.3534 104.874 32.8562C104.874 34.3403 103.588 35.6225 102.246 35.6263C100.9 35.6225 99.6179 34.3403 99.6179 32.8562Z" fill="white"/>
<path d="M112.845 25.7646H110.285V38.7441H112.845V33.7908H115.854V31.4955H112.845V25.7646Z" fill="white"/>
<path d="M91.1266 25.7646H88.5625V38.7441H91.1266V32.9759H94.1318V30.6768H91.1266V25.7646Z" fill="white"/>
<path d="M149.395 35.5514H140.73V29.0093H147.332V26.7065H138.136V37.7869H149.395V35.5514Z" fill="white"/>
<path d="M35.4557 29.6151H31.4248V31.8918H35.4557V39.1516H38.0197V25.7646H35.4557V29.6151Z" fill="white"/>
<path d="M28.94 35.5065C29.7394 36.2878 30.6707 36.9682 31.5682 37.428L31.6662 37.4841L33.2084 35.6785L33.0576 35.5925C31.5945 34.8374 30.4709 33.8467 29.7205 32.6131C28.9551 31.3906 28.5742 29.9028 28.5742 28.1906V26.228H25.8141V28.0299C25.8141 29.8841 25.3955 31.3383 24.6188 32.5944C23.7289 34.0336 22.3941 35.1776 20.7048 36.228L20.5615 36.3177L22.2395 38.0411L22.3224 37.9888C23.3179 37.4505 24.3473 36.6691 25.2636 35.7757C26.0893 34.957 26.7832 34.071 27.1979 33.2112C27.5938 33.9888 28.2009 34.7888 28.9324 35.5065H28.94Z" fill="white"/>
<path d="M85.625 38.6094C82.7668 38.6131 80.4139 40.8299 80.4102 43.6038C80.4139 46.3514 82.7668 48.572 85.625 48.5795C88.5058 48.5683 90.8436 46.3514 90.8436 43.6038C90.8436 40.8561 88.5058 38.6131 85.625 38.6094ZM85.5496 46.3028C84.0602 46.3028 82.9252 45.0916 82.9252 43.6075C82.9252 42.1234 84.1281 40.886 85.625 40.886C87.122 40.886 88.272 42.0935 88.2758 43.6075C88.272 45.0916 87.0503 46.3028 85.5496 46.3028Z" fill="white"/>
<path d="M144.497 40.5083H141.902V47.4018H154.029V45.1289H144.497V40.5083Z" fill="white"/>
<path d="M153.968 31.7609V25.7646H151.408V41.7235H153.968V34.0525H157V31.7609H153.968Z" fill="white"/>
<path d="M132.28 31.6114H130.123V26.131H127.702V46.845H130.123V34.1048H132.28V47.402H134.795V25.7646H132.28V31.6114Z" fill="white"/>
<path d="M124.142 34.4821C123.565 33.2298 123.328 31.8354 123.328 30.1158V29.2971H126.235V26.9644H117.781V29.2971H120.782V30.1569C120.782 31.783 120.568 33.1102 120.047 34.3438C119.448 35.7569 118.437 37.0354 116.827 38.3961L116.714 38.5008L118.305 40.0634L118.403 39.9887C119.203 39.4017 120.04 38.5531 120.741 37.6784C121.329 36.9382 121.827 36.1756 122.144 35.5027C122.464 36.1569 122.966 36.9083 123.55 37.6111C124.233 38.4335 124.998 39.2148 125.733 39.6784L125.835 39.7457L127.174 38.1569L127.068 38.0597C125.628 36.8148 124.734 35.7045 124.146 34.4784L124.142 34.4821Z" fill="white"/>
<path d="M7.28479 54.867C6.05555 54.4333 5.82554 54.1417 5.82554 53.6408C5.82554 53.1399 6.17998 52.7436 7.02084 52.7436C7.63547 52.7436 8.05024 52.9417 8.49518 53.3081L8.93258 52.7735C8.416 52.366 7.8881 52.123 7.06609 52.123C5.91603 52.123 5.13927 52.7025 5.13927 53.6819C5.13927 54.5604 5.59175 54.9829 6.91526 55.4576C8.03893 55.8576 8.38206 56.1829 8.38206 56.7436C8.38206 57.3903 7.87302 57.7866 7.05478 57.7866C6.4213 57.7866 5.88587 57.4988 5.42207 57.0576L4.96582 57.5623C5.44847 58.0445 6.19883 58.4034 7.03216 58.4034C8.31419 58.4034 9.06833 57.6632 9.06833 56.71C9.06833 55.7567 8.64978 55.3492 7.28856 54.8595L7.28479 54.867Z" fill="white"/>
<path d="M11.8553 53.6523C11.2557 53.6523 10.709 53.7981 10.3055 54.015L10.5544 54.5458C10.9315 54.329 11.3274 54.1944 11.81 54.1944C12.4812 54.1944 12.813 54.5234 12.813 55.2075V55.7495C12.5416 55.6 12.1268 55.4841 11.6592 55.4841C10.7467 55.4841 9.89453 55.9215 9.89453 56.9495C9.89453 58.0523 10.6524 58.4075 11.3689 58.4075C12.0287 58.4075 12.4812 58.1047 12.8093 57.757V58.314H13.4654V55.129C13.4654 54.0673 12.8432 53.6523 11.8553 53.6523ZM12.8093 57.1925C12.5302 57.5738 12.0778 57.8804 11.482 57.8804C10.9202 57.8804 10.5393 57.5813 10.5393 56.9009C10.5393 56.329 10.9466 56 11.6215 56C12.1833 56 12.5076 56.1009 12.8055 56.2654V57.1888L12.8093 57.1925Z" fill="white"/>
<path d="M20.0828 55.6411V58.314H20.7426V55.529C20.7426 54.1944 20.1582 53.6523 19.2155 53.6523C18.4689 53.6523 18.0918 53.9963 17.8203 54.4337C17.6016 53.9963 17.2057 53.6523 16.5572 53.6523C16.0104 53.6523 15.622 53.9103 15.3883 54.3065V53.7495H14.7246V58.3178H15.3883V55.6449C15.3883 54.6318 15.7842 54.2168 16.4176 54.2168C17.0511 54.2168 17.4093 54.5981 17.4093 55.6449V58.3178H18.0692V55.6449C18.0692 54.6318 18.4689 54.2168 19.0948 54.2168C19.7622 54.2168 20.0865 54.5981 20.0865 55.6449L20.0828 55.6411Z" fill="white"/>
<path d="M23.3817 55.6636C22.6011 55.3122 22.3673 55.1589 22.3673 54.7738C22.3673 54.4449 22.6464 54.2056 23.1328 54.2056C23.6192 54.2056 23.9209 54.3365 24.2791 54.6168L24.6486 54.1346C24.2979 53.8467 23.8077 53.6523 23.1705 53.6523C22.3372 53.6523 21.7339 54.1196 21.7339 54.815C21.7339 55.5477 22.1185 55.8243 23.0423 56.2168C23.8568 56.5645 24.132 56.7738 24.132 57.1477C24.132 57.5925 23.8341 57.8542 23.2007 57.8542C22.7444 57.8542 22.3145 57.6673 21.945 57.3495L21.5566 57.828C21.9978 58.1794 22.5483 58.4112 23.1818 58.4112C23.9812 58.4112 24.7617 58.0224 24.7617 57.1252C24.7617 56.3065 24.2527 56.0561 23.3817 55.6673V55.6636Z" fill="white"/>
<path d="M28.612 56.4146C28.612 57.4165 28.1067 57.8389 27.4732 57.8389C26.7304 57.8389 26.3797 57.3978 26.3797 56.4146V53.7454H25.7236V56.5268C25.7236 57.8389 26.3609 58.4034 27.3337 58.4034C27.9182 58.4034 28.3443 58.1342 28.6082 57.7529V58.3099H29.2681V53.7417H28.6082V56.4109L28.612 56.4146Z" fill="white"/>
<path d="M33.9252 58.314V55.529C33.9252 54.2131 33.2842 53.6523 32.3075 53.6523C31.7306 53.6523 31.3008 53.9178 31.0406 54.3065V53.7495H30.377V58.3178H31.0406V55.6449C31.0406 54.6467 31.5346 54.2168 32.1793 54.2168C32.9146 54.2168 33.2691 54.6617 33.2691 55.6449V58.3178H33.9289L33.9252 58.314Z" fill="white"/>
<path d="M35.9987 59.4991L36.2099 59.9963C37.9217 59.9402 38.5439 59.2822 38.5439 57.9065V53.7458H37.8878V54.2579C37.5635 53.8916 37.1714 53.6523 36.5907 53.6523C35.6216 53.6523 34.8486 54.4822 34.8486 56.1047C34.8486 57.7271 35.5801 58.4075 36.504 58.4075C37.1261 58.4075 37.5673 58.1047 37.8916 57.757V57.9925C37.8916 59.0542 37.5409 59.4542 36.0025 59.4991H35.9987ZM36.6661 57.843C35.9384 57.843 35.4972 57.2449 35.4972 56.0972C35.4972 54.8673 35.8743 54.2168 36.6397 54.2168C37.1865 54.2168 37.6314 54.5234 37.884 54.9009V57.1851C37.5598 57.5888 37.1563 57.843 36.6623 57.843H36.6661Z" fill="white"/>
<path d="M45.8096 55.2258C45.8096 53.1361 44.6218 52.2202 43.008 52.2202H41.3828V58.3137H42.8835C44.5276 58.3137 45.8096 57.4352 45.8096 55.2221V55.2258ZM42.0691 52.837H42.9552C44.3692 52.837 45.1233 53.6931 45.1233 55.2482C45.1233 57.0015 44.2976 57.6968 42.9703 57.6968H42.0653V52.837H42.0691Z" fill="white"/>
<path d="M47.5671 54.3139V53.7494H46.9072V58.3176H47.5671V55.6372C47.5671 54.7625 47.9253 54.2578 48.5701 54.2578C48.8755 54.2578 49.0791 54.3251 49.2601 54.4298L49.426 53.7718C49.2714 53.7008 49.049 53.6597 48.7096 53.6597C48.2157 53.6597 47.7745 53.9513 47.5709 54.3214L47.5671 54.3139Z" fill="white"/>
<path d="M53.3665 57.8804L53.0611 57.4094C52.6388 57.6897 52.3221 57.843 51.7829 57.843C51.0325 57.843 50.5649 57.2262 50.5008 56.2542H53.5739C53.5966 56.1458 53.6041 56.0523 53.6041 55.8953C53.6041 54.5907 52.9518 53.6523 51.7489 53.6523C50.6517 53.6523 49.8447 54.5533 49.8447 56.0037C49.8447 57.8019 50.8703 58.4075 51.715 58.4075C52.4088 58.4075 52.816 58.2243 53.3703 57.8804H53.3665ZM51.7414 54.2131C52.5483 54.2131 52.9367 54.8299 52.9895 55.7196H50.5008C50.5762 54.6991 51.0551 54.2131 51.7414 54.2131Z" fill="white"/>
<path d="M55.7947 58.4075C56.4545 58.4075 56.9108 58.1047 57.2351 57.757V58.314H57.8949V55.129C57.8949 54.0673 57.2728 53.6523 56.2773 53.6523C55.6778 53.6523 55.1348 53.7981 54.7313 54.015L54.9802 54.5458C55.3573 54.329 55.7532 54.1944 56.2358 54.1944C56.9108 54.1944 57.2351 54.5234 57.2351 55.2075V55.7495C56.9673 55.6 56.5526 55.4841 56.0925 55.4841C55.1763 55.4841 54.3203 55.9215 54.3203 56.9495C54.3203 58.0523 55.0782 58.4075 55.7947 58.4075ZM56.0511 56.0037C56.6091 56.0037 56.9372 56.1047 57.2351 56.2692V57.1925C56.956 57.5738 56.5073 57.8804 55.9153 57.8804C55.3233 57.8804 54.9726 57.5813 54.9726 56.9009C54.9726 56.329 55.3799 56 56.0548 56L56.0511 56.0037Z" fill="white"/>
<path d="M64.5087 55.6411V58.314H65.1648V55.529C65.1648 54.1944 64.5803 53.6523 63.6376 53.6523C62.891 53.6523 62.514 53.9963 62.2425 54.4337C62.0238 53.9963 61.6316 53.6523 60.9793 53.6523C60.4326 53.6523 60.0479 53.9103 59.8104 54.3065V53.7495H59.1543V58.3178H59.8104V55.6449C59.8104 54.6318 60.2063 54.2168 60.8398 54.2168C61.4733 54.2168 61.8315 54.5981 61.8315 55.6449V58.3178H62.4876V55.6449C62.4876 54.6318 62.891 54.2168 63.517 54.2168C64.1806 54.2168 64.5087 54.5981 64.5087 55.6449V55.6411Z" fill="white"/>
<path d="M70.0934 54.8671C68.8641 54.4335 68.6379 54.1456 68.6379 53.641C68.6379 53.1363 68.9886 52.7438 69.8294 52.7438C70.4478 52.7438 70.8588 52.9419 71.3038 53.3083L71.7412 52.7774C71.2246 52.3699 70.6967 52.127 69.8747 52.127C68.7246 52.127 67.9516 52.7027 67.9516 53.6821C67.9516 54.5606 68.3966 54.9868 69.7276 55.4541C70.8513 55.8578 71.1944 56.1793 71.1944 56.7438C71.1944 57.3868 70.6854 57.7868 69.8671 57.7868C69.2337 57.7868 68.6982 57.4952 68.2307 57.0541L67.7744 57.555C68.2571 58.0447 69.0074 58.3998 69.837 58.3998C71.1152 58.3998 71.8731 57.6597 71.8731 56.7064C71.8731 55.7531 71.4546 55.3456 70.0934 54.8559V54.8671Z" fill="white"/>
<path d="M74.6704 54.2168C75.1342 54.2168 75.4434 54.3813 75.7752 54.6804L76.1711 54.1907C75.8092 53.8766 75.3341 53.6523 74.7119 53.6523C73.7466 53.6523 72.7285 54.3626 72.7285 56.0561C72.7285 57.6486 73.6523 58.4112 74.6704 58.4112C75.3152 58.4112 75.7639 58.1682 76.1523 57.7757L75.7564 57.3608C75.4434 57.6636 75.1418 57.8467 74.6968 57.8467C73.8786 57.8467 73.3959 57.1252 73.3959 56C73.3959 54.8748 73.954 54.2168 74.6742 54.2168H74.6704Z" fill="white"/>
<path d="M78.9921 53.6521C78.4152 53.6521 77.9816 53.9175 77.7176 54.3063V52.1567H77.0615V58.3175H77.7176V55.6446C77.7176 54.6427 78.2229 54.2165 78.8601 54.2165C79.5992 54.2165 79.9461 54.6577 79.9461 55.6446V58.3175H80.606V55.5287C80.606 54.2165 79.965 53.6521 78.9883 53.6521H78.9921Z" fill="white"/>
<path d="M83.5466 53.6523C82.4267 53.6523 81.5293 54.4822 81.5293 56.0374C81.5293 57.5925 82.389 58.4112 83.5127 58.4112C84.6363 58.4112 85.5338 57.5514 85.5338 56C85.5338 54.4486 84.6665 53.6523 83.5466 53.6523ZM83.5353 57.8467C82.7359 57.8467 82.1967 57.2224 82.1967 56.0187C82.1967 54.815 82.7359 54.2168 83.5353 54.2168C84.3347 54.2168 84.8739 54.8187 84.8739 56.0187C84.8739 57.2187 84.3309 57.8467 83.5353 57.8467Z" fill="white"/>
<path d="M87.1892 52.1567H86.5293V58.3175H87.1892V52.1567Z" fill="white"/>
<path d="M90.1982 53.6523C89.6024 53.6523 89.0557 53.8019 88.656 54.0187L88.9011 54.5533C89.2781 54.3327 89.6741 54.2019 90.1567 54.2019C90.8317 54.2019 91.1559 54.5346 91.1559 55.2075V55.7533C90.8845 55.6 90.4697 55.4879 90.0097 55.4879C89.0934 55.4879 88.2412 55.9252 88.2412 56.9533C88.2412 58.0598 88.9953 58.4112 89.7155 58.4112C90.3754 58.4112 90.8317 58.1122 91.1559 57.7608V58.3178H91.8158V55.1327C91.8158 54.0673 91.1937 53.6523 90.1982 53.6523ZM91.1559 57.1925C90.8769 57.5738 90.4244 57.8804 89.8324 57.8804C89.2744 57.8804 88.8935 57.5813 88.8935 56.9047C88.8935 56.329 89.3008 56.0075 89.9757 56.0075C90.5376 56.0075 90.8618 56.1047 91.1597 56.2692V57.1925H91.1559Z" fill="white"/>
<path d="M93.7312 54.314V53.7458H93.0713V58.3178H93.7312V55.6374C93.7312 54.7664 94.0894 54.2542 94.7304 54.2542C95.0396 54.2542 95.2394 54.3215 95.4242 54.4262L95.5901 53.7645C95.4355 53.6972 95.213 53.6523 94.8737 53.6523C94.3797 53.6523 93.9385 53.9439 93.7312 54.314Z" fill="white"/>
<path d="M98.1202 55.6634C97.3359 55.312 97.1021 55.155 97.1021 54.7699C97.1021 54.441 97.3849 54.2017 97.8676 54.2017C98.3502 54.2017 98.6594 54.3363 99.0176 54.6129L99.3872 54.1344C99.0327 53.8466 98.5463 53.6484 97.9128 53.6484C97.0757 53.6484 96.4724 54.1157 96.4724 54.8148C96.4724 55.5475 96.8608 55.8241 97.7846 56.2129C98.5991 56.5606 98.8743 56.7699 98.8743 57.1438C98.8743 57.5924 98.5727 57.8503 97.9468 57.8503C97.4867 57.8503 97.0569 57.6634 96.6874 57.3456L96.3027 57.8241C96.7401 58.1755 97.2944 58.4073 97.9279 58.4073C98.7235 58.4073 99.5078 58.0185 99.5078 57.1213C99.5078 56.2989 98.9988 56.0522 98.1277 55.6597L98.1202 55.6634Z" fill="white"/>
<path d="M102.506 53.6521C101.925 53.6521 101.495 53.9175 101.231 54.3063V52.1567H100.575V58.3175H101.231V55.6446C101.231 54.6427 101.733 54.2165 102.374 54.2165C103.109 54.2165 103.46 54.6577 103.46 55.6446V58.3175H104.12V55.5287C104.12 54.2165 103.479 53.6521 102.506 53.6521Z" fill="white"/>
<path d="M106.077 53.7456H105.421V58.3176H106.077V53.7456Z" fill="white"/>
<path d="M105.764 51.9961C105.492 51.9961 105.281 52.2054 105.281 52.4709C105.281 52.7213 105.492 52.9307 105.764 52.9307C106.005 52.9307 106.22 52.7213 106.22 52.4709C106.22 52.2054 106.005 51.9961 105.764 51.9961Z" fill="white"/>
<path d="M109.452 53.6523C108.83 53.6523 108.389 53.9551 108.064 54.3065V53.7495H107.408V60H108.064V57.8056C108.389 58.1682 108.785 58.4112 109.365 58.4112C110.33 58.4112 111.103 57.5738 111.103 55.9589C111.103 54.3439 110.372 53.6523 109.452 53.6523ZM109.312 57.8467C108.769 57.8467 108.321 57.5402 108.064 57.1589V54.8785C108.389 54.4822 108.796 54.2168 109.286 54.2168C110.018 54.2168 110.459 54.8187 110.459 55.9664C110.459 57.1925 110.082 57.8467 109.312 57.8467Z" fill="white"/>
<path d="M114.591 52.8409H117.517V52.2241H113.904V58.3176H114.591V55.4765H116.276V54.8634H114.591V52.8409Z" fill="white"/>
<path d="M119.519 53.6523C118.399 53.6523 117.498 54.4822 117.498 56.0374C117.498 57.5925 118.362 58.4112 119.481 58.4112C120.601 58.4112 121.503 57.5514 121.503 56C121.503 54.4486 120.643 53.6523 119.519 53.6523ZM119.5 57.8467C118.701 57.8467 118.165 57.2224 118.165 56.0187C118.165 54.815 118.701 54.2168 119.5 54.2168C120.3 54.2168 120.846 54.8187 120.846 56.0187C120.846 57.2187 120.303 57.8467 119.5 57.8467Z" fill="white"/>
<path d="M125.141 56.4148C125.141 57.4166 124.644 57.8428 124.003 57.8428C123.263 57.8428 122.913 57.4017 122.913 56.4148V53.7456H122.253V56.5307C122.253 57.8465 122.894 58.411 123.871 58.411C124.444 58.411 124.874 58.1456 125.138 57.7606V58.3176H125.797V53.7456H125.138V56.4148H125.141Z" fill="white"/>
<path d="M128.837 53.6523C128.26 53.6523 127.83 53.9178 127.562 54.3065V53.7495H126.902V58.3215H127.562V55.6486C127.562 54.6467 128.064 54.2206 128.705 54.2206C129.444 54.2206 129.794 54.6617 129.794 55.6486V58.3215H130.451V55.5327C130.451 54.2206 129.81 53.6561 128.833 53.6561L128.837 53.6523Z" fill="white"/>
<path d="M134.417 54.2614C134.093 53.8951 133.697 53.6521 133.116 53.6521C132.151 53.6521 131.378 54.482 131.378 56.1081C131.378 57.7343 132.106 58.4109 133.029 58.4109C133.652 58.4109 134.089 58.1119 134.417 57.7605V58.3175H135.077V52.1567H134.417V54.2651V54.2614ZM134.417 57.1848C134.093 57.5848 133.686 57.8465 133.195 57.8465C132.468 57.8465 132.026 57.2483 132.026 56.0969C132.026 54.867 132.404 54.2165 133.169 54.2165C133.716 54.2165 134.157 54.5194 134.417 54.9044V57.1848Z" fill="white"/>
<path d="M137.871 53.6523C137.271 53.6523 136.728 53.8019 136.325 54.0187L136.57 54.5533C136.951 54.3327 137.347 54.2019 137.826 54.2019C138.501 54.2019 138.825 54.5346 138.825 55.2075V55.7533C138.553 55.6 138.139 55.4879 137.675 55.4879C136.766 55.4879 135.91 55.9252 135.91 56.9533C135.91 58.0598 136.668 58.4112 137.388 58.4112C138.048 58.4112 138.501 58.1122 138.825 57.7608V58.3178H139.485V55.1327C139.485 54.0673 138.863 53.6523 137.871 53.6523ZM138.825 57.1925C138.546 57.5738 138.097 57.8804 137.498 57.8804C136.94 57.8804 136.562 57.5813 136.562 56.9047C136.562 56.329 136.966 56.0075 137.641 56.0075C138.203 56.0075 138.527 56.1047 138.825 56.2692V57.1925Z" fill="white"/>
<path d="M141.586 52.1567H140.926V53.7493H140.356V54.2988H140.926V57.3829C140.926 58.138 141.235 58.4147 141.808 58.4147C142.155 58.4147 142.4 58.3661 142.657 58.2577L142.702 57.6932C142.491 57.7792 142.317 57.824 142.049 57.824C141.699 57.824 141.586 57.6857 141.586 57.2745V54.2988H142.728V53.7493H141.586V52.1567Z" fill="white"/>
<path d="M144.221 51.9961C143.949 51.9961 143.734 52.2054 143.734 52.4709C143.734 52.7213 143.949 52.9307 144.221 52.9307C144.47 52.9307 144.681 52.7213 144.681 52.4709C144.681 52.2054 144.47 51.9961 144.221 51.9961Z" fill="white"/>
<path d="M144.534 53.7456H143.878V58.3176H144.534V53.7456Z" fill="white"/>
<path d="M147.551 53.6523C146.431 53.6523 145.533 54.4822 145.533 56.0374C145.533 57.5925 146.393 58.4112 147.517 58.4112C148.64 58.4112 149.534 57.5514 149.534 56C149.534 54.4486 148.674 53.6523 147.551 53.6523ZM147.528 57.8467C146.732 57.8467 146.197 57.2224 146.197 56.0187C146.197 54.815 146.732 54.2168 147.528 54.2168C148.324 54.2168 148.874 54.8187 148.874 56.0187C148.874 57.2187 148.331 57.8467 147.528 57.8467Z" fill="white"/>
<path d="M152.415 53.6523C151.834 53.6523 151.404 53.9178 151.14 54.3065V53.7495H150.48V58.3215H151.14V55.6486C151.14 54.6467 151.642 54.2206 152.283 54.2206C153.026 54.2206 153.373 54.6617 153.373 55.6486V58.3215H154.029V55.5327C154.029 54.2206 153.388 53.6561 152.415 53.6561V53.6523Z" fill="white"/>
<path d="M84.3761 10.1421L79.3121 8.06355L84.3761 5.98505L83.4749 3.83178L78.4109 5.91028L80.5112 0.88972L78.3392 0L76.2427 5.02056L74.1425 0L71.9743 0.88972L74.0708 5.91028L69.0068 3.83178L68.1094 5.98505L73.1696 8.06355L68.1094 10.1421L69.0068 12.2953L74.0708 10.2131L71.9743 15.2336L74.1462 16.1271L76.2427 11.1065L78.3392 16.1271L80.5112 15.2336L78.4109 10.2131L83.4749 12.2953L84.3761 10.1421Z" fill="#009FE3"/>
<path d="M51.5977 24.1573H54.9687V15.2339H43.4492V18.2395H51.5977V24.1573Z" fill="#009FE3"/>
<path d="M64.7421 24.1573H68.1093V15.2339H56.5898V18.2395H64.7421V24.1573Z" fill="#009FE3"/>
<path d="M42.9062 28.7703H64.7423V33.3646H68.1095V25.7646H42.9062V28.7703Z" fill="#009FE3"/>
<path d="M51.0547 47.4023H68.1057V34.9126H51.0547V47.4023ZM54.4257 37.9182H64.7423V44.3967H54.4257V37.9182Z" fill="#009FE3"/>
</g>
<defs>
<clipPath id="clip0_105_12">
<rect width="157" height="60" fill="white"/>
</clipPath>
</defs>
</svg>
