<svg width="326" height="127" viewBox="0 0 326 127" fill="none" xmlns="http://www.w3.org/2000/svg">
<path d="M67.1088 80.1855C61.1739 80.1934 56.2881 84.8364 56.2881 90.6461C56.2881 96.4558 61.1739 101.052 67.1088 101.068C73.0986 101.044 77.9452 96.401 77.9452 90.6461C77.9452 84.8912 73.0986 80.1934 67.1088 80.1855ZM66.96 96.2992C63.8595 96.2992 61.5105 93.7623 61.5105 90.6539C61.5105 87.5455 64.0161 84.9539 67.101 84.9539C70.1859 84.9539 72.6053 87.4829 72.6053 90.6539C72.6053 93.825 70.0685 96.2992 66.9522 96.2992H66.96Z" fill="#004289"/>
<path d="M17.4369 72.9827C19.0968 74.6191 20.9916 76.0441 22.8472 76.968L23.043 77.0698L26.2375 73.2881L25.9322 73.1158C22.8942 71.4716 20.514 69.3967 18.9637 66.7737C17.4212 64.1977 16.6304 61.1911 16.6304 57.6129V54.2461H10.9147V57.2527C10.9147 61.1363 10.0299 64.1899 8.38567 66.8677C6.53785 69.8273 3.80526 72.2154 0.305361 74.4234L0 74.6113L3.47641 78.2051L3.66433 78.0955C5.72355 76.968 7.91589 75.2377 9.82635 73.3116C11.4784 71.6282 12.9113 69.8116 13.7725 68.0969C14.6103 69.7725 15.9022 71.4872 17.4447 72.9592L17.4369 72.9827Z" fill="#004289"/>
<path d="M11.2588 98.6015H35.2022V82.2451H11.2588V98.6015ZM16.63 86.8647H29.8075V93.9898H16.63V86.8647Z" fill="#004289"/>
<path d="M35.2891 53.2822H29.9727V80.3732H35.2891V68.3858H41.5294V63.5705H35.2891V53.2822Z" fill="#004289"/>
<path d="M171.072 74.3683C172.818 75.8873 174.822 77.1635 176.702 77.9856L176.897 78.0796L179.771 74.1882L179.465 74.0394C176.725 72.6301 174.274 70.8919 172.52 68.7778C170.727 66.609 169.663 64.0017 169.663 60.8541V59.9302H177.578V55.2637H156.07V59.9302H163.986V61.0499C163.986 63.9077 163.031 66.5777 161.465 68.8875C159.617 71.6592 156.916 73.8985 154.301 75.3392L153.956 75.5271L157.487 79.1836L157.683 79.0896C159.593 78.0091 161.692 76.3727 163.493 74.5405C164.933 73.0294 166.225 71.4321 167.016 69.8427C167.971 71.3851 169.435 72.9354 171.072 74.3761V74.3683Z" fill="#004289"/>
<path d="M209.579 86.9741H228.934V98.6013H234.313V82.3467H209.579V86.9741Z" fill="#004289"/>
<path d="M222.936 68.3467C222.936 65.7864 221.793 63.4296 220.086 61.6288H225.403V57.0171H215.255V51.9355H209.493V57.0171H199.103V61.6288H204.529C202.876 63.4296 201.718 65.7629 201.718 68.3467C201.718 74.0546 206.423 78.6977 212.311 78.7133C218.199 78.6977 222.936 74.0546 222.944 68.3467H222.936ZM206.846 68.1353C206.846 64.9721 209.516 62.2943 212.304 62.2943C215.091 62.2943 217.753 64.9878 217.761 68.1353C217.761 71.2437 215.091 73.9293 212.304 73.9372C209.508 73.9293 206.846 71.2437 206.846 68.1353Z" fill="#004289"/>
<path d="M234.313 53.2822H228.997V80.4671H234.313V70.0927H240.562V65.2852H234.313V53.2822Z" fill="#004289"/>
<path d="M189.214 53.2822H183.89V80.4671H189.214V68.3858H195.454V63.5705H189.214V53.2822Z" fill="#004289"/>
<path d="M310.207 73.7811H292.214V60.079H305.924V55.2559H286.827V78.4633H310.207V73.7811Z" fill="#004289"/>
<path d="M73.6151 61.3469H65.2451V66.1152H73.6151V81.3206H78.9394V53.2822H73.6151V61.3469Z" fill="#004289"/>
<path d="M60.0852 73.6864C61.7451 75.3228 63.6791 76.7478 65.5426 77.7109L65.7461 77.8283L68.9485 74.0466L68.6353 73.8665C65.5974 72.2849 63.2641 70.21 61.706 67.6262C60.1165 65.0658 59.3257 61.9496 59.3257 58.3636V54.2529H53.5944V58.0269C53.5944 61.9104 52.7253 64.9562 51.1123 67.587C49.2645 70.6015 46.4928 72.9974 42.985 75.1975L42.6875 75.3854L46.1717 78.995L46.344 78.8853C48.4111 77.7579 50.5486 76.1214 52.4512 74.2501C54.1659 72.5354 55.6066 70.6798 56.4679 68.8789C57.29 70.5075 58.5506 72.1831 60.0696 73.6864H60.0852Z" fill="#004289"/>
<path d="M177.79 80.1855C171.856 80.1934 166.97 84.8364 166.962 90.6461C166.97 96.401 171.856 101.052 177.79 101.068C183.772 101.044 188.627 96.401 188.627 90.6461C188.627 84.8912 183.772 80.1934 177.79 80.1855ZM177.634 96.2992C174.541 96.2992 172.184 93.7623 172.184 90.6539C172.184 87.5455 174.682 84.9539 177.79 84.9539C180.899 84.9539 183.287 87.4829 183.295 90.6539C183.287 93.7623 180.75 96.2992 177.634 96.2992Z" fill="#004289"/>
<path d="M300.036 84.1631H294.649V98.6012H319.83V93.8407H300.036V84.1631Z" fill="#004289"/>
<path d="M319.705 65.8412V53.2822H314.389V86.7075H319.705V70.6408H326V65.8412H319.705Z" fill="#004289"/>
<path d="M274.668 65.528H270.19V54.0495H265.163V97.4342H270.19V70.7504H274.668V98.6009H279.891V53.2822H274.668V65.528Z" fill="#004289"/>
<path d="M257.771 71.5415C256.573 68.9186 256.08 65.9981 256.08 62.3964V60.6817H262.117V55.7959H244.562V60.6817H250.795V62.4825C250.795 65.8885 250.349 68.668 249.268 71.2518C248.023 74.2115 245.925 76.8893 242.582 79.7393L242.347 79.9585L245.651 83.2314L245.854 83.0748C247.514 81.8455 249.253 80.0682 250.709 78.236C251.93 76.6857 252.964 75.0884 253.622 73.6791C254.287 75.0493 255.328 76.6231 256.542 78.0951C257.959 79.8176 259.549 81.454 261.075 82.4249L261.287 82.5658L264.066 79.2382L263.847 79.0346C260.856 76.4273 259.001 74.1019 257.779 71.5337L257.771 71.5415Z" fill="#004289"/>
<path d="M15.119 115.333C12.5665 114.425 12.0889 113.814 12.0889 112.765C12.0889 111.716 12.8249 110.886 14.5709 110.886C15.8472 110.886 16.7085 111.301 17.6324 112.068L18.5406 110.948C17.4679 110.095 16.3718 109.586 14.6649 109.586C12.2768 109.586 10.6639 110.8 10.6639 112.851C10.6639 114.691 11.6035 115.576 14.3517 116.57C16.685 117.408 17.3975 118.089 17.3975 119.264C17.3975 120.618 16.3405 121.448 14.6414 121.448C13.326 121.448 12.2142 120.845 11.2511 119.921L10.3037 120.978C11.3059 121.988 12.864 122.74 14.5944 122.74C17.2565 122.74 18.8225 121.19 18.8225 119.193C18.8225 117.196 17.9534 116.343 15.1268 115.317L15.119 115.333Z" fill="#004289"/>
<path d="M24.6096 112.788C23.3646 112.788 22.2293 113.093 21.3915 113.548L21.9083 114.659C22.6913 114.205 23.5134 113.923 24.5156 113.923C25.9093 113.923 26.5983 114.612 26.5983 116.045V117.181C26.0346 116.867 25.1733 116.625 24.2024 116.625C22.3076 116.625 20.5381 117.541 20.5381 119.694C20.5381 122.004 22.1119 122.748 23.5995 122.748C24.9697 122.748 25.9093 122.113 26.5905 121.385V122.552H27.9529V115.881C27.9529 113.657 26.661 112.788 24.6096 112.788ZM26.5905 120.203C26.0111 121.002 25.0715 121.644 23.8344 121.644C22.6678 121.644 21.877 121.017 21.877 119.592C21.877 118.394 22.7226 117.705 24.1241 117.705C25.2907 117.705 25.9641 117.917 26.5827 118.261V120.195L26.5905 120.203Z" fill="#004289"/>
<path d="M41.6935 116.954V122.552H43.0637V116.719C43.0637 113.923 41.8501 112.788 39.8926 112.788C38.3423 112.788 37.5594 113.508 36.9956 114.425C36.5415 113.508 35.7194 112.788 34.3726 112.788C33.2373 112.788 32.4309 113.328 31.9454 114.158V112.992H30.5674V122.56H31.9454V116.961C31.9454 114.839 32.7675 113.97 34.0829 113.97C35.3983 113.97 36.1422 114.769 36.1422 116.961V122.56H37.5124V116.961C37.5124 114.839 38.3423 113.97 39.6421 113.97C41.0279 113.97 41.7013 114.769 41.7013 116.961L41.6935 116.954Z" fill="#004289"/>
<path d="M48.5445 117C46.9237 116.264 46.4383 115.943 46.4383 115.137C46.4383 114.448 47.0177 113.947 48.0277 113.947C49.0378 113.947 49.6641 114.221 50.408 114.808L51.1753 113.798C50.4471 113.195 49.4293 112.788 48.106 112.788C46.3756 112.788 45.1229 113.767 45.1229 115.223C45.1229 116.758 45.9215 117.337 47.8398 118.159C49.531 118.887 50.1026 119.326 50.1026 120.109C50.1026 121.041 49.4841 121.589 48.1687 121.589C47.2213 121.589 46.3287 121.197 45.5613 120.532L44.7549 121.534C45.671 122.27 46.8141 122.755 48.1295 122.755C49.7894 122.755 51.4102 121.941 51.4102 120.062C51.4102 118.347 50.3532 117.823 48.5445 117.008V117Z" fill="#004289"/>
<path d="M59.4048 118.575C59.4048 120.673 58.3556 121.558 57.0402 121.558C55.4978 121.558 54.7696 120.634 54.7696 118.575V112.984H53.4072V118.81C53.4072 121.558 54.7305 122.74 56.7505 122.74C57.9641 122.74 58.8489 122.177 59.397 121.378V122.545H60.7672V112.977H59.397V118.567L59.4048 118.575Z" fill="#004289"/>
<path d="M70.4362 122.552V116.719C70.4362 113.963 69.1051 112.788 67.0772 112.788C65.8792 112.788 64.9867 113.344 64.4464 114.158V112.992H63.0684V122.56H64.4464V116.961C64.4464 114.871 65.4721 113.97 66.811 113.97C68.3378 113.97 69.0738 114.902 69.0738 116.961V122.56H70.444L70.4362 122.552Z" fill="#004289"/>
<path d="M74.7426 125.034L75.181 126.075C78.7357 125.958 80.0277 124.58 80.0277 121.698V112.984H78.6653V114.057C77.9919 113.289 77.1776 112.788 75.9718 112.788C73.9596 112.788 72.3545 114.526 72.3545 117.924C72.3545 121.323 73.8735 122.748 75.7918 122.748C77.0837 122.748 77.9997 122.113 78.6731 121.385V121.878C78.6731 124.102 77.9449 124.94 74.7504 125.034H74.7426ZM76.1284 121.565C74.6173 121.565 73.7012 120.312 73.7012 117.909C73.7012 115.333 74.4842 113.97 76.0736 113.97C77.2089 113.97 78.1329 114.612 78.6574 115.403V120.187C77.9841 121.033 77.1463 121.565 76.1206 121.565H76.1284Z" fill="#004289"/>
<path d="M95.116 116.085C95.116 111.708 92.6496 109.79 89.2985 109.79H85.9238V122.553H89.0401C92.4538 122.553 95.116 120.713 95.116 116.077V116.085ZM87.3488 111.082H89.1888C92.125 111.082 93.6909 112.875 93.6909 116.132C93.6909 119.804 91.9762 121.261 89.2202 121.261H87.341V111.082H87.3488Z" fill="#004289"/>
<path d="M98.7647 114.175V112.993H97.3945V122.561H98.7647V116.947C98.7647 115.114 99.5086 114.057 100.847 114.057C101.482 114.057 101.904 114.198 102.28 114.418L102.625 113.04C102.304 112.891 101.842 112.805 101.137 112.805C100.111 112.805 99.1954 113.415 98.7726 114.191L98.7647 114.175Z" fill="#004289"/>
<path d="M110.806 121.644L110.172 120.657C109.295 121.244 108.637 121.565 107.518 121.565C105.96 121.565 104.989 120.273 104.856 118.238H111.237C111.284 118.011 111.299 117.815 111.299 117.486C111.299 114.753 109.945 112.788 107.447 112.788C105.169 112.788 103.493 114.675 103.493 117.713C103.493 121.479 105.623 122.748 107.377 122.748C108.817 122.748 109.663 122.364 110.814 121.644H110.806ZM107.432 113.963C109.107 113.963 109.914 115.254 110.023 117.118H104.856C105.012 114.98 106.007 113.963 107.432 113.963Z" fill="#004289"/>
<path d="M115.849 122.748C117.219 122.748 118.166 122.113 118.84 121.385V122.552H120.21V115.881C120.21 113.657 118.918 112.788 116.851 112.788C115.606 112.788 114.478 113.093 113.641 113.548L114.157 114.659C114.94 114.205 115.762 113.923 116.765 113.923C118.166 113.923 118.84 114.612 118.84 116.045V117.181C118.284 116.867 117.422 116.625 116.467 116.625C114.564 116.625 112.787 117.541 112.787 119.694C112.787 122.004 114.361 122.748 115.849 122.748ZM116.381 117.713C117.54 117.713 118.221 117.924 118.84 118.269V120.203C118.26 121.002 117.328 121.644 116.099 121.644C114.87 121.644 114.142 121.017 114.142 119.592C114.142 118.394 114.987 117.705 116.389 117.705L116.381 117.713Z" fill="#004289"/>
<path d="M133.943 116.954V122.552H135.306V116.719C135.306 113.923 134.092 112.788 132.135 112.788C130.584 112.788 129.802 113.508 129.238 114.425C128.784 113.508 127.969 112.788 126.615 112.788C125.479 112.788 124.681 113.328 124.188 114.158V112.992H122.825V122.56H124.188V116.961C124.188 114.839 125.01 113.97 126.325 113.97C127.64 113.97 128.384 114.769 128.384 116.961V122.56H129.747V116.961C129.747 114.839 130.584 113.97 131.884 113.97C133.262 113.97 133.943 114.769 133.943 116.961V116.954Z" fill="#004289"/>
<path d="M145.54 115.333C142.987 114.425 142.518 113.822 142.518 112.765C142.518 111.708 143.246 110.886 144.992 110.886C146.276 110.886 147.129 111.301 148.053 112.068L148.962 110.956C147.889 110.103 146.793 109.594 145.086 109.594C142.698 109.594 141.093 110.8 141.093 112.851C141.093 114.691 142.017 115.584 144.78 116.562C147.114 117.408 147.826 118.081 147.826 119.263C147.826 120.61 146.769 121.448 145.07 121.448C143.755 121.448 142.643 120.837 141.672 119.913L140.725 120.963C141.727 121.988 143.285 122.732 145.007 122.732C147.662 122.732 149.236 121.182 149.236 119.185C149.236 117.189 148.366 116.335 145.54 115.309V115.333Z" fill="#004289"/>
<path d="M155.045 113.97C156.008 113.97 156.65 114.315 157.339 114.941L158.161 113.916C157.41 113.258 156.423 112.788 155.131 112.788C153.127 112.788 151.013 114.276 151.013 117.823C151.013 121.158 152.931 122.755 155.045 122.755C156.384 122.755 157.316 122.246 158.122 121.424L157.3 120.555C156.65 121.189 156.024 121.573 155.1 121.573C153.401 121.573 152.399 120.062 152.399 117.705C152.399 115.348 153.557 113.97 155.053 113.97H155.045Z" fill="#004289"/>
<path d="M164.018 112.788C162.82 112.788 161.919 113.344 161.371 114.158V109.656H160.009V122.56H161.371V116.961C161.371 114.863 162.42 113.97 163.744 113.97C165.278 113.97 165.999 114.894 165.999 116.961V122.56H167.369V116.719C167.369 113.97 166.038 112.788 164.01 112.788H164.018Z" fill="#004289"/>
<path d="M173.476 112.788C171.151 112.788 169.287 114.526 169.287 117.783C169.287 121.041 171.072 122.755 173.406 122.755C175.739 122.755 177.602 120.955 177.602 117.705C177.602 114.456 175.801 112.788 173.476 112.788ZM173.453 121.573C171.793 121.573 170.673 120.266 170.673 117.744C170.673 115.223 171.793 113.97 173.453 113.97C175.112 113.97 176.232 115.231 176.232 117.744C176.232 120.258 175.105 121.573 173.453 121.573Z" fill="#004289"/>
<path d="M181.039 109.656H179.669V122.56H181.039V109.656Z" fill="#004289"/>
<path d="M187.287 112.788C186.05 112.788 184.915 113.101 184.085 113.555L184.594 114.675C185.377 114.213 186.199 113.939 187.201 113.939C188.603 113.939 189.276 114.636 189.276 116.045V117.188C188.712 116.867 187.851 116.632 186.896 116.632C184.993 116.632 183.224 117.549 183.224 119.702C183.224 122.019 184.79 122.755 186.285 122.755C187.655 122.755 188.603 122.129 189.276 121.393V122.56H190.646V115.889C190.646 113.657 189.354 112.788 187.287 112.788ZM189.276 120.203C188.697 121.002 187.757 121.644 186.528 121.644C185.369 121.644 184.578 121.017 184.578 119.6C184.578 118.394 185.424 117.721 186.825 117.721C187.992 117.721 188.665 117.924 189.284 118.269V120.203H189.276Z" fill="#004289"/>
<path d="M194.624 114.174V112.984H193.254V122.56H194.624V116.946C194.624 115.121 195.368 114.049 196.699 114.049C197.341 114.049 197.756 114.19 198.14 114.409L198.484 113.023C198.163 112.882 197.701 112.788 196.997 112.788C195.971 112.788 195.055 113.399 194.624 114.174Z" fill="#004289"/>
<path d="M203.739 117.001C202.11 116.265 201.625 115.937 201.625 115.13C201.625 114.441 202.212 113.94 203.214 113.94C204.216 113.94 204.858 114.222 205.602 114.801L206.37 113.799C205.634 113.196 204.624 112.781 203.308 112.781C201.57 112.781 200.317 113.76 200.317 115.224C200.317 116.759 201.124 117.338 203.042 118.152C204.733 118.881 205.305 119.319 205.305 120.102C205.305 121.042 204.678 121.582 203.379 121.582C202.423 121.582 201.531 121.19 200.763 120.525L199.965 121.527C200.873 122.263 202.024 122.749 203.339 122.749C204.992 122.749 206.62 121.934 206.62 120.055C206.62 118.333 205.563 117.816 203.754 116.994L203.739 117.001Z" fill="#004289"/>
<path d="M212.844 112.788C211.638 112.788 210.745 113.344 210.197 114.158V109.656H208.835V122.56H210.197V116.961C210.197 114.863 211.239 113.97 212.57 113.97C214.097 113.97 214.825 114.894 214.825 116.961V122.56H216.195V116.719C216.195 113.97 214.864 112.788 212.844 112.788Z" fill="#004289"/>
<path d="M220.259 112.984H218.896V122.56H220.259V112.984Z" fill="#004289"/>
<path d="M219.61 109.32C219.046 109.32 218.607 109.759 218.607 110.315C218.607 110.839 219.046 111.278 219.61 111.278C220.111 111.278 220.557 110.839 220.557 110.315C220.557 109.759 220.111 109.32 219.61 109.32Z" fill="#004289"/>
<path d="M227.266 112.788C225.974 112.788 225.058 113.422 224.385 114.158V112.992H223.022V126.083H224.385V121.487C225.058 122.246 225.88 122.755 227.086 122.755C229.091 122.755 230.696 121.002 230.696 117.619C230.696 114.237 229.177 112.788 227.266 112.788ZM226.976 121.573C225.849 121.573 224.917 120.931 224.385 120.132V115.356C225.058 114.526 225.904 113.97 226.922 113.97C228.441 113.97 229.357 115.231 229.357 117.635C229.357 120.203 228.574 121.573 226.976 121.573Z" fill="#004289"/>
<path d="M237.939 111.09H244.015V109.798H236.514V122.56H237.939V116.61H241.439V115.326H237.939V111.09Z" fill="#004289"/>
<path d="M248.172 112.788C245.847 112.788 243.976 114.526 243.976 117.783C243.976 121.041 245.769 122.755 248.094 122.755C250.419 122.755 252.291 120.955 252.291 117.705C252.291 114.456 250.506 112.788 248.172 112.788ZM248.133 121.573C246.473 121.573 245.361 120.266 245.361 117.744C245.361 115.223 246.473 113.97 248.133 113.97C249.793 113.97 250.928 115.231 250.928 117.744C250.928 120.258 249.801 121.573 248.133 121.573Z" fill="#004289"/>
<path d="M259.846 118.575C259.846 120.673 258.813 121.566 257.482 121.566C255.947 121.566 255.219 120.642 255.219 118.575V112.984H253.849V118.818C253.849 121.574 255.18 122.756 257.208 122.756C258.398 122.756 259.29 122.2 259.838 121.394V122.56H261.209V112.984H259.838V118.575H259.846Z" fill="#004289"/>
<path d="M267.52 112.788C266.322 112.788 265.429 113.344 264.873 114.158V112.992H263.503V122.567H264.873V116.969C264.873 114.871 265.914 113.978 267.246 113.978C268.78 113.978 269.508 114.902 269.508 116.969V122.567H270.871V116.726C270.871 113.978 269.54 112.796 267.512 112.796L267.52 112.788Z" fill="#004289"/>
<path d="M279.108 114.064C278.434 113.297 277.612 112.788 276.406 112.788C274.402 112.788 272.797 114.526 272.797 117.932C272.797 121.338 274.308 122.755 276.226 122.755C277.518 122.755 278.426 122.129 279.108 121.393V122.56H280.478V109.656H279.108V114.072V114.064ZM279.108 120.187C278.434 121.025 277.589 121.573 276.571 121.573C275.06 121.573 274.144 120.32 274.144 117.909C274.144 115.333 274.927 113.97 276.516 113.97C277.651 113.97 278.567 114.605 279.108 115.411V120.187Z" fill="#004289"/>
<path d="M286.279 112.788C285.035 112.788 283.907 113.101 283.069 113.555L283.578 114.675C284.369 114.213 285.191 113.939 286.186 113.939C287.587 113.939 288.26 114.636 288.26 116.045V117.188C287.697 116.867 286.835 116.632 285.872 116.632C283.985 116.632 282.208 117.549 282.208 119.702C282.208 122.019 283.782 122.755 285.277 122.755C286.647 122.755 287.587 122.129 288.26 121.393V122.56H289.631V115.889C289.631 113.657 288.339 112.788 286.279 112.788ZM288.26 120.203C287.681 121.002 286.749 121.644 285.504 121.644C284.346 121.644 283.563 121.017 283.563 119.6C283.563 118.394 284.4 117.721 285.802 117.721C286.968 117.721 287.642 117.924 288.26 118.269V120.203Z" fill="#004289"/>
<path d="M293.992 109.656H292.622V112.992H291.439V114.143H292.622V120.602C292.622 122.184 293.264 122.763 294.454 122.763C295.174 122.763 295.683 122.661 296.216 122.434L296.31 121.252C295.871 121.432 295.511 121.526 294.955 121.526C294.227 121.526 293.992 121.236 293.992 120.375V114.143H296.364V112.992H293.992V109.656Z" fill="#004289"/>
<path d="M299.464 109.32C298.9 109.32 298.454 109.759 298.454 110.315C298.454 110.839 298.9 111.278 299.464 111.278C299.981 111.278 300.419 110.839 300.419 110.315C300.419 109.759 299.981 109.32 299.464 109.32Z" fill="#004289"/>
<path d="M300.115 112.984H298.753V122.56H300.115V112.984Z" fill="#004289"/>
<path d="M306.378 112.788C304.053 112.788 302.189 114.526 302.189 117.783C302.189 121.041 303.975 122.755 306.308 122.755C308.641 122.755 310.497 120.955 310.497 117.705C310.497 114.456 308.712 112.788 306.378 112.788ZM306.331 121.573C304.679 121.573 303.567 120.266 303.567 117.744C303.567 115.223 304.679 113.97 306.331 113.97C307.983 113.97 309.127 115.231 309.127 117.744C309.127 120.258 307.999 121.573 306.331 121.573Z" fill="#004289"/>
<path d="M316.48 112.788C315.274 112.788 314.381 113.344 313.833 114.158V112.992H312.463V122.567H313.833V116.969C313.833 114.871 314.874 113.978 316.206 113.978C317.748 113.978 318.468 114.902 318.468 116.969V122.567H319.831V116.726C319.831 113.978 318.5 112.796 316.48 112.796V112.788Z" fill="#004289"/>
<path d="M175.198 21.6581L164.683 17.3048L175.198 12.9515L173.327 8.44152L162.812 12.7949L167.173 2.2795L162.663 0.416016L158.31 10.9314L153.949 0.416016L149.446 2.2795L153.8 12.7949L143.284 8.44152L141.421 12.9515L151.928 17.3048L141.421 21.6581L143.284 26.1681L153.8 21.8069L149.446 32.3223L153.956 34.1936L158.31 23.6782L162.663 34.1936L167.173 32.3223L162.812 21.8069L173.327 26.1681L175.198 21.6581Z" fill="#009FE3"/>
<path d="M107.135 51.0119H114.135V32.3223H90.2148V38.6174H107.135V51.0119Z" fill="#009FE3"/>
<path d="M134.429 51.0119H141.421V32.3223H117.501V38.6174H134.429V51.0119Z" fill="#009FE3"/>
<path d="M89.0869 60.674H134.429V70.2968H141.421V54.3789H89.0869V60.674Z" fill="#009FE3"/>
<path d="M106.008 99.6973H141.414V73.5381H106.008V99.6973ZM113.008 79.8332H134.43V93.4022H113.008V79.8332Z" fill="#009FE3"/>
</svg>
