<svg width="324" height="136" viewBox="0 0 324 136" fill="none" xmlns="http://www.w3.org/2000/svg">
<path d="M5.056 10.896C6.368 10.896 7.312 9.968 7.312 8.688C7.312 7.392 6.368 6.464 5.056 6.464C3.76 6.464 2.816 7.392 2.816 8.688C2.816 9.968 3.76 10.896 5.056 10.896ZM5.056 5.376C7.104 5.376 8.56 6.752 8.56 8.688C8.56 10.64 7.104 11.984 5.056 11.984C3.04 11.984 1.584 10.64 1.584 8.688C1.584 6.752 3.04 5.376 5.056 5.376ZM5.696 1.008V3.136H9.232V4.192H0.768V3.136H4.384V1.008H5.696ZM14.256 6.736V7.84H11.904V15.184H10.592V0.848H11.904V6.736H14.256ZM17.1188 5.376C17.1188 6.768 18.1748 7.776 19.5828 7.776C20.9908 7.776 22.0468 6.768 22.0468 5.376C22.0468 3.968 20.9908 2.976 19.5828 2.976C18.1748 2.976 17.1188 3.968 17.1188 5.376ZM23.3268 5.376C23.3268 7.456 21.7268 8.912 19.5828 8.912C17.4388 8.912 15.8388 7.456 15.8388 5.376C15.8388 3.296 17.4388 1.84 19.5828 1.84C21.7268 1.84 23.3268 3.296 23.3268 5.376ZM19.0868 10.32V13.792H27.3428V14.864H17.7748V10.32H19.0868ZM28.7988 4.512H26.7028V6.944H28.7988V8.032H26.7028V11.392H25.3908V0.832H26.7028V3.44H28.7988V4.512ZM36.0716 7.216V10.656C38.6796 10.656 40.5356 10.56 42.6796 10.176L42.8076 11.248C40.5676 11.632 38.6476 11.728 35.9116 11.728H34.7756V2.128H41.7356V3.2H36.0716V6.16H41.2076V7.216H36.0716ZM44.3276 0.832H45.6396V15.168H44.3276V0.832ZM53.6064 2.08V4.64C53.6064 7.28 55.2384 9.904 57.3184 10.896L56.5344 11.952C54.9184 11.12 53.5904 9.392 52.9504 7.36C52.3264 9.488 50.9984 11.28 49.3824 12.16L48.5824 11.12C50.6624 10.064 52.2944 7.312 52.2944 4.64V2.08H53.6064ZM59.0784 0.832H60.4064V15.216H59.0784V8.624H55.9744V7.536H59.0784V5.04H55.9744V3.952H59.0784V0.832ZM64.5971 9.872L64.0851 8.8C66.8371 8.32 69.1411 6.544 69.1411 4.192H64.5171V3.136H69.1411V1.184H70.4691V3.136H75.0771V4.192H70.4691C70.4691 6.544 72.7731 8.32 75.5251 8.8L74.9971 9.872C72.7251 9.408 70.6931 8.192 69.8131 6.352C68.9171 8.192 66.8851 9.408 64.5971 9.872ZM63.3011 12.272H76.3251V13.344H63.3011V12.272ZM86.302 2.592C84.894 2.592 83.902 3.344 83.902 4.464C83.902 5.584 84.894 6.336 86.302 6.336C87.694 6.336 88.686 5.584 88.686 4.464C88.686 3.344 87.694 2.592 86.302 2.592ZM86.302 7.408C84.158 7.408 82.638 6.208 82.638 4.464C82.638 2.704 84.158 1.504 86.302 1.504C88.43 1.504 89.95 2.704 89.95 4.464C89.95 6.208 88.43 7.408 86.302 7.408ZM91.022 8.112L91.134 9.088C89.774 9.328 88.382 9.488 87.022 9.568V14.736H85.71V9.648C84.286 9.712 82.926 9.728 81.742 9.728L81.566 8.624C84.238 8.624 87.87 8.592 91.022 8.112ZM92.062 0.848H93.374V15.2H92.062V0.848ZM99.5648 10.816C100.685 10.816 101.421 9.36 101.421 7.008C101.421 4.704 100.685 3.248 99.5648 3.248C98.4128 3.248 97.6928 4.704 97.6928 7.008C97.6928 9.36 98.4128 10.816 99.5648 10.816ZM104.413 6.416V1.152H105.661V14.48H104.413V7.488H102.605C102.493 10.304 101.325 12.032 99.5648 12.032C97.6928 12.032 96.4928 10.112 96.4928 7.008C96.4928 3.952 97.6928 2.032 99.5648 2.032C101.293 2.032 102.445 3.712 102.605 6.416H104.413ZM107.261 0.832H108.509V15.184H107.261V0.832ZM119.574 3.376V5.04C119.574 7.424 121.254 10.032 123.334 11.024L122.55 12.048C120.95 11.232 119.574 9.52 118.918 7.536C118.294 9.648 116.902 11.488 115.27 12.352L114.502 11.312C116.55 10.304 118.262 7.584 118.262 5.04V3.376H115.014V2.304H122.838V3.376H119.574ZM125.126 0.832H126.438V15.2H125.126V7.12H122.022V6.048H125.126V0.832ZM131.188 3.328V10.48H135.204V3.328H131.188ZM129.908 11.536V2.272H136.484V11.536H129.908ZM142.74 6.56V7.664H140.372V15.184H139.06V0.848H140.372V6.56H142.74ZM145.971 3.296V10.512C148.515 10.512 150.355 10.4 152.435 10.032L152.579 11.12C150.387 11.536 148.499 11.632 145.795 11.632H144.659V2.208H151.331V3.296H145.971ZM157.459 6.496V7.584H155.091V15.216H153.779V0.832H155.091V6.496H157.459ZM163.426 1.888C165.666 1.888 167.266 3.248 167.266 5.264C167.266 7.264 165.666 8.64 163.426 8.64C161.202 8.64 159.586 7.264 159.586 5.264C159.586 3.248 161.202 1.888 163.426 1.888ZM163.426 3.008C161.954 3.008 160.866 3.92 160.866 5.264C160.866 6.592 161.954 7.52 163.426 7.52C164.914 7.52 165.986 6.592 165.986 5.264C165.986 3.92 164.914 3.008 163.426 3.008ZM169.154 0.832H170.466V15.216H169.154V0.832ZM159.026 12.064L158.866 10.96C161.474 10.96 165.074 10.944 168.21 10.464L168.322 11.44C165.09 12.032 161.618 12.064 159.026 12.064ZM187.131 13.92V10.992H179.979V13.92H187.131ZM190.091 7.52H184.203V9.936H188.411V14.976H178.683V9.936H182.891V7.52H177.051V6.464H181.067C181.531 4.736 181.627 3.456 181.659 2.576H178.315V1.52H182.923V1.936C182.923 2.72 182.923 4.304 182.395 6.464H186.779C187.163 4.72 187.227 3.456 187.243 2.576H183.995V1.52H188.523V2.08C188.523 2.944 188.523 4.416 188.075 6.464H190.091V7.52ZM198.266 2.064C195.914 2.064 194.57 2.608 194.57 3.568C194.57 4.528 195.914 5.072 198.266 5.072C200.618 5.072 201.962 4.528 201.962 3.568C201.962 2.608 200.618 2.064 198.266 2.064ZM198.266 6.048C195.114 6.048 193.226 5.184 193.226 3.568C193.226 1.952 195.114 1.072 198.266 1.072C201.418 1.072 203.306 1.952 203.306 3.568C203.306 5.184 201.418 6.048 198.266 6.048ZM194.666 12.544V14H203.53V15.024H193.386V11.584H201.802V10.304H193.338V9.312H203.098V12.544H194.666ZM191.77 7.024H204.762V8.08H191.77V7.024ZM223.106 7.696H217.218V10.256H221.394V15.152H220.082V11.312H211.554V10.256H215.906V7.696H210.082V6.624H214.05C214.514 4.8 214.626 3.456 214.658 2.544H211.346V1.488H215.938V1.904C215.938 2.704 215.938 4.352 215.346 6.624H219.746C220.178 4.784 220.242 3.456 220.258 2.544H217.01V1.488H221.538V2.048C221.538 2.928 221.538 4.48 221.042 6.624H223.106V7.696ZM237.825 7.696H231.937V10.256H236.113V15.152H234.801V11.312H226.273V10.256H230.625V7.696H224.801V6.624H228.769C229.233 4.8 229.345 3.456 229.377 2.544H226.065V1.488H230.657V1.904C230.657 2.704 230.657 4.352 230.065 6.624H234.465C234.897 4.784 234.961 3.456 234.977 2.544H231.729V1.488H236.257V2.048C236.257 2.928 236.257 4.48 235.761 6.624H237.825V7.696ZM254.586 4.256V5.312H244.842V1.04H246.138V4.256H254.586ZM256.106 7.632H250.234V9.136H254.458V12.448H246.042V14H254.938V15.024H244.73V11.488H253.146V10.144H244.698V9.136H248.922V7.632H243.098V6.56H256.106V7.632ZM259.641 7.184V10.656C262.089 10.656 263.833 10.56 265.897 10.192L266.025 11.28C263.865 11.664 262.041 11.744 259.449 11.744H258.345V6.128H263.449V3.232H258.313V2.16H264.729V7.184H259.641ZM268.313 0.815999H269.625V15.2H268.313V7.424H265.577V6.352H268.313V0.815999ZM284.418 6.592L284.562 7.648C282.594 8.048 280.898 8.16 277.89 8.16H276.77V1.792H283.09V2.848H278.082V7.072C280.914 7.072 282.546 6.96 284.418 6.592ZM279.522 10.768V13.92H285.954V10.768H279.522ZM278.242 14.976V9.728H287.25V14.976H278.242ZM289.378 4.336V5.424H287.25V8.96H285.938V0.815999H287.25V4.336H289.378ZM297.312 2.384C295.056 2.384 293.616 3.056 293.616 4.192C293.616 5.328 295.056 5.984 297.312 5.984C299.568 5.984 301.008 5.328 301.008 4.192C301.008 3.056 299.568 2.384 297.312 2.384ZM297.312 7.04C294.24 7.04 292.272 5.984 292.272 4.192C292.272 2.4 294.24 1.328 297.312 1.328C300.384 1.328 302.352 2.4 302.352 4.192C302.352 5.984 300.384 7.04 297.312 7.04ZM293.808 10.704V13.792H302.368V14.864H292.496V10.704H293.808ZM290.816 8.384H303.792V9.44H290.816V8.384ZM310.937 3.648V10.56C312.857 10.544 314.217 10.464 315.785 10.128L315.897 11.216C314.185 11.584 312.729 11.648 310.585 11.648H309.641V2.576H314.985V3.648H310.937ZM320.057 0.832H321.321V15.184H320.057V7.664H318.025V14.464H316.793V1.152H318.025V6.592H320.057V0.832ZM9.36 26.352V27.408H0.896V26.352H4.464V24.752H5.776V26.352H9.36ZM2.944 30.736C2.944 31.696 3.808 32.32 5.12 32.32C6.432 32.32 7.312 31.696 7.312 30.736C7.312 29.792 6.432 29.168 5.12 29.168C3.808 29.168 2.944 29.792 2.944 30.736ZM8.56 30.736C8.56 32.32 7.168 33.328 5.12 33.328C3.088 33.328 1.696 32.32 1.696 30.736C1.696 29.168 3.088 28.144 5.12 28.144C7.168 28.144 8.56 29.168 8.56 30.736ZM2.672 35.664V34.592H11.984V39.2H10.672V35.664H2.672ZM14.112 28.8V29.888H11.984V33.808H10.672V24.848H11.984V28.8H14.112ZM28.2489 26.768V27.824H19.5289V26.768H23.2409V24.976H24.5529V26.768H28.2489ZM26.0889 31.312C26.0889 30.304 25.1929 29.648 23.8969 29.648C22.6169 29.648 21.7209 30.304 21.7209 31.312C21.7209 32.32 22.6169 32.992 23.8969 32.992C25.1929 32.992 26.0889 32.32 26.0889 31.312ZM20.4729 31.312C20.4729 29.696 21.8809 28.624 23.8969 28.624C25.9129 28.624 27.3209 29.696 27.3209 31.312C27.3209 32.944 25.9129 34 23.8969 34C21.8809 34 20.4729 32.944 20.4729 31.312ZM19.4169 36.368L19.2249 35.264C21.9449 35.264 25.5129 35.248 28.6169 34.832L28.7129 35.808C25.5129 36.352 22.0569 36.368 19.4169 36.368ZM29.5289 24.848H30.8409V39.184H29.5289V24.848ZM39.7676 31.04V26.976H35.7356V31.04H39.7676ZM41.0476 25.92V32.096H34.4556V25.92H41.0476ZM40.4236 38.144C42.5516 38.144 43.8476 37.52 43.8476 36.496C43.8476 35.456 42.5516 34.848 40.4236 34.848C38.2956 34.848 37.0156 35.456 37.0156 36.496C37.0156 37.52 38.2956 38.144 40.4236 38.144ZM40.4236 33.808C43.3356 33.808 45.1596 34.784 45.1596 36.496C45.1596 38.192 43.3356 39.184 40.4236 39.184C37.5276 39.184 35.7036 38.192 35.7036 36.496C35.7036 34.784 37.5276 33.808 40.4236 33.808ZM44.9996 28.416H47.1276V29.504H44.9996V33.312H43.6876V24.848H44.9996V28.416ZM56.9024 31.776L56.2784 32.8C54.6464 32.272 53.4144 31.136 52.8064 29.712C52.1984 31.344 50.9024 32.624 49.1904 33.232L48.5184 32.192C50.6784 31.44 52.1184 29.584 52.1184 27.52V26.96H48.9024V25.904H56.5984V26.96H53.4304V27.52C53.4304 29.392 54.7904 31.072 56.9024 31.776ZM55.1584 38.128C57.2704 38.128 58.5664 37.536 58.5664 36.512C58.5664 35.504 57.2704 34.912 55.1584 34.912C53.0144 34.912 51.7344 35.504 51.7344 36.512C51.7344 37.536 53.0144 38.128 55.1584 38.128ZM55.1584 33.872C58.0704 33.872 59.8784 34.848 59.8784 36.512C59.8784 38.192 58.0704 39.168 55.1584 39.168C52.2144 39.168 50.4224 38.192 50.4224 36.512C50.4224 34.848 52.2144 33.872 55.1584 33.872ZM59.7184 28.464H61.8464V29.568H59.7184V33.504H58.4064V24.848H59.7184V28.464ZM71.8131 26.352V27.408H63.3491V26.352H66.9171V24.752H68.2291V26.352H71.8131ZM65.3971 30.736C65.3971 31.696 66.2611 32.32 67.5731 32.32C68.8851 32.32 69.7651 31.696 69.7651 30.736C69.7651 29.792 68.8851 29.168 67.5731 29.168C66.2611 29.168 65.3971 29.792 65.3971 30.736ZM71.0131 30.736C71.0131 32.32 69.6211 33.328 67.5731 33.328C65.5411 33.328 64.1491 32.32 64.1491 30.736C64.1491 29.168 65.5411 28.144 67.5731 28.144C69.6211 28.144 71.0131 29.168 71.0131 30.736ZM65.1251 35.664V34.592H74.4371V39.2H73.1251V35.664H65.1251ZM76.5651 28.8V29.888H74.4371V33.808H73.1251V24.848H74.4371V28.8H76.5651ZM87.0439 29.76V33.232H85.7959V25.12H87.0439V28.688H88.8679V24.848H90.1319V33.696H88.8679V29.76H87.0439ZM85.2039 31.568L84.4999 32.576C83.1559 32.032 82.1799 31.008 81.6679 29.792C81.1559 31.136 80.1319 32.352 78.7399 32.976L78.0359 31.952C79.9079 31.12 81.0279 29.264 81.0279 27.664V25.728H82.2919V27.664C82.2919 29.248 83.3639 30.864 85.2039 31.568ZM85.3959 38.16C87.5719 38.16 88.8999 37.584 88.8999 36.592C88.8999 35.6 87.5719 35.04 85.3959 35.04C83.2519 35.04 81.9079 35.6 81.9079 36.592C81.9079 37.584 83.2519 38.16 85.3959 38.16ZM85.3959 34.016C88.3559 34.016 90.1959 34.96 90.1959 36.592C90.1959 38.224 88.3559 39.168 85.3959 39.168C82.4519 39.168 80.6119 38.224 80.6119 36.592C80.6119 34.96 82.4519 34.016 85.3959 34.016ZM104.179 28.608V29.664H94.4666V25.312H104.035V26.368H95.7786V28.608H104.179ZM95.6186 36.512V37.984H104.483V39.008H94.3386V35.536H102.755V34.16H94.2906V33.136H104.051V36.512H95.6186ZM92.7386 30.816H105.731V31.888H92.7386V30.816ZM117.889 24.832H119.201V39.216H117.889V24.832ZM111.633 25.936C113.761 25.936 115.281 27.888 115.281 30.944C115.281 34 113.761 35.952 111.633 35.952C109.505 35.952 107.985 34 107.985 30.944C107.985 27.888 109.505 25.936 111.633 25.936ZM111.633 27.12C110.225 27.12 109.233 28.624 109.233 30.944C109.233 33.28 110.225 34.784 111.633 34.784C113.025 34.784 114.017 33.28 114.017 30.944C114.017 28.624 113.025 27.12 111.633 27.12ZM126.394 25.904H133.018C133.018 29.552 130.474 32.224 126.314 33.456L125.786 32.4C129.194 31.392 131.354 29.44 131.594 26.96H126.394V25.904ZM132.394 38.128C134.458 38.128 135.77 37.472 135.77 36.384C135.77 35.28 134.458 34.624 132.394 34.624C130.33 34.624 129.018 35.28 129.018 36.384C129.018 37.472 130.33 38.128 132.394 38.128ZM132.394 33.6C135.226 33.6 137.066 34.64 137.066 36.384C137.066 38.112 135.226 39.168 132.394 39.168C129.562 39.168 127.722 38.112 127.722 36.384C127.722 34.64 129.562 33.6 132.394 33.6ZM136.89 28.544H139.018V29.632H136.89V33.408H135.578V24.832H136.89V28.544ZM147.993 33.312H150.905V24.832H152.217V35.76H150.905V34.288H147.993V33.312ZM145.065 26.384C143.705 26.384 142.777 26.992 142.777 27.904C142.777 28.832 143.705 29.44 145.065 29.44C146.425 29.44 147.353 28.832 147.353 27.904C147.353 26.992 146.425 26.384 145.065 26.384ZM145.065 30.416C142.969 30.416 141.529 29.44 141.529 27.904C141.529 26.4 142.969 25.408 145.065 25.408C147.161 25.408 148.601 26.4 148.601 27.904C148.601 29.44 147.161 30.416 145.065 30.416ZM144.553 35.248V32.48C143.129 32.544 141.753 32.56 140.569 32.56L140.393 31.472C143.049 31.472 146.601 31.44 149.641 31.056L149.753 32C148.489 32.192 147.161 32.336 145.865 32.416V35.248H144.553ZM143.753 37.792H152.585V38.864H142.441V34.688H143.753V37.792ZM162.344 36.288H168.216V37.376H155.176V36.288H161.016V32.608H156.84V25.984H166.568V27.056H158.152V31.552H166.712V32.608H162.344V36.288ZM183.985 33.68V31.04H181.617V29.968H183.985V28.464H181.617V27.392H183.985V24.848H185.313V33.68H183.985ZM176.609 26.976V31.712C177.313 31.696 178.049 31.664 178.769 31.632V26.976H176.609ZM181.921 31.376L182.001 32.352C179.233 32.784 176.001 32.832 173.681 32.832L173.537 31.744C174.081 31.744 174.705 31.744 175.345 31.728V26.976H173.921V25.92H181.473V26.976H180.049V31.552C180.689 31.504 181.329 31.456 181.921 31.376ZM180.577 38.144C182.753 38.144 184.049 37.568 184.049 36.56C184.049 35.584 182.753 34.992 180.577 34.992C178.401 34.992 177.105 35.584 177.105 36.56C177.105 37.568 178.401 38.144 180.577 38.144ZM180.577 33.984C183.537 33.984 185.361 34.912 185.361 36.56C185.361 38.224 183.537 39.168 180.577 39.168C177.601 39.168 175.793 38.224 175.793 36.56C175.793 34.912 177.601 33.984 180.577 33.984ZM196.607 31.872L195.999 32.896C194.367 32.384 193.103 31.344 192.463 29.984C191.855 31.504 190.559 32.688 188.879 33.264L188.223 32.224C190.351 31.568 191.791 29.84 191.791 27.92V27.632H188.607V26.576H191.791V24.752H193.103V26.576H196.271V27.632H193.103V27.92C193.103 29.664 194.495 31.248 196.607 31.872ZM194.783 38.144C196.895 38.144 198.191 37.568 198.191 36.576C198.191 35.584 196.895 35.008 194.783 35.008C192.639 35.008 191.359 35.584 191.359 36.576C191.359 37.568 192.639 38.144 194.783 38.144ZM194.783 33.984C197.711 33.984 199.503 34.912 199.503 36.576C199.503 38.224 197.711 39.152 194.783 39.152C191.823 39.152 190.047 38.224 190.047 36.576C190.047 34.912 191.823 33.984 194.783 33.984ZM199.343 28.544H201.471V29.632H199.343V33.632H198.031V24.832H199.343V28.544ZM206.174 34.816C207.294 34.816 208.03 33.36 208.03 31.008C208.03 28.704 207.294 27.248 206.174 27.248C205.022 27.248 204.302 28.704 204.302 31.008C204.302 33.36 205.022 34.816 206.174 34.816ZM211.022 30.416V25.152H212.27V38.48H211.022V31.488H209.214C209.102 34.304 207.934 36.032 206.174 36.032C204.302 36.032 203.102 34.112 203.102 31.008C203.102 27.952 204.302 26.032 206.174 26.032C207.902 26.032 209.054 27.712 209.214 30.416H211.022ZM213.87 24.832H215.118V39.184H213.87V24.832ZM224.023 27.072V31.728H231.367V27.072H224.023ZM228.375 36.256H234.231V37.344H221.223V36.256H227.047V32.768H222.759V26.032H232.647V32.768H228.375V36.256ZM239.846 26.72C238.454 26.72 237.43 27.664 237.43 28.992C237.43 30.32 238.454 31.28 239.846 31.28C241.254 31.28 242.278 30.32 242.278 28.992C242.278 27.664 241.254 26.72 239.846 26.72ZM246.438 27.904H243.35C243.462 28.24 243.526 28.608 243.526 28.992C243.526 29.376 243.462 29.728 243.366 30.048H246.438V27.904ZM246.438 31.12H242.79C242.118 31.904 241.078 32.384 239.846 32.384C237.734 32.384 236.182 30.976 236.182 28.992C236.182 27.008 237.734 25.616 239.846 25.616C241.062 25.616 242.086 26.08 242.742 26.832H246.438V24.848H247.766V33.008H246.438V31.12ZM246.198 33.472V34.416C246.198 35.92 247.254 37.424 249.094 38.048L248.438 39.024C247.046 38.496 246.022 37.52 245.542 36.304C245.094 37.472 244.23 38.576 242.902 39.136C241.526 38.608 240.662 37.536 240.23 36.352C239.718 37.504 238.742 38.496 237.398 39.024L236.742 38.048C238.55 37.376 239.622 35.824 239.622 34.416V33.472H240.886V34.416C240.886 35.712 241.542 37.088 242.886 37.872C244.246 37.008 244.918 35.552 244.918 34.416V33.472H246.198ZM252.581 27.296V34.512C255.125 34.512 256.965 34.4 259.045 34.032L259.189 35.12C256.997 35.536 255.109 35.632 252.405 35.632H251.269V26.208H257.941V27.296H252.581ZM264.069 30.496V31.584H261.701V39.216H260.389V24.832H261.701V30.496H264.069ZM266.755 38.208C266.179 38.208 265.699 37.76 265.699 37.104C265.699 36.432 266.179 35.968 266.755 35.968C267.331 35.968 267.811 36.432 267.811 37.104C267.811 37.76 267.331 38.208 266.755 38.208ZM281.923 26.352V27.408H273.459V26.352H277.027V24.704H278.339V26.352H281.923ZM275.507 30.688C275.507 31.632 276.371 32.256 277.683 32.256C278.995 32.256 279.875 31.632 279.875 30.688C279.875 29.744 278.995 29.12 277.683 29.12C276.371 29.12 275.507 29.744 275.507 30.688ZM281.123 30.688C281.123 32.24 279.731 33.232 277.683 33.232C275.635 33.232 274.259 32.24 274.259 30.688C274.259 29.12 275.635 28.128 277.683 28.128C279.731 28.128 281.123 29.12 281.123 30.688ZM276.819 35.328V37.936H283.251V35.328H276.819ZM275.539 38.992V34.288H284.547V38.992H275.539ZM286.675 28.656V29.744H284.547V33.472H283.235V24.848H284.547V28.656H286.675ZM288.465 26.544H291.649C291.649 29.616 291.249 32.992 289.185 35.776L288.161 35.2C289.937 32.912 290.433 30.288 290.529 27.616H288.465V26.544ZM296.465 30.464V25.2H297.697V38.448H296.465V31.536H294.465C294.129 33.328 293.521 35.136 292.369 36.704L291.345 36.112C293.297 33.552 293.633 30.32 293.681 27.616H292.129V26.544H294.817C294.817 27.728 294.785 29.072 294.625 30.464H296.465ZM299.121 24.832H300.369V39.168H299.121V24.832ZM312.906 26.048C310.618 26.048 309.21 26.656 309.21 27.664C309.21 28.688 310.618 29.28 312.906 29.28C315.194 29.28 316.602 28.688 316.602 27.664C316.602 26.656 315.194 26.048 312.906 26.048ZM312.906 30.304C309.786 30.304 307.866 29.344 307.866 27.664C307.866 26 309.786 25.04 312.906 25.04C316.026 25.04 317.946 26 317.946 27.664C317.946 29.344 316.026 30.304 312.906 30.304ZM313.578 34.704V35.152C313.578 36.72 315.786 37.872 318.41 38.128L317.978 39.136C315.738 38.864 313.738 38.016 312.906 36.656C312.026 38 310.042 38.88 307.802 39.136L307.37 38.128C309.962 37.856 312.218 36.688 312.218 35.152V34.704H313.578ZM306.426 31.392H319.434V32.464H313.546V34.048H312.25V32.464H306.426V31.392ZM10.976 51.696V51.344H2.224V50.272H12.288V51.696C12.288 53.472 12.288 55.44 11.744 58.336L10.432 58.192C10.976 55.44 10.976 53.424 10.976 51.696ZM7.216 60.096H13.84V61.168H0.864V60.096H5.904V54.96H7.216V60.096ZM15.9188 65.04L15.5668 64.176C16.5748 63.728 17.1668 62.944 17.1668 62C17.1028 62.016 17.0548 62.016 16.9908 62.016C16.4308 62.016 15.9188 61.664 15.9188 60.992C15.9188 60.368 16.4308 59.968 17.0228 59.968C17.7908 59.968 18.2548 60.624 18.2548 61.696C18.2548 63.232 17.3588 64.432 15.9188 65.04ZM25.038 59.712V58.656H34.974V63.2H33.662V59.712H25.038ZM26.542 50.464V53.248H33.614V50.464H26.542ZM30.75 56.112H36.574V57.168H23.582V56.112H29.438V54.288H25.262V49.424H34.91V54.288H30.75V56.112ZM45.9488 52.912H48.8128V48.832H50.1408V57.536H48.8128V54H45.9488V52.912ZM46.8128 55.904L46.1888 56.928C44.5408 56.416 43.2448 55.344 42.5888 53.952C41.9808 55.52 40.6848 56.736 38.9888 57.296L38.3488 56.288C40.4608 55.568 41.9008 53.824 41.9008 51.888V51.616H38.7168V50.56H41.9008V48.752H43.2128V50.56H46.3808V51.616H43.2128V51.888C43.2128 53.68 44.7008 55.28 46.8128 55.904ZM45.3888 62.144C47.5648 62.144 48.8768 61.536 48.8768 60.528C48.8768 59.536 47.5808 58.928 45.3888 58.928C43.2288 58.928 41.9328 59.536 41.9328 60.528C41.9328 61.536 43.2288 62.144 45.3888 62.144ZM45.3888 57.904C48.3648 57.904 50.1888 58.864 50.1888 60.528C50.1888 62.208 48.3648 63.168 45.3888 63.168C42.4448 63.168 40.6208 62.208 40.6208 60.528C40.6208 58.864 42.4448 57.904 45.3888 57.904ZM58.1235 57.296L57.1795 56.512C59.0675 54.992 59.8515 53.232 60.0115 51.008H57.8195V49.952H61.2595C61.2595 51.008 61.1635 52 60.9235 52.944H63.4835V48.848H64.7955V58.656H63.4835V54.016H60.5715C60.0755 55.216 59.2915 56.304 58.1235 57.296ZM53.5155 49.952H57.2755C57.2755 52.8 56.3795 54.832 53.9635 56.544L53.1155 55.712C54.9715 54.464 55.8355 53.088 56.0275 51.008H53.5155V49.952ZM60.8115 57.424V57.984C60.8115 60.032 63.0195 61.616 65.5795 62.064L65.0355 63.104C62.9235 62.688 61.0035 61.584 60.1555 59.92C59.3075 61.584 57.3715 62.72 55.2275 63.136L54.6995 62.096C57.2595 61.648 59.4995 60.064 59.4995 57.984V57.424H60.8115ZM71.3324 55.808H84.2924V56.864H71.3324V55.808ZM77.8124 58.064C80.8844 58.064 82.7244 58.976 82.7244 60.624C82.7244 62.256 80.8844 63.184 77.8124 63.184C74.7564 63.184 72.9004 62.256 72.9004 60.624C72.9004 58.976 74.7564 58.064 77.8124 58.064ZM77.8124 59.072C75.5564 59.072 74.2284 59.648 74.2284 60.624C74.2284 61.6 75.5564 62.16 77.8124 62.16C80.0684 62.16 81.3964 61.6 81.3964 60.624C81.3964 59.648 80.0684 59.072 77.8124 59.072ZM77.8124 49.2C80.9164 49.2 82.8524 50.208 82.8524 51.936C82.8524 53.648 80.9164 54.656 77.8124 54.656C74.7244 54.656 72.7724 53.648 72.7724 51.936C72.7724 50.208 74.7244 49.2 77.8124 49.2ZM77.8124 50.224C75.5404 50.224 74.1164 50.864 74.1164 51.936C74.1164 52.992 75.5404 53.632 77.8124 53.632C80.0844 53.632 81.5084 52.992 81.5084 51.936C81.5084 50.864 80.0844 50.224 77.8124 50.224ZM93.5711 57.312H96.4831V48.832H97.7951V59.76H96.4831V58.288H93.5711V57.312ZM90.6431 50.384C89.2831 50.384 88.3551 50.992 88.3551 51.904C88.3551 52.832 89.2831 53.44 90.6431 53.44C92.0031 53.44 92.9311 52.832 92.9311 51.904C92.9311 50.992 92.0031 50.384 90.6431 50.384ZM90.6431 54.416C88.5471 54.416 87.1071 53.44 87.1071 51.904C87.1071 50.4 88.5471 49.408 90.6431 49.408C92.7391 49.408 94.1791 50.4 94.1791 51.904C94.1791 53.44 92.7391 54.416 90.6431 54.416ZM90.1311 59.248V56.48C88.7071 56.544 87.3311 56.56 86.1471 56.56L85.9711 55.472C88.6271 55.472 92.1791 55.44 95.2191 55.056L95.3311 56C94.0671 56.192 92.7391 56.336 91.4431 56.416V59.248H90.1311ZM89.3311 61.792H98.1631V62.864H88.0191V58.688H89.3311V61.792ZM104.978 58.896C106.29 58.896 107.234 57.968 107.234 56.688C107.234 55.392 106.29 54.464 104.978 54.464C103.682 54.464 102.738 55.392 102.738 56.688C102.738 57.968 103.682 58.896 104.978 58.896ZM104.978 53.376C107.026 53.376 108.482 54.752 108.482 56.688C108.482 58.64 107.026 59.984 104.978 59.984C102.962 59.984 101.506 58.64 101.506 56.688C101.506 54.752 102.962 53.376 104.978 53.376ZM105.618 49.008V51.136H109.154V52.192H100.69V51.136H104.306V49.008H105.618ZM114.178 54.736V55.84H111.826V63.184H110.514V48.848H111.826V54.736H114.178ZM122.593 56.224H126.001V53.344H122.593V56.224ZM121.297 58.512V51.28H117.345V58.512H121.297ZM126.001 48.832H127.313V63.216H126.001V57.296H122.593V59.552H116.065V50.24H122.593V52.272H126.001V48.832ZM139.738 55.92V53.296H135.674V55.92H139.738ZM141.017 49.872V56.976H134.378V49.872H135.674V52.272H139.738V49.872H141.017ZM137.306 58.368V61.792H145.562V62.864H135.994V58.368H137.306ZM144.922 53.184H147.034V54.288H144.922V59.376H143.61V48.848H144.922V53.184ZM158.024 55.84L157.336 56.784C156.232 56.208 155.544 55.152 155.144 54.032C154.856 55.168 154.28 56.288 153.192 56.928C152.12 56.272 151.544 55.136 151.256 54.016C150.856 55.136 150.168 56.192 149.064 56.784L148.376 55.84C149.992 54.96 150.648 53.088 150.648 51.712V50.976H148.872V49.904H152.888V50.976H151.896V51.712C151.896 52.752 152.168 54.352 153.208 55.456C154.248 54.384 154.504 52.8 154.504 51.712V50.976H153.512V49.904H157.496V50.976H155.768V51.712C155.768 53.12 156.408 54.992 158.024 55.84ZM150.328 59.184V58.128H159.944V63.2H158.632V59.184H150.328ZM161.752 52.576V53.68H159.944V57.472H158.632V48.848H159.944V52.576H161.752ZM173.655 48.832H174.967V63.216H173.655V48.832ZM167.399 49.936C169.527 49.936 171.047 51.888 171.047 54.944C171.047 58 169.527 59.952 167.399 59.952C165.271 59.952 163.751 58 163.751 54.944C163.751 51.888 165.271 49.936 167.399 49.936ZM167.399 51.12C165.991 51.12 164.999 52.624 164.999 54.944C164.999 57.28 165.991 58.784 167.399 58.784C168.791 58.784 169.783 57.28 169.783 54.944C169.783 52.624 168.791 51.12 167.399 51.12ZM189.446 53.152V54.224H179.686V49.36H180.998V53.152H189.446ZM180.902 58.64V61.76H189.526V62.832H179.59V58.64H180.902ZM177.926 56.144H190.934V57.2H177.926V56.144ZM200.063 58.784C201.439 58.784 202.415 57.28 202.415 54.944C202.415 52.624 201.439 51.12 200.063 51.12C198.671 51.12 197.695 52.624 197.695 54.944C197.695 57.28 198.671 58.784 200.063 58.784ZM200.063 49.936C202.175 49.936 203.663 51.888 203.663 54.944C203.663 58 202.175 59.952 200.063 59.952C197.951 59.952 196.447 58 196.447 54.944C196.447 51.888 197.951 49.936 200.063 49.936ZM209.647 54.56V55.664H207.279V63.184H205.967V48.848H207.279V54.56H209.647ZM221.389 48.832H222.701V63.216H221.389V48.832ZM215.133 49.936C217.261 49.936 218.781 51.888 218.781 54.944C218.781 58 217.261 59.952 215.133 59.952C213.005 59.952 211.485 58 211.485 54.944C211.485 51.888 213.005 49.936 215.133 49.936ZM215.133 51.12C213.725 51.12 212.733 52.624 212.733 54.944C212.733 57.28 213.725 58.784 215.133 58.784C216.525 58.784 217.517 57.28 217.517 54.944C217.517 52.624 216.525 51.12 215.133 51.12ZM227.9 51.296V58.528C230.668 58.528 232.476 58.448 234.588 58.048L234.732 59.152C232.524 59.552 230.652 59.648 227.756 59.648H226.604V50.192H233.388V51.296H227.9ZM236.108 48.832H237.42V63.216H236.108V48.832ZM244.235 58.784C245.595 58.784 246.555 57.28 246.555 54.944C246.555 52.624 245.595 51.12 244.235 51.12C242.859 51.12 241.899 52.624 241.899 54.944C241.899 57.28 242.859 58.784 244.235 58.784ZM250.907 48.832H252.219V63.216H250.907V55.376H247.787C247.659 58.192 246.235 59.952 244.235 59.952C242.139 59.952 240.651 58 240.651 54.944C240.651 51.888 242.139 49.936 244.235 49.936C246.171 49.936 247.579 51.616 247.787 54.304H250.907V48.832ZM265.162 51.344V50.176H256.746V49.248H266.458V52.24H258.074V53.472H266.714V54.416H256.778V51.344H265.162ZM257.994 60.72V62.048H266.954V62.992H256.698V59.808H265.21V58.608H256.666V57.664H266.506V60.72H257.994ZM255.114 55.504H268.122V56.496H255.114V55.504ZM283.443 50.784V50.624H274.963V49.568H284.739V50.784C284.739 51.936 284.739 53.104 284.339 54.576L283.059 54.432C283.443 52.96 283.443 51.904 283.443 50.784ZM279.843 62.144C282.099 62.144 283.539 61.536 283.539 60.544C283.539 59.52 282.099 58.912 279.843 58.912C277.603 58.912 276.163 59.52 276.163 60.544C276.163 61.536 277.603 62.144 279.843 62.144ZM279.843 57.904C282.899 57.904 284.851 58.88 284.851 60.544C284.851 62.176 282.899 63.168 279.843 63.168C276.786 63.168 274.851 62.176 274.851 60.544C274.851 58.88 276.786 57.904 279.843 57.904ZM280.051 55.52H286.355V56.576H273.443V55.52H278.739V52.768H280.051V55.52ZM294.593 50.464C292.417 50.464 290.929 51.264 290.929 52.528C290.929 53.792 292.417 54.608 294.593 54.608C296.785 54.608 298.273 53.792 298.273 52.528C298.273 51.264 296.785 50.464 294.593 50.464ZM294.593 55.664C291.617 55.664 289.585 54.448 289.585 52.528C289.585 50.608 291.617 49.408 294.593 49.408C297.585 49.408 299.617 50.608 299.617 52.528C299.617 54.448 297.585 55.664 294.593 55.664ZM301.121 57.008V58.08H297.729V63.184H296.401V58.08H292.801V63.184H291.473V58.08H288.129V57.008H301.121ZM311.36 50.592V51.648H302.896V50.592H306.464V48.832H307.776V50.592H311.36ZM304.944 55.104C304.944 56.112 305.824 56.752 307.12 56.752C308.416 56.752 309.312 56.112 309.312 55.104C309.312 54.112 308.416 53.472 307.12 53.472C305.824 53.472 304.944 54.112 304.944 55.104ZM310.56 55.104C310.56 56.72 309.152 57.776 307.12 57.776C305.088 57.776 303.696 56.72 303.696 55.104C303.696 53.504 305.088 52.448 307.12 52.448C309.152 52.448 310.56 53.504 310.56 55.104ZM306.368 58.752V61.792H314.624V62.864H305.056V58.752H306.368ZM313.984 53.568H316.096V54.672H313.984V59.6H312.672V48.832H313.984V53.568ZM5.936 74.08V76.656C5.936 79.28 7.648 81.92 9.776 82.88L8.992 83.936C7.36 83.136 5.984 81.44 5.296 79.392C4.64 81.552 3.264 83.344 1.584 84.208L0.784 83.136C2.896 82.128 4.64 79.376 4.64 76.656V74.08H5.936ZM11.28 72.832H12.592V87.216H11.28V72.832ZM16.1748 73.952H22.8628C22.8628 77.664 20.2548 80.384 16.1268 81.68L15.5988 80.64C18.9748 79.584 21.1828 77.552 21.4548 75.024H16.1748V73.952ZM19.0708 82.256V85.792H27.3268V86.864H17.7588V82.256H19.0708ZM26.7028 77.2H28.8148V78.288H26.7028V83.328H25.3908V72.848H26.7028V77.2ZM31.6615 86.208C31.0855 86.208 30.6055 85.76 30.6055 85.104C30.6055 84.432 31.0855 83.968 31.6615 83.968C32.2375 83.968 32.7175 84.432 32.7175 85.104C32.7175 85.76 32.2375 86.208 31.6615 86.208ZM39.0848 74.368H45.6448C45.6448 78.448 43.7728 82.144 39.1328 84.464L38.4128 83.44C42.0768 81.6 44.0448 78.848 44.3488 75.456H39.0848V74.368ZM51.6608 78.656V79.744H49.3568V87.184H48.0448V72.832H49.3568V78.656H51.6608ZM65.2595 77.408L64.7795 78.432C62.5715 78.08 60.4435 76.944 59.5315 75.328C58.6355 76.96 56.5075 78.08 54.2835 78.432L53.7875 77.408C56.3635 77.056 58.8595 75.488 58.8595 73.632V72.992H60.2035V73.632C60.2035 75.456 62.7315 77.056 65.2595 77.408ZM55.9155 83.312V85.936H63.1475V83.312H55.9155ZM54.6355 86.992V82.272H64.4275V86.992H54.6355ZM53.0355 79.616H66.0115V80.672H53.0355V79.616ZM80.4844 77.968V79.04H76.5964V73.888H80.3724V74.96H77.8924V77.968H80.4844ZM76.0044 77.68L76.1324 78.736C74.8364 79.024 73.8124 79.04 72.8044 79.04H72.1484V73.888H75.8444V74.96H73.4444V77.984C74.2284 77.952 75.0444 77.888 76.0044 77.68ZM81.0604 80.368L81.1404 81.344C79.7164 81.568 78.2764 81.68 76.8684 81.76V86.72H75.5564V81.824C74.0844 81.872 72.6764 81.872 71.4124 81.872L71.2204 80.768C74.1484 80.768 77.7804 80.752 81.0604 80.368ZM81.9244 72.848H83.2364V87.184H81.9244V72.848ZM97.5551 77.152V78.224H87.7951V73.36H89.1071V77.152H97.5551ZM89.0111 82.64V85.76H97.6351V86.832H87.6991V82.64H89.0111ZM86.0351 80.144H99.0431V81.2H86.0351V80.144ZM105.788 83.712V82.656H115.724V87.2H114.412V83.712H105.788ZM107.292 74.464V77.248H114.364V74.464H107.292ZM111.5 80.112H117.324V81.168H104.332V80.112H110.188V78.288H106.012V73.424H115.66V78.288H111.5V80.112ZM123.979 80.96V84.368H127.099V80.96H123.979ZM123.755 75.216V79.904H127.323V75.216H123.755ZM128.411 84.368H132.075V85.44H119.051V84.368H122.667V80.96H120.251V79.904H122.443V75.216H120.219V74.16H130.859V75.216H128.635V79.904H130.843V80.96H128.411V84.368ZM143.834 75.344V74.176H135.418V73.248H145.13V76.24H136.746V77.472H145.386V78.416H135.45V75.344H143.834ZM136.666 84.72V86.048H145.626V86.992H135.37V83.808H143.882V82.608H135.338V81.664H145.178V84.72H136.666ZM133.786 79.504H146.794V80.496H133.786V79.504ZM160.594 74.448V75.504H152.13V74.448H155.698V72.704H157.01V74.448H160.594ZM154.178 78.752C154.178 79.696 155.042 80.304 156.354 80.304C157.666 80.304 158.546 79.696 158.546 78.752C158.546 77.824 157.666 77.216 156.354 77.216C155.042 77.216 154.178 77.824 154.178 78.752ZM159.794 78.752C159.794 80.304 158.402 81.296 156.354 81.296C154.306 81.296 152.93 80.304 152.93 78.752C152.93 77.216 154.306 76.224 156.354 76.224C158.402 76.224 159.794 77.216 159.794 78.752ZM158.722 86.16C160.818 86.16 162.098 85.616 162.098 84.688C162.098 83.76 160.818 83.216 158.722 83.216C156.626 83.216 155.346 83.76 155.346 84.688C155.346 85.616 156.626 86.16 158.722 86.16ZM158.722 82.208C161.602 82.208 163.394 83.104 163.394 84.688C163.394 86.256 161.602 87.168 158.722 87.168C155.826 87.168 154.05 86.256 154.05 84.688C154.05 83.104 155.826 82.208 158.722 82.208ZM165.298 76.384H163.218V78.368H165.298V79.456H163.218V82.064H161.906V72.832H163.218V75.312H165.298V76.384ZM175.313 74.592V75.648H166.849V74.592H170.417V72.832H171.729V74.592H175.313ZM168.897 79.104C168.897 80.112 169.777 80.752 171.073 80.752C172.369 80.752 173.265 80.112 173.265 79.104C173.265 78.112 172.369 77.472 171.073 77.472C169.777 77.472 168.897 78.112 168.897 79.104ZM174.513 79.104C174.513 80.72 173.105 81.776 171.073 81.776C169.041 81.776 167.649 80.72 167.649 79.104C167.649 77.504 169.041 76.448 171.073 76.448C173.105 76.448 174.513 77.504 174.513 79.104ZM170.321 82.752V85.792H178.577V86.864H169.009V82.752H170.321ZM177.937 77.568H180.049V78.672H177.937V83.6H176.625V72.832H177.937V77.568ZM186.65 77.088C186.65 78.432 187.674 79.376 189.114 79.376C190.538 79.376 191.578 78.432 191.578 77.088C191.578 75.728 190.538 74.8 189.114 74.8C187.674 74.8 186.65 75.728 186.65 77.088ZM192.858 77.088C192.858 79.088 191.274 80.48 189.114 80.48C186.938 80.48 185.37 79.088 185.37 77.088C185.37 75.072 186.938 73.696 189.114 73.696C191.274 73.696 192.858 75.072 192.858 77.088ZM186.906 83.104V82.032H196.234V87.184H194.922V83.104H186.906ZM198.314 76.112H196.234V78.096H198.314V79.168H196.234V81.36H194.922V72.848H196.234V75.024H198.314V76.112ZM212.009 77.552L211.513 78.608C209.321 78.24 207.209 77.104 206.297 75.456C205.401 77.104 203.289 78.24 201.097 78.608L200.601 77.552C203.145 77.2 205.625 75.6 205.625 73.696V73.056H206.969V73.696C206.969 75.6 209.449 77.2 212.009 77.552ZM201.257 83.568V82.496H211.193V87.2H209.881V83.568H201.257ZM206.953 80.032H212.841V81.104H199.817V80.032H205.641V77.84H206.953V80.032ZM222.024 80.88L220.712 80.752C221.112 78.368 221.144 76.624 221.144 75.472H215.176V74.4H222.424V75.184C222.424 76.336 222.424 78.208 222.024 80.88ZM218.728 78.496V82.88C220.296 82.816 221.896 82.72 223.352 82.544L223.432 83.504C220.456 83.984 217.08 84.048 214.536 84.048L214.392 82.96C215.304 82.96 216.36 82.944 217.432 82.912V78.496H218.728ZM227.832 78.832V79.936H225.544V87.184H224.232V72.832H225.544V78.832H227.832ZM234.704 74.224V82.448C236.768 82.448 238.896 82.272 241.216 81.808L241.376 82.896C238.928 83.392 236.736 83.552 234.544 83.552H233.408V74.224H234.704ZM246.176 78.56V79.648H243.872V87.184H242.56V72.832H243.872V78.56H246.176ZM259.055 76.752V77.808H249.311V73.088H250.623V76.752H259.055ZM257.631 85.92V83.184H250.495V85.92H257.631ZM260.543 80.384H254.671V82.144H258.911V86.976H249.215V82.144H253.375V80.384H247.551V79.312H260.543V80.384ZM266.926 73.888C269.166 73.888 270.766 75.248 270.766 77.264C270.766 79.264 269.166 80.64 266.926 80.64C264.702 80.64 263.086 79.264 263.086 77.264C263.086 75.248 264.702 73.888 266.926 73.888ZM266.926 75.008C265.454 75.008 264.366 75.92 264.366 77.264C264.366 78.592 265.454 79.52 266.926 79.52C268.414 79.52 269.486 78.592 269.486 77.264C269.486 75.92 268.414 75.008 266.926 75.008ZM272.654 72.832H273.966V87.216H272.654V72.832ZM262.526 84.064L262.366 82.96C264.974 82.96 268.574 82.944 271.71 82.464L271.822 83.44C268.59 84.032 265.118 84.064 262.526 84.064ZM281.335 74.368H287.895C287.895 78.448 286.023 82.144 281.383 84.464L280.663 83.44C284.327 81.6 286.295 78.848 286.599 75.456H281.335V74.368ZM293.911 78.656V79.744H291.607V87.184H290.295V72.832H291.607V78.656H293.911ZM300.566 76.368V77.472C300.566 79.872 302.198 82.208 304.326 83.136L303.606 84.16C301.958 83.408 300.598 81.856 299.942 79.968C299.302 81.968 297.942 83.6 296.294 84.4L295.558 83.408C297.686 82.4 299.27 79.984 299.27 77.472V76.368H295.942V75.312H299.254V73.088H300.582V75.312H303.845V76.368H300.566ZM305.718 72.816H307.046V87.168H305.718V72.816ZM320.052 75.344V74.176H311.636V73.248H321.348V76.24H312.964V77.472H321.604V78.416H311.668V75.344H320.052ZM312.884 84.72V86.048H321.844V86.992H311.588V83.808H320.1V82.608H311.556V81.664H321.396V84.72H312.884ZM310.004 79.504H323.012V80.496H310.004V79.504ZM2.704 99.328V106.48H6.72V99.328H2.704ZM1.424 107.536V98.272H8V107.536H1.424ZM14.256 102.56V103.664H11.888V111.184H10.576V96.848H11.888V102.56H14.256ZM22.0468 97.152C25.1508 97.152 27.0868 98.16 27.0868 99.872C27.0868 101.568 25.1508 102.576 22.0468 102.576C18.9427 102.576 17.0068 101.568 17.0068 99.872C17.0068 98.16 18.9427 97.152 22.0468 97.152ZM22.0468 98.192C19.7748 98.192 18.3508 98.816 18.3508 99.872C18.3508 100.928 19.7748 101.552 22.0468 101.552C24.3188 101.552 25.7428 100.928 25.7428 99.872C25.7428 98.816 24.3188 98.192 22.0468 98.192ZM17.1668 106.272H26.9588V110.992H17.1668V106.272ZM25.6788 107.312H18.4468V109.936H25.6788V107.312ZM15.5668 103.808H28.5428V104.864H15.5668V103.808ZM33.5335 106.816C34.6535 106.816 35.3895 105.36 35.3895 103.008C35.3895 100.704 34.6535 99.248 33.5335 99.248C32.3815 99.248 31.6615 100.704 31.6615 103.008C31.6615 105.36 32.3815 106.816 33.5335 106.816ZM38.3815 102.416V97.152H39.6295V110.48H38.3815V103.488H36.5735C36.4615 106.304 35.2935 108.032 33.5335 108.032C31.6615 108.032 30.4615 106.112 30.4615 103.008C30.4615 99.952 31.6615 98.032 33.5335 98.032C35.2615 98.032 36.4135 99.712 36.5735 102.416H38.3815ZM41.2295 96.832H42.4775V111.184H41.2295V96.832ZM52.8704 98.176V100.864C52.8704 103.2 53.9744 105.632 55.8784 106.688L55.0944 107.728C53.7344 106.928 52.7424 105.456 52.2304 103.744C51.7184 105.616 50.6624 107.232 49.2544 108.096L48.4224 107.104C50.4064 105.952 51.6064 103.392 51.6064 100.912V98.176H52.8704ZM59.5264 96.832H60.7744V111.184H59.5264V103.68H57.6224V110.464H56.3744V97.152H57.6224V102.608H59.5264V96.832ZM64.1491 98.384H70.8691C70.8691 102.528 68.9651 106.176 64.1971 108.512L63.4931 107.44C67.3491 105.6 69.2691 102.848 69.5411 99.44H64.1491V98.384ZM73.7651 96.832H75.0771V111.184H73.7651V96.832ZM85.1239 104.224H88.5319V101.344H85.1239V104.224ZM83.8279 106.512V99.28H79.8759V106.512H83.8279ZM88.5319 96.832H89.8439V111.216H88.5319V105.296H85.1239V107.552H78.5959V98.24H85.1239V100.272H88.5319V96.832ZM108.093 96.848V107.344H106.781V96.848H108.093ZM105.085 104.256L104.445 105.296C102.797 104.72 101.485 103.536 100.829 102.032C100.221 103.664 98.8928 104.96 97.1968 105.568L96.5088 104.544C98.6848 103.792 100.141 101.92 100.141 99.872V99.088H96.8608V98.032H104.733V99.088H101.485V99.872C101.485 101.808 102.973 103.552 105.085 104.256ZM100.173 109.792H108.525V110.864H98.8608V106.352H100.173V109.792ZM118.3 99.36V101.104C118.3 103.232 118.78 105.92 120.524 107.232L119.692 108.176C118.635 107.36 118.028 106.032 117.676 104.56C117.356 106.048 116.764 107.456 115.676 108.304C114.588 107.44 113.996 106.032 113.676 104.544C113.308 106 112.7 107.344 111.676 108.176L110.844 107.232C112.572 105.888 113.052 103.136 113.052 101.104V99.36H111.292V98.288H115.356V99.36H114.299V101.104C114.299 102.688 114.508 104.992 115.676 106.544C116.828 105.024 117.052 102.752 117.052 101.104V99.36H115.98V98.288H119.948V99.36H118.3ZM124.396 102.528V103.632H122.412V111.184H121.1V96.848H122.412V102.528H124.396ZM141.108 96.848V107.44H139.796V96.848H141.108ZM138.164 104.416L137.54 105.44C135.876 104.912 134.564 103.776 133.908 102.304C133.284 103.888 131.972 105.136 130.276 105.712L129.636 104.688C131.78 103.984 133.236 102.176 133.236 100.176V99.808H129.972V98.752H133.236V96.896H134.548V98.752H137.78V99.808H134.532V100.176C134.532 102.064 136.036 103.76 138.164 104.416ZM133.188 109.792H141.54V110.864H131.876V106.464H133.188V109.792ZM157.043 103.936V105.008H151.187V111.2H149.859V105.008H144.067V103.936H153.587C154.035 101.872 154.035 100.352 154.035 99.008V98.816H145.683V97.76H155.315V99.008C155.315 100.352 155.315 101.872 154.915 103.936H157.043ZM165.922 108.336H171.794V109.408H158.754V108.336H164.594V105.632H160.386V101.2H168.898V98.96H160.354V97.888H170.178V102.256H161.682V104.576H170.514V105.632H165.922V108.336ZM177.691 98.384H184.235C184.235 102.464 182.539 106.096 177.771 108.448L177.051 107.424C180.907 105.536 182.683 102.8 182.923 99.44H177.691V98.384ZM187.563 96.848H188.875V111.184H187.563V103.664H184.203V102.592H187.563V96.848ZM203.29 100.816V101.872H193.418V97.296H203.162V98.352H194.73V100.816H203.29ZM201.802 109.904V108.112H194.762V109.904H201.802ZM201.802 107.072V105.504H203.114V110.96H193.466V105.504H194.762V107.072H201.802ZM191.786 103.312H204.778V104.384H191.786V103.312ZM214.872 102.24L215.048 103.312C212.616 103.792 210.472 103.952 208.328 103.952H207.208V97.728H208.504V102.848C210.536 102.832 212.584 102.688 214.872 102.24ZM216.52 105.456V106.48C216.52 107.984 217.576 109.488 219.4 110.096L218.744 111.072C217.352 110.56 216.36 109.552 215.88 108.336C215.448 109.504 214.584 110.624 213.24 111.184C211.864 110.656 211.016 109.584 210.584 108.4C210.072 109.552 209.096 110.544 207.752 111.072L207.096 110.096C208.888 109.44 209.976 107.872 209.976 106.48V105.456H211.24V106.48C211.24 107.76 211.88 109.136 213.224 109.936C214.568 109.056 215.24 107.6 215.24 106.48V105.456H216.52ZM217.64 100.224H219.768V101.328H217.64V104.864H216.328V96.848H217.64V100.224ZM227.687 100.816H231.719V96.848H233.047V107.312H231.719V101.872H227.687V100.816ZM229.415 103.664L229.559 104.736C227.511 105.104 225.815 105.2 223.127 105.2H222.039V98.016H228.615V99.088H223.351V104.128C225.863 104.128 227.511 104.032 229.415 103.664ZM225.159 109.888H233.415V110.96H223.847V106.544H225.159V109.888ZM241.328 99.648V106.56C243.248 106.544 244.608 106.464 246.176 106.128L246.288 107.216C244.576 107.584 243.12 107.648 240.976 107.648H240.032V98.576H245.376V99.648H241.328ZM250.448 96.832H251.712V111.184H250.448V103.664H248.416V110.464H247.184V97.152H248.416V102.592H250.448V96.832ZM262.751 98.352V99.408H254.287V98.352H257.855V96.752H259.167V98.352H262.751ZM256.335 102.736C256.335 103.696 257.199 104.32 258.511 104.32C259.823 104.32 260.703 103.696 260.703 102.736C260.703 101.792 259.823 101.168 258.511 101.168C257.199 101.168 256.335 101.792 256.335 102.736ZM261.951 102.736C261.951 104.32 260.559 105.328 258.511 105.328C256.479 105.328 255.087 104.32 255.087 102.736C255.087 101.168 256.479 100.144 258.511 100.144C260.559 100.144 261.951 101.168 261.951 102.736ZM256.063 107.664V106.592H265.375V111.2H264.063V107.664H256.063ZM267.503 100.8V101.888H265.375V105.808H264.063V96.848H265.375V100.8H267.503ZM278.061 98.768V99.824H269.341V98.768H273.053V96.976H274.365V98.768H278.061ZM275.901 103.312C275.901 102.304 275.005 101.648 273.709 101.648C272.429 101.648 271.533 102.304 271.533 103.312C271.533 104.32 272.429 104.992 273.709 104.992C275.005 104.992 275.901 104.32 275.901 103.312ZM270.285 103.312C270.285 101.696 271.693 100.624 273.709 100.624C275.725 100.624 277.133 101.696 277.133 103.312C277.133 104.944 275.725 106 273.709 106C271.693 106 270.285 104.944 270.285 103.312ZM269.229 108.368L269.037 107.264C271.757 107.264 275.325 107.248 278.429 106.832L278.525 107.808C275.325 108.352 271.869 108.368 269.229 108.368ZM279.341 96.848H280.653V111.184H279.341V96.848ZM289.58 103.04V98.976H285.548V103.04H289.58ZM290.86 97.92V104.096H284.268V97.92H290.86ZM290.236 110.144C292.364 110.144 293.66 109.52 293.66 108.496C293.66 107.456 292.364 106.848 290.236 106.848C288.108 106.848 286.828 107.456 286.828 108.496C286.828 109.52 288.108 110.144 290.236 110.144ZM290.236 105.808C293.148 105.808 294.972 106.784 294.972 108.496C294.972 110.192 293.148 111.184 290.236 111.184C287.34 111.184 285.516 110.192 285.516 108.496C285.516 106.784 287.34 105.808 290.236 105.808ZM294.812 100.416H296.94V101.504H294.812V105.312H293.5V96.848H294.812V100.416ZM306.715 103.776L306.091 104.8C304.459 104.272 303.227 103.136 302.619 101.712C302.011 103.344 300.715 104.624 299.003 105.232L298.331 104.192C300.491 103.44 301.931 101.584 301.931 99.52V98.96H298.715V97.904H306.411V98.96H303.243V99.52C303.243 101.392 304.603 103.072 306.715 103.776ZM304.971 110.128C307.083 110.128 308.379 109.536 308.379 108.512C308.379 107.504 307.083 106.912 304.971 106.912C302.827 106.912 301.547 107.504 301.547 108.512C301.547 109.536 302.827 110.128 304.971 110.128ZM304.971 105.872C307.883 105.872 309.691 106.848 309.691 108.512C309.691 110.192 307.883 111.168 304.971 111.168C302.027 111.168 300.235 110.192 300.235 108.512C300.235 106.848 302.027 105.872 304.971 105.872ZM309.531 100.464H311.659V101.568H309.531V105.504H308.219V96.848H309.531V100.464ZM9.36 122.352V123.408H0.896V122.352H4.464V120.752H5.776V122.352H9.36ZM2.944 126.736C2.944 127.696 3.808 128.32 5.12 128.32C6.432 128.32 7.312 127.696 7.312 126.736C7.312 125.792 6.432 125.168 5.12 125.168C3.808 125.168 2.944 125.792 2.944 126.736ZM8.56 126.736C8.56 128.32 7.168 129.328 5.12 129.328C3.088 129.328 1.696 128.32 1.696 126.736C1.696 125.168 3.088 124.144 5.12 124.144C7.168 124.144 8.56 125.168 8.56 126.736ZM2.672 131.664V130.592H11.984V135.2H10.672V131.664H2.672ZM14.112 124.8V125.888H11.984V129.808H10.672V120.848H11.984V124.8H14.112ZM21.2889 127.28V130.64C23.6409 130.64 25.7529 130.528 28.2649 130.128L28.3929 131.2C25.8009 131.632 23.6249 131.728 21.1609 131.728H19.9769V126.224H25.2569V123.232H19.9289V122.16H26.5849V127.28H21.2889ZM29.6089 120.816H30.9209V135.2H29.6089V120.816ZM35.8956 123.28V130.56C38.4396 130.56 40.1196 130.464 42.0556 130.096L42.2156 131.184C40.1356 131.568 38.4076 131.664 35.6876 131.664H34.5836V122.192H41.1116V123.28H35.8956ZM44.3756 120.832H45.6876V135.216H44.3756V127.12H40.2636V126.032H44.3756V120.832ZM57.2704 127.104L56.6304 128.128C54.9824 127.568 53.6544 126.384 52.9984 124.848C52.3744 126.496 51.0464 127.792 49.3344 128.416L48.6624 127.376C50.8384 126.608 52.3264 124.72 52.3264 122.656V121.312H53.6384V122.656C53.6384 124.624 55.1424 126.416 57.2704 127.104ZM59.0624 133.936V132.032H52.4064V133.936H59.0624ZM59.0624 131.008V129.248H60.3584V134.992H51.1104V129.248H52.4064V131.008H59.0624ZM59.0464 120.848H60.3584V128.544H59.0464V120.848ZM64.1011 121.792H69.6851C69.6851 125.264 68.0211 127.968 64.1011 129.584L63.4611 128.608C65.4931 127.808 66.8371 126.704 67.6051 125.376L63.6371 125.792L63.4291 124.704L68.0531 124.416C68.2131 123.92 68.3251 123.408 68.3731 122.864H64.1011V121.792ZM67.2691 131.024V133.936H74.1171V131.024H67.2691ZM65.9891 134.992V129.968H75.4131V134.992H65.9891ZM74.1491 120.832H75.4131V129.28H74.1491V125.552H72.2611V129.184H71.0131V121.104H72.2611V124.48H74.1491V120.832ZM86.2759 128.32V123.328H82.7079V128.32H86.2759ZM81.3959 128.32V123.328H79.1719V122.272H89.8119V123.328H87.5879V128.32H89.7799V129.392H79.2039V128.32H81.3959ZM78.0199 132.256H91.0279V133.344H78.0199V132.256ZM104.381 124.656H106.797V120.848H108.125V131.776H106.797V128.736H104.381V127.664H106.797V125.728H104.381V124.656ZM104.381 122.592V123.648H96.3488V122.592H99.7728V120.816H101.085V122.592H104.381ZM98.4128 127.168C98.4128 128.192 99.2288 128.896 100.413 128.896C101.597 128.896 102.413 128.192 102.413 127.168C102.413 126.16 101.597 125.472 100.413 125.472C99.2288 125.472 98.4128 126.16 98.4128 127.168ZM103.661 127.168C103.661 128.816 102.317 129.92 100.413 129.92C98.5088 129.92 97.1648 128.816 97.1648 127.168C97.1648 125.536 98.5088 124.448 100.413 124.448C102.317 124.448 103.661 125.536 103.661 127.168ZM100.221 133.792H108.461V134.864H98.9088V130.848H100.221V133.792ZM119.356 127.776L118.732 128.8C117.1 128.272 115.868 127.136 115.26 125.712C114.652 127.344 113.356 128.624 111.644 129.232L110.972 128.192C113.132 127.44 114.572 125.584 114.572 123.52V122.96H111.356V121.904H119.052V122.96H115.884V123.52C115.884 125.392 117.244 127.072 119.356 127.776ZM117.612 134.128C119.724 134.128 121.02 133.536 121.02 132.512C121.02 131.504 119.724 130.912 117.612 130.912C115.468 130.912 114.188 131.504 114.188 132.512C114.188 133.536 115.468 134.128 117.612 134.128ZM117.612 129.872C120.524 129.872 122.332 130.848 122.332 132.512C122.332 134.192 120.524 135.168 117.612 135.168C114.668 135.168 112.876 134.192 112.876 132.512C112.876 130.848 114.668 129.872 117.612 129.872ZM122.172 124.464H124.3V125.568H122.172V129.504H120.86V120.848H122.172V124.464ZM132.234 121.728C135.21 121.728 137.45 123.312 137.45 125.696C137.45 128.096 135.21 129.664 132.234 129.664C129.258 129.664 127.018 128.096 127.018 125.696C127.018 123.312 129.258 121.728 132.234 121.728ZM132.234 122.8C129.978 122.8 128.266 123.968 128.266 125.696C128.266 127.44 129.978 128.592 132.234 128.592C134.506 128.592 136.202 127.44 136.202 125.696C136.202 123.968 134.506 122.8 132.234 122.8ZM125.738 132.192H138.778V133.28H125.738V132.192ZM147.625 132.336H153.497V133.408H140.457V132.336H146.297V129.632H142.089V125.2H150.601V122.96H142.057V121.888H151.881V126.256H143.385V128.576H152.217V129.632H147.625V132.336ZM160.498 123.344V130.4C161.186 130.368 161.97 130.304 162.818 130.112L162.962 131.2C161.746 131.472 160.754 131.488 159.826 131.488H159.202V122.288H162.738V123.344H160.498ZM164.818 123.344V130.4C165.97 130.384 166.93 130.32 167.986 130.064L168.114 131.152C166.818 131.456 165.746 131.488 164.242 131.488H163.522V122.288H167.41V123.344H164.818ZM169.426 120.848H170.738V135.168H169.426V127.152H166.69V126.08H169.426V120.848ZM175.361 122.224V130.448C177.425 130.448 179.553 130.272 181.873 129.808L182.033 130.896C179.585 131.392 177.393 131.552 175.201 131.552H174.065V122.224H175.361ZM186.833 126.56V127.648H184.529V135.184H183.217V120.832H184.529V126.56H186.833ZM191.039 125.488V128.128H198.367V125.488H191.039ZM195.359 132.272H201.215V133.344H188.207V132.272H194.031V129.184H189.743V121.856H191.039V124.416H198.367V121.856H199.647V129.184H195.359V132.272ZM207.758 123.392V125.216C207.758 127.504 209.39 130.048 211.47 131.024L210.718 132.08C209.118 131.28 207.774 129.6 207.118 127.68C206.462 129.776 205.07 131.6 203.454 132.432L202.686 131.392C204.734 130.368 206.462 127.648 206.462 125.216V123.392H203.182V122.304H210.942V123.392H207.758ZM216.334 126.624V127.728H213.966V135.184H212.654V120.848H213.966V126.624H216.334ZM219.021 134.208C218.445 134.208 217.965 133.76 217.965 133.104C217.965 132.432 218.445 131.968 219.021 131.968C219.597 131.968 220.077 132.432 220.077 133.104C220.077 133.76 219.597 134.208 219.021 134.208Z" fill="#1D1D1D"/>
</svg>
