<svg width="13" height="7" viewBox="0 0 13 7" fill="none" xmlns="http://www.w3.org/2000/svg">
<path d="M6.83902 1.98335L2.0663 6.75607C1.90396 6.91841 1.71456 6.99688 1.49811 6.99146C1.28166 6.98605 1.09227 6.90218 0.929933 6.73984C0.767595 6.5775 0.686426 6.38811 0.686426 6.17166C0.686426 5.95521 0.767595 5.76581 0.929933 5.60348L5.9137 0.603477C6.04357 0.473607 6.18967 0.376205 6.35201 0.311269C6.51435 0.246334 6.67669 0.213867 6.83902 0.213867C7.00136 0.213867 7.1637 0.246334 7.32604 0.31127C7.48837 0.376205 7.63448 0.473607 7.76435 0.603477L12.7643 5.60348C12.9267 5.76582 13.0051 5.95791 12.9997 6.17978C12.9943 6.40164 12.9105 6.59374 12.7481 6.75607C12.5858 6.91841 12.3964 6.99958 12.1799 6.99958C11.9635 6.99958 11.7741 6.91841 11.6118 6.75607L6.83902 1.98335Z" fill="white"/>
</svg>
