<svg width="24" height="24" viewBox="0 0 24 24" fill="none" xmlns="http://www.w3.org/2000/svg">
<path d="M11.6667 11.6667C10.0625 11.6667 8.68924 11.0955 7.54688 9.95313C6.40451 8.81076 5.83333 7.4375 5.83333 5.83333C5.83333 4.22917 6.40451 2.8559 7.54688 1.71354C8.68924 0.571181 10.0625 0 11.6667 0C13.2708 0 14.6441 0.571181 15.7865 1.71354C16.9288 2.8559 17.5 4.22917 17.5 5.83333C17.5 7.4375 16.9288 8.81076 15.7865 9.95313C14.6441 11.0955 13.2708 11.6667 11.6667 11.6667ZM0 20.4167V19.25C0 18.4236 0.212674 17.6641 0.638021 16.9714C1.06337 16.2786 1.62847 15.75 2.33333 15.3854C3.84028 14.6319 5.37153 14.0668 6.92708 13.6901C8.48264 13.3134 10.0625 13.125 11.6667 13.125C13.2708 13.125 14.8507 13.3134 16.4062 13.6901C17.9618 14.0668 19.4931 14.6319 21 15.3854C21.7049 15.75 22.27 16.2786 22.6953 16.9714C23.1207 17.6641 23.3333 18.4236 23.3333 19.25V20.4167C23.3333 21.2188 23.0477 21.9054 22.4766 22.4766C21.9054 23.0477 21.2188 23.3333 20.4167 23.3333H2.91667C2.11458 23.3333 1.42795 23.0477 0.856771 22.4766C0.28559 21.9054 0 21.2188 0 20.4167ZM2.91667 20.4167H20.4167V19.25C20.4167 18.9826 20.3498 18.7396 20.2161 18.5208C20.0825 18.3021 19.9062 18.1319 19.6875 18.0104C18.375 17.3542 17.0503 16.862 15.7135 16.5339C14.3767 16.2057 13.0278 16.0417 11.6667 16.0417C10.3056 16.0417 8.9566 16.2057 7.61979 16.5339C6.28299 16.862 4.95833 17.3542 3.64583 18.0104C3.42708 18.1319 3.25087 18.3021 3.11719 18.5208C2.98351 18.7396 2.91667 18.9826 2.91667 19.25V20.4167ZM11.6667 8.75C12.4688 8.75 13.1554 8.46441 13.7266 7.89323C14.2977 7.32205 14.5833 6.63542 14.5833 5.83333C14.5833 5.03125 14.2977 4.34462 13.7266 3.77344C13.1554 3.20226 12.4688 2.91667 11.6667 2.91667C10.8646 2.91667 10.178 3.20226 9.60677 3.77344C9.03559 4.34462 8.75 5.03125 8.75 5.83333C8.75 6.63542 9.03559 7.32205 9.60677 7.89323C10.178 8.46441 10.8646 8.75 11.6667 8.75Z" fill="#1D1D1D"/>
</svg>
