<svg width="12" height="20" viewBox="0 0 12 20" fill="none" xmlns="http://www.w3.org/2000/svg">
<path d="M3.5502 9.99962L10.9002 17.3496C11.1502 17.5996 11.271 17.8913 11.2627 18.2246C11.2544 18.558 11.1252 18.8496 10.8752 19.0996C10.6252 19.3496 10.3335 19.4746 10.0002 19.4746C9.66686 19.4746 9.3752 19.3496 9.1252 19.0996L1.4252 11.4246C1.2252 11.2246 1.0752 10.9996 0.975195 10.7496C0.875195 10.4996 0.825195 10.2496 0.825195 9.99962C0.825195 9.74962 0.875195 9.49962 0.975195 9.24962C1.0752 8.99962 1.2252 8.77462 1.4252 8.57462L9.1252 0.874622C9.3752 0.624622 9.67103 0.503789 10.0127 0.512122C10.3544 0.520455 10.6502 0.649622 10.9002 0.899622C11.1502 1.14962 11.2752 1.44129 11.2752 1.77462C11.2752 2.10796 11.1502 2.39962 10.9002 2.64962L3.5502 9.99962Z" fill="white"/>
</svg>
