<svg width="132" height="39" viewBox="0 0 132 39" fill="none" xmlns="http://www.w3.org/2000/svg">
<path d="M108 8.89554C108 9.18876 108.047 9.49264 108.175 9.78053C108.742 11.06 110.185 11.8491 112.019 11.1827C112.457 11.0227 124.59 6.56044 124.59 6.56044C124.59 6.56044 119.812 17.6175 119.631 18.028C118.936 19.6114 119.771 21.0455 121.19 21.5253C121.506 21.6319 121.833 21.6853 122.154 21.6799C123.317 21.6746 124.339 21.0508 124.841 19.8033C124.917 19.6167 130.893 4.64118 131.022 4.28399C131.098 4.07074 131.238 3.5696 131.238 3.22306C131.238 2.48202 130.94 1.78362 130.362 1.25582C129.795 0.73336 129.036 0.466797 128.236 0.466797C127.844 0.466797 127.529 0.530772 127.05 0.669385C126.763 0.754685 111.359 5.98466 110.045 6.43249C108.73 6.88032 108 7.83994 108.006 8.89554" fill="#ED1C24"/>
<path d="M15.2754 20.3794H2.77148V18.188H15.2754V20.3794ZM18.4658 27.4048H0.59082V25.2026H18.4658V27.4048ZM16.3496 19.7563C16.3496 20.8879 16.3138 21.8976 16.2422 22.7856C16.1777 23.6737 16.013 24.6834 15.748 25.8149L12.998 25.7397C13.1842 24.9878 13.3203 24.2752 13.4062 23.6021C13.4993 22.9217 13.5566 22.3201 13.5781 21.7974C13.5996 21.2746 13.6139 20.6479 13.6211 19.9175V19.7563V18.188H16.3496V19.7563ZM16.2852 36.6323H2.68555V29.4888H16.2852V36.6323ZM5.39258 34.4302H13.5566V31.6157H5.39258V34.4302ZM36.6309 21.9585H20.3564V19.7671H36.6309V21.9585ZM37.4795 34.8599H19.6045V32.647H37.4795V34.8599ZM29.8418 33.5063H27.124V30.0151H29.8418V33.5063ZM28.4883 22.8071C29.8346 22.8071 31.0091 22.9575 32.0117 23.2583C33.0215 23.5591 33.7949 23.9995 34.332 24.5796C34.8763 25.1525 35.1484 25.8293 35.1484 26.6099C35.1484 27.4048 34.8763 28.0923 34.332 28.6724C33.7949 29.2453 33.0251 29.6893 32.0225 30.0044C31.0199 30.3123 29.8418 30.4699 28.4883 30.4771C27.1133 30.4699 25.9245 30.3123 24.9219 30.0044C23.9193 29.6893 23.1458 29.2453 22.6016 28.6724C22.0645 28.0923 21.7995 27.4048 21.8066 26.6099C21.7995 25.8221 22.0645 25.1418 22.6016 24.5688C23.1458 23.9959 23.9193 23.5591 24.9219 23.2583C25.9316 22.9575 27.1204 22.8071 28.4883 22.8071ZM28.4883 24.9448C27.6289 24.952 26.9128 25.0164 26.3398 25.1382C25.7741 25.2528 25.3444 25.4354 25.0508 25.686C24.7572 25.9295 24.6139 26.2375 24.6211 26.6099C24.6139 26.9823 24.7572 27.2938 25.0508 27.5444C25.3444 27.7879 25.7741 27.9741 26.3398 28.103C26.9128 28.2248 27.6289 28.2856 28.4883 28.2856C29.3262 28.2856 30.028 28.2248 30.5938 28.103C31.1667 27.9741 31.5999 27.7879 31.8936 27.5444C32.1872 27.2938 32.334 26.9823 32.334 26.6099C32.334 26.2375 32.1872 25.9295 31.8936 25.686C31.5999 25.4354 31.1667 25.2528 30.5938 25.1382C30.028 25.0164 29.3262 24.952 28.4883 24.9448ZM29.8418 21.1313H27.124V17.4897H29.8418V21.1313ZM56.4717 29.145H38.5967V26.9536H56.4717V29.145ZM49.124 32.5181H46.417V28.3286H49.124V32.5181ZM54.1943 25.353H40.8203V18.1558H54.1943V25.353ZM43.5059 23.2153H51.498V20.272H43.5059V23.2153ZM54.5059 36.5142H40.6807V34.3013H54.5059V36.5142ZM43.4307 35.0317H40.6807V30.8101H43.4307V35.0317ZM64.9688 32.0347H62.208V28.8442H64.9688V32.0347ZM73.2617 36.8472H70.4902V17.2749H73.2617V36.8472ZM75.8076 27.5122H72.3164V25.2563H75.8076V27.5122ZM57.3955 31.3257C59.8877 31.3257 62.0934 31.297 64.0127 31.2397C65.932 31.1753 67.7689 31.0177 69.5234 30.7671L69.7061 32.7651C68.4242 33.0086 67.0885 33.1877 65.6992 33.3022C64.3171 33.4168 63.0208 33.492 61.8105 33.5278C60.6074 33.5565 59.2575 33.5708 57.7607 33.5708L57.3955 31.3257ZM69.3623 21.6147H57.7607V19.4663H69.3623V21.6147ZM63.6152 22.3989C64.5391 22.3989 65.3626 22.5529 66.0859 22.8608C66.8164 23.1616 67.3857 23.5913 67.7939 24.1499C68.2093 24.7085 68.417 25.3494 68.417 26.0728C68.417 26.7889 68.2093 27.4263 67.7939 27.9849C67.3857 28.5363 66.8164 28.966 66.0859 29.2739C65.3626 29.5819 64.5391 29.7358 63.6152 29.7358C62.6771 29.7358 61.8428 29.5819 61.1123 29.2739C60.3818 28.966 59.8125 28.5363 59.4043 27.9849C58.9961 27.4263 58.7956 26.7889 58.8027 26.0728C58.7956 25.3494 58.9961 24.7085 59.4043 24.1499C59.8125 23.5913 60.3818 23.1616 61.1123 22.8608C61.8428 22.5529 62.6771 22.3989 63.6152 22.3989ZM63.6152 24.4722C63.1641 24.4722 62.7738 24.5366 62.4443 24.6655C62.1149 24.7873 61.8571 24.9699 61.6709 25.2134C61.4847 25.4497 61.3952 25.7362 61.4023 26.0728C61.3952 26.4093 61.4847 26.6958 61.6709 26.9321C61.8571 27.1613 62.1149 27.3403 62.4443 27.4692C62.7738 27.591 63.1641 27.6519 63.6152 27.6519C64.0449 27.6519 64.4245 27.591 64.7539 27.4692C65.0833 27.3403 65.3376 27.1613 65.5166 26.9321C65.7028 26.6958 65.7959 26.4093 65.7959 26.0728C65.7959 25.7433 65.7028 25.4569 65.5166 25.2134C65.3376 24.9699 65.0833 24.7873 64.7539 24.6655C64.4245 24.5366 64.0449 24.4722 63.6152 24.4722ZM64.9688 21.0454H62.208V17.3931H64.9688V21.0454ZM93.7041 36.8472H91.0723V17.2749H93.7041V36.8472ZM91.9639 27.061H88.666V24.8374H91.9639V27.061ZM89.4072 35.9448H86.8184V17.5757H89.4072V35.9448ZM82.2637 22.1196C82.2708 23.8241 82.1312 25.3781 81.8447 26.7817C81.5654 28.1854 81.1035 29.4351 80.459 30.5308C79.8145 31.6265 78.9694 32.4858 77.9238 33.1089L76.2373 31.0034C77.1826 30.4591 77.9489 29.7394 78.5361 28.8442C79.1305 27.9419 79.5531 26.9285 79.8037 25.8042C80.0615 24.6799 80.1904 23.4517 80.1904 22.1196V20.3042H82.2637V22.1196ZM82.8545 22.1196C82.8617 23.3442 82.9941 24.4757 83.252 25.5142C83.5169 26.5526 83.943 27.4907 84.5303 28.3286C85.1247 29.1593 85.8945 29.8218 86.8398 30.3159L85.2607 32.3999C84.1865 31.8341 83.3128 31.0392 82.6396 30.0151C81.9736 28.9839 81.4938 27.8094 81.2002 26.4917C80.9066 25.1668 80.7598 23.7095 80.7598 22.1196V20.3042H82.8545V22.1196ZM85.8516 21.5073H76.9033V19.3159H85.8516V21.5073ZM111.16 31.4438H108.421V17.3071H111.16V31.4438ZM113.824 24.8911H110.344V22.6353H113.824V24.8911ZM98.0439 25.9976C100.264 26.0047 101.99 25.9689 103.222 25.8901C104.461 25.8042 105.657 25.6395 106.81 25.396L107.11 27.5981C105.914 27.8416 104.668 28.0063 103.372 28.0923C102.076 28.1711 100.3 28.2104 98.0439 28.2104H96.4004V25.9976H98.0439ZM105.23 21.0562H99.1396V27.2007H96.4004V18.8647H105.23V21.0562ZM111.858 36.5142H98.4736V34.3013H111.858V36.5142ZM101.213 35.4292H98.4736V29.9292H101.213V35.4292Z" fill="#454B52"/>
</svg>
