<svg width="14" height="14" viewBox="0 0 14 14" fill="none" xmlns="http://www.w3.org/2000/svg">
<path d="M10.4381 7.82345H1.23515C1.00182 7.82345 0.806229 7.74453 0.648386 7.58668C0.490543 7.42884 0.411621 7.23325 0.411621 6.99992C0.411621 6.76658 0.490543 6.571 0.648386 6.41315C0.806229 6.25531 1.00182 6.17639 1.23515 6.17639H10.4381L6.4028 2.14109C6.23809 1.97639 6.15917 1.78423 6.16603 1.56462C6.1729 1.34502 6.25868 1.15286 6.42339 0.988153C6.58809 0.837173 6.78025 0.758251 6.99986 0.751388C7.21946 0.744526 7.41162 0.823447 7.57633 0.988153L13.0116 6.42345C13.094 6.5058 13.1523 6.59502 13.1866 6.69109C13.2209 6.78717 13.2381 6.89011 13.2381 6.99992C13.2381 7.10972 13.2209 7.21266 13.1866 7.30874C13.1523 7.40482 13.094 7.49404 13.0116 7.57639L7.57633 13.0117C7.42535 13.1627 7.23662 13.2382 7.01015 13.2382C6.78368 13.2382 6.58809 13.1627 6.42339 13.0117C6.25868 12.847 6.17633 12.6514 6.17633 12.4249C6.17633 12.1984 6.25868 12.0029 6.42339 11.8382L10.4381 7.82345Z" fill="white"/>
</svg>
