<svg width="16" height="10" viewBox="0 0 16 10" fill="none" xmlns="http://www.w3.org/2000/svg">
<path d="M7.99966 2.95833L1.87466 9.08333C1.66633 9.29167 1.42327 9.39236 1.1455 9.38542C0.867719 9.37847 0.624663 9.27083 0.41633 9.0625C0.207997 8.85417 0.10383 8.61111 0.10383 8.33333C0.10383 8.05555 0.207997 7.8125 0.41633 7.60417L6.81216 1.1875C6.97883 1.02083 7.16633 0.895833 7.37466 0.8125C7.583 0.729166 7.79133 0.6875 7.99966 0.6875C8.208 0.6875 8.41633 0.729166 8.62466 0.8125C8.833 0.895833 9.0205 1.02083 9.18716 1.1875L15.6038 7.60417C15.8122 7.8125 15.9129 8.05903 15.9059 8.34375C15.899 8.62847 15.7913 8.875 15.583 9.08333C15.3747 9.29167 15.1316 9.39583 14.8538 9.39583C14.5761 9.39583 14.333 9.29167 14.1247 9.08333L7.99966 2.95833Z" fill="white"/>
</svg>
