<svg width="31" height="31" viewBox="0 0 31 31" fill="none" xmlns="http://www.w3.org/2000/svg">
<path d="M15.4998 30.0832C13.5068 30.0832 11.6231 29.7004 9.84879 28.9347C8.07449 28.1691 6.52501 27.124 5.20036 25.7993C3.87571 24.4747 2.83057 22.9252 2.06494 21.1509C1.29932 19.3766 0.916504 17.4929 0.916504 15.4998C0.916504 13.4825 1.29932 11.5927 2.06494 9.83057C2.83057 8.06841 3.87571 6.52501 5.20036 5.20036C6.52501 3.87571 8.07449 2.83057 9.84879 2.06494C11.6231 1.29932 13.5068 0.916504 15.4998 0.916504C17.5172 0.916504 19.407 1.29932 21.1691 2.06494C22.9313 2.83057 24.4747 3.87571 25.7993 5.20036C27.124 6.52501 28.1691 8.06841 28.9347 9.83057C29.7004 11.5927 30.0832 13.4825 30.0832 15.4998C30.0832 17.4929 29.7004 19.3766 28.9347 21.1509C28.1691 22.9252 27.124 24.4747 25.7993 25.7993C24.4747 27.124 22.9313 28.1691 21.1691 28.9347C19.407 29.7004 17.5172 30.0832 15.4998 30.0832ZM15.4998 27.0936C16.1318 26.2186 16.6787 25.3071 17.1405 24.3592C17.6023 23.4113 17.979 22.4026 18.2707 21.3332H12.729C13.0207 22.4026 13.3974 23.4113 13.8592 24.3592C14.321 25.3071 14.8679 26.2186 15.4998 27.0936ZM11.7082 26.5103C11.2707 25.7082 10.8879 24.8757 10.5597 24.0129C10.2316 23.15 9.95817 22.2568 9.73942 21.3332H5.43734C6.1422 22.5484 7.02327 23.6057 8.08057 24.505C9.13786 25.4044 10.3471 26.0728 11.7082 26.5103ZM19.2915 26.5103C20.6526 26.0728 21.8618 25.4044 22.9191 24.505C23.9764 23.6057 24.8575 22.5484 25.5623 21.3332H21.2603C21.0415 22.2568 20.7681 23.15 20.4399 24.0129C20.1118 24.8757 19.729 25.7082 19.2915 26.5103ZM4.19775 18.4165H9.15609C9.08317 17.9304 9.02848 17.4504 8.99202 16.9764C8.95557 16.5024 8.93734 16.0103 8.93734 15.4998C8.93734 14.9894 8.95557 14.4972 8.99202 14.0233C9.02848 13.5493 9.08317 13.0693 9.15609 12.5832H4.19775C4.07623 13.0693 3.98508 13.5493 3.92432 14.0233C3.86355 14.4972 3.83317 14.9894 3.83317 15.4998C3.83317 16.0103 3.86355 16.5024 3.92432 16.9764C3.98508 17.4504 4.07623 17.9304 4.19775 18.4165ZM12.0728 18.4165H18.9269C18.9998 17.9304 19.0545 17.4504 19.091 16.9764C19.1274 16.5024 19.1457 16.0103 19.1457 15.4998C19.1457 14.9894 19.1274 14.4972 19.091 14.0233C19.0545 13.5493 18.9998 13.0693 18.9269 12.5832H12.0728C11.9998 13.0693 11.9451 13.5493 11.9087 14.0233C11.8722 14.4972 11.854 14.9894 11.854 15.4998C11.854 16.0103 11.8722 16.5024 11.9087 16.9764C11.9451 17.4504 11.9998 17.9304 12.0728 18.4165ZM21.8436 18.4165H26.8019C26.9234 17.9304 27.0146 17.4504 27.0754 16.9764C27.1361 16.5024 27.1665 16.0103 27.1665 15.4998C27.1665 14.9894 27.1361 14.4972 27.0754 14.0233C27.0146 13.5493 26.9234 13.0693 26.8019 12.5832H21.8436C21.9165 13.0693 21.9712 13.5493 22.0077 14.0233C22.0441 14.4972 22.0623 14.9894 22.0623 15.4998C22.0623 16.0103 22.0441 16.5024 22.0077 16.9764C21.9712 17.4504 21.9165 17.9304 21.8436 18.4165ZM21.2603 9.6665H25.5623C24.8575 8.45123 23.9764 7.39393 22.9191 6.49463C21.8618 5.59532 20.6526 4.92692 19.2915 4.48942C19.729 5.2915 20.1118 6.12397 20.4399 6.98682C20.7681 7.84966 21.0415 8.74289 21.2603 9.6665ZM12.729 9.6665H18.2707C17.979 8.59706 17.6023 7.58838 17.1405 6.64046C16.6787 5.69255 16.1318 4.78109 15.4998 3.90609C14.8679 4.78109 14.321 5.69255 13.8592 6.64046C13.3974 7.58838 13.0207 8.59706 12.729 9.6665ZM5.43734 9.6665H9.73942C9.95817 8.74289 10.2316 7.84966 10.5597 6.98682C10.8879 6.12397 11.2707 5.2915 11.7082 4.48942C10.3471 4.92692 9.13786 5.59532 8.08057 6.49463C7.02327 7.39393 6.1422 8.45123 5.43734 9.6665Z" fill="#1D1D1D"/>
</svg>
