<svg width="8" height="14" viewBox="0 0 8 14" fill="none" xmlns="http://www.w3.org/2000/svg">
<path d="M1.99005 6.66348L7.01134 11.6848C7.18213 11.8556 7.26468 12.0548 7.25899 12.2825C7.25329 12.5103 7.16505 12.7095 6.99426 12.8803C6.82347 13.0511 6.62421 13.1365 6.39649 13.1365C6.16876 13.1365 5.96951 13.0511 5.79871 12.8803L0.538319 7.63699C0.401685 7.50036 0.29921 7.34664 0.230893 7.17585C0.162576 7.00506 0.128418 6.83427 0.128418 6.66348C0.128418 6.49268 0.162576 6.32189 0.230893 6.1511C0.29921 5.98031 0.401685 5.82659 0.538319 5.68996L5.79871 0.429565C5.96951 0.258773 6.17161 0.176223 6.40503 0.181916C6.63844 0.187609 6.84055 0.275852 7.01134 0.446644C7.18213 0.617436 7.26753 0.816693 7.26753 1.04442C7.26753 1.27214 7.18213 1.4714 7.01134 1.64219L1.99005 6.66348Z" fill="white"/>
</svg>
