<svg width="8" height="9" viewBox="0 0 8 9" fill="none" xmlns="http://www.w3.org/2000/svg">
<path d="M7.43183 5.24457C7.53431 5.17625 7.61116 5.09086 7.6624 4.98838C7.71364 4.88591 7.73926 4.77774 7.73926 4.66388C7.73926 4.55002 7.71364 4.44185 7.6624 4.33937C7.61116 4.2369 7.53431 4.1515 7.43183 4.08318L1.86401 0.547788C1.80708 0.513629 1.7473 0.488011 1.68468 0.470931C1.62205 0.453852 1.56228 0.445312 1.50535 0.445312C1.32317 0.445312 1.16376 0.510783 1.02713 0.641723C0.890496 0.772664 0.822179 0.934916 0.822179 1.12848V8.19927C0.822179 8.39284 0.890496 8.55509 1.02713 8.68603C1.16376 8.81697 1.32317 8.88244 1.50535 8.88244C1.56228 8.88244 1.62205 8.8739 1.68468 8.85682C1.7473 8.83974 1.80708 8.81412 1.86401 8.77997L7.43183 5.24457Z" fill="white"/>
</svg>
