<svg width="9" height="11" viewBox="0 0 9 11" fill="none" xmlns="http://www.w3.org/2000/svg">
<path d="M7.17787 10.4452C6.80213 10.4452 6.48047 10.3114 6.2129 10.0439C5.94533 9.77628 5.81154 9.45462 5.81154 9.07888V2.2472C5.81154 1.87145 5.94533 1.5498 6.2129 1.28222C6.48047 1.01465 6.80213 0.880859 7.17787 0.880859C7.55362 0.880859 7.87528 1.01465 8.14285 1.28222C8.41042 1.5498 8.54421 1.87145 8.54421 2.2472V9.07888C8.54421 9.45462 8.41042 9.77628 8.14285 10.0439C7.87528 10.3114 7.55362 10.4452 7.17787 10.4452ZM1.71253 10.4452C1.33679 10.4452 1.01513 10.3114 0.747553 10.0439C0.479979 9.77628 0.346191 9.45462 0.346191 9.07888V2.2472C0.346191 1.87145 0.479979 1.5498 0.747553 1.28222C1.01513 1.01465 1.33679 0.880859 1.71253 0.880859C2.08827 0.880859 2.40993 1.01465 2.6775 1.28222C2.94508 1.5498 3.07886 1.87145 3.07886 2.2472V9.07888C3.07886 9.45462 2.94508 9.77628 2.6775 10.0439C2.40993 10.3114 2.08827 10.4452 1.71253 10.4452Z" fill="white"/>
</svg>
