<svg width="210" height="34" viewBox="0 0 210 34" fill="none" xmlns="http://www.w3.org/2000/svg">
<path d="M208.825 17.2411L202.731 17.1607V21.4409C202.731 26.9468 201.8 30.9858 201.353 32.1915C201.062 32.5331 200.383 32.734 199.975 32.6135C199.723 31.6489 199.199 28.6548 199.199 23.6714V4.42079C199.199 3.61701 197.006 1.94916 196.191 1.68793C195.977 1.60755 196.676 0.763579 196.889 0.763579C198.558 0.763579 202.945 1.8085 202.848 2.61228C202.77 3.15483 202.731 3.79786 202.731 4.50117V15.513L207.35 13.6241C207.758 13.4633 209.582 17.2411 208.845 17.2411M196.171 19.331C196.812 20.2553 195.084 24.1737 194.463 23.2494C193.57 21.9432 191.125 18.0851 188.932 15.513C186.001 19.7529 182.352 23.169 179.072 24.9775C178.665 24.9373 178.18 24.3144 178.18 23.9326C182.236 20.195 186.816 13.6442 188.738 7.67611C188.854 7.3345 187.476 6.28958 186.875 5.90779C186.68 5.78722 187.515 5.14419 187.728 5.14419C188.835 5.14419 191.901 6.45034 192.639 6.99289C193.046 7.29431 193.085 7.49526 192.891 7.99762C192.076 10.1879 190.989 12.2778 189.766 14.2068C192.522 16.1761 195.569 18.4468 196.171 19.331ZM176.472 17.6028L170.339 17.4823V21.4409C170.339 26.9468 169.485 30.9858 168.999 32.1915C168.708 32.5331 168.029 32.734 167.66 32.6135C167.369 31.6489 166.884 28.6548 166.884 23.6714V4.42079C166.884 3.61701 164.691 2.02954 163.876 1.68793C163.681 1.60755 164.361 0.763579 164.574 0.763579C166.243 0.763579 170.533 1.8085 170.455 2.61228C170.416 3.15483 170.339 3.79786 170.339 4.50117V15.8546L174.977 14.0059C175.424 13.8049 177.248 17.5827 176.472 17.5827M156.539 19.4917C158.247 19.4917 159.509 18.2659 159.509 16.3771C159.509 14.4882 158.325 13.2222 156.539 13.2222C154.754 13.2222 153.57 14.4882 153.57 16.3771C153.57 18.2659 154.754 19.4917 156.539 19.4917ZM150.736 3.43616C150.697 3.2754 150.891 2.75294 151.105 2.77304C152.328 3.01417 153.57 3.23521 155.122 3.43616L158.907 3.85814C159.237 3.89833 160.693 5.96807 159.722 5.96807H153.997C153.026 5.96807 150.794 3.77776 150.717 3.43616M146.932 8.11819C146.893 7.99762 147.126 7.57564 147.223 7.61582C147.864 7.85696 150.134 7.91724 152.289 7.87705L160.033 7.79668C162.265 7.75649 162.925 6.6111 163.274 6.6111C163.643 6.6111 165.059 8.64065 165.059 9.58509C165.059 9.74585 164.904 9.84632 164.652 9.84632C164.283 9.84632 162.129 9.72575 160.421 9.72575L152.095 9.76594C150.755 9.76594 149.863 10.0674 149.455 10.4492C148.407 10.1477 147.107 8.52008 146.971 8.09809M165.428 23.8723C162.09 25.4598 155.685 26.3841 151.299 26.9468C150.115 27.1076 149.397 27.3286 148.698 27.7506C147.572 27.4492 145.942 25.7411 145.787 25.0981C145.826 24.8972 145.981 24.7163 146.078 24.5957C147.301 24.5957 149.086 24.6359 151.241 24.5154C152.58 24.435 153.841 24.3546 154.986 24.2541L154.773 20.9385C151.939 20.4362 150.193 18.708 150.193 16.3168C150.193 13.7045 152.386 11.9362 155.84 11.7352C155.879 11.5745 155.918 11.474 155.918 11.3132C155.918 11.0118 155.84 10.6501 155.433 10.3487C155.433 9.62528 157.665 10.3487 157.665 10.7305C157.665 10.8912 157.471 11.3534 157.374 11.7352C160.751 11.9763 162.886 13.7447 162.886 16.3168C162.886 18.708 161.061 20.4362 158.267 20.9385L158.111 23.9326C161.644 23.5106 164.031 22.9279 165.622 22.3853C165.952 22.2648 165.816 23.6513 165.409 23.8522M123.137 5.1241L123.098 11.5544H131.755L131.968 5.1241H123.118H123.137ZM117.528 3.69739C117.489 3.49644 118.013 2.85341 118.266 2.85341C118.906 2.85341 121.119 2.93379 122.574 3.19502H130.823C131.871 3.19502 132.415 3.03426 132.822 2.65247C133.268 2.49171 136.16 2.95389 136.102 3.45625L134.879 11.1927C135.403 11.695 136.102 12.6997 136.102 13.2423C136.102 13.4031 135.947 13.5035 135.695 13.5035C135.326 13.5035 133.948 13.4633 131.871 13.4633H122.73C122.497 13.8853 122.206 14.2671 121.876 14.669C121.546 15.0106 120.944 15.1714 120.498 15.0508C120.129 14.1265 119.818 12.3581 119.566 9.16311L119.236 5.16429C119.197 4.78249 118.149 3.93852 117.528 3.69739ZM138.121 31.026C138.121 31.1867 138.004 31.2872 137.713 31.2872H133.89L122.516 31.3274C119.353 31.3274 118.732 30.2021 118.732 28.0118V24.7364C118.732 24.1537 117.548 23.1489 116.868 23.0485C116.655 23.0083 117.392 22.0437 117.684 22.0437C118.984 22.0437 120.925 22.3451 121.895 22.7269C122.089 22.8073 122.38 22.9279 122.303 23.3499C122.225 23.8522 122.225 24.5756 122.225 25.1986V28.052C122.225 29.2376 122.633 29.3983 123.642 29.3983L133.191 29.3581C135.209 29.3581 135.869 28.1927 136.122 28.1927C136.646 28.1927 138.121 30.1217 138.121 31.0059M141.731 18.5674C141.731 18.7683 141.575 18.8688 141.323 18.8688H129.542V21.0993C129.542 23.37 128.727 25.3392 128.164 26.2234C127.873 26.565 127.232 26.7258 126.825 26.6052C126.495 25.5603 126.01 24.1737 126.01 21.6418V18.8688H118.091C116.752 18.8688 115.859 19.2506 115.452 19.6324C114.403 19.331 112.288 17.6229 112.288 17.2411C112.288 17.0804 112.482 16.6584 112.579 16.6986C113.22 16.9397 115.49 16.9598 117.645 16.9598L135.869 16.9196C138.179 16.9196 138.955 15.5733 139.246 15.5733C139.654 15.5733 141.731 17.6229 141.731 18.5473M89.813 8.8215C89.813 11.2931 91.3657 12.9409 93.7141 12.9409C96.0625 12.9409 97.8481 11.2931 97.8481 8.8215C97.8481 6.34987 96.179 4.70211 93.7529 4.70211C91.3269 4.70211 89.813 6.36996 89.813 8.8215ZM86.2807 8.94207C86.2807 5.4858 88.9591 3.17493 93.093 2.93379C93.1319 2.81322 93.1707 2.71275 93.1707 2.59218C93.1707 2.25058 93.0931 1.86878 92.6078 1.50708C92.6078 0.743484 95.0921 1.50708 95.0921 1.92906C95.0921 2.08982 94.898 2.552 94.801 2.93379C98.7409 3.23521 101.342 5.54608 101.342 8.94207C101.342 12.5189 98.3333 14.87 93.8306 14.87C89.3278 14.87 86.2807 12.5189 86.2807 8.94207ZM108.523 19.4515C108.523 19.6123 108.367 19.7128 108.115 19.7128H100.041V21.5615C100.041 26.7659 99.1485 30.805 98.6633 31.9905C98.3721 32.3321 97.6928 32.4929 97.3241 32.4125C97.033 31.448 96.5089 28.4539 96.5089 23.7919V19.7128L90.8223 19.7529V20.9184C90.8223 26.0827 89.9295 30.1217 89.4831 31.3073C89.192 31.6489 88.5127 31.8097 88.1051 31.7293C87.8528 30.7648 87.3288 27.7707 87.3288 23.1489V19.7529H84.8833C83.5441 19.7529 82.6513 20.1347 82.2437 20.5165C81.1957 20.2151 79.0802 18.5071 79.0802 18.0851C79.0802 17.9645 79.2743 17.5425 79.3713 17.5827C80.0118 17.8038 82.2826 17.844 84.4369 17.844L102.661 17.7636C104.971 17.7636 105.747 16.4172 106.038 16.4172C106.446 16.4172 108.523 18.487 108.523 19.4113M56.8964 7.27422C56.8964 9.38415 58.4296 10.8912 60.7198 10.8912C63.01 10.8912 64.5433 9.38415 64.5433 7.27422C64.5433 5.16429 63.01 3.73757 60.7198 3.73757C58.4296 3.73757 56.8964 5.20448 56.8964 7.27422ZM53.364 7.43497C53.364 4.40069 55.9259 2.19029 59.9047 1.92906C59.9435 1.72812 60.0211 1.58746 60.0211 1.38651C60.0211 1.0449 59.9047 0.6832 59.4583 0.341593C59.4583 -0.46219 61.9425 0.341593 61.9425 0.72339C61.9425 0.964524 61.6902 1.48698 61.535 1.90897C65.4749 2.1702 68.1144 4.3806 68.1144 7.41488C68.1144 10.6099 65.1061 12.8806 60.7198 12.8806C56.3335 12.8806 53.364 10.6099 53.364 7.41488M70.9869 31.6489C70.9869 31.8499 70.8316 31.9102 70.5793 31.9102H56.12C53.6357 31.9102 52.7624 31.026 52.7041 29.0165L52.6265 26.4444C52.6265 26.0626 51.6561 25.5603 51.035 25.2789C50.9962 25.078 51.559 24.435 51.8502 24.435C52.5489 24.435 55.2078 24.5957 56.1588 24.9373H65.5719L65.6107 21.8227H56.1977C55.0526 21.8227 54.2956 22.1241 53.8881 22.526C52.5489 22.325 51.462 20.5165 51.4426 20.2553C51.4038 20.0544 51.5979 19.6726 51.7725 19.7128C52.9565 19.9338 54.4509 19.9338 56.6052 19.9338H64.3104C65.3584 19.9338 65.9019 19.8132 66.3094 19.3912C66.7558 19.351 69.7253 19.6927 69.6283 20.195L68.6967 24.7364C69.3954 25.2789 69.8418 26.2033 69.8418 26.4243C69.8418 26.6253 69.7253 26.7659 69.5506 26.7659C69.2207 26.7659 67.1052 26.7258 65.3778 26.7258H56.1588V28.4137C56.1588 29.7198 56.5276 29.9811 58.1967 29.9811H66.3482C68.6579 29.9811 68.9878 28.9763 69.2401 28.9763C69.7641 28.9763 70.9869 30.7849 70.9869 31.5886M75.2373 16.7589C75.2373 16.9196 75.082 17.0201 74.8297 17.0201H69.5895L51.6173 17.0603C50.3169 17.0603 49.4241 17.4421 49.0165 17.7837C47.9297 17.4823 46.0082 15.8144 45.853 15.3924C45.8142 15.2719 46.0471 14.8499 46.1441 14.8901C46.7846 15.1312 49.036 15.1714 51.2097 15.1714L69.3954 15.091C71.6662 15.091 72.4425 13.7447 72.7724 13.7447C73.18 13.7447 75.2179 15.8144 75.2179 16.7388M34.1691 16.6785C34.1691 17.0201 33.9168 17.0201 33.024 17.3014C32.6552 17.422 32.4612 18.0248 32.17 18.9893C31.5296 21.0189 29.4917 24.2943 25.2606 24.2943C21.0296 24.2943 18.7976 20.5567 18.6424 20.3558C18.4289 20.0544 18.0795 19.773 17.7884 19.773C17.5943 19.773 17.4585 19.8534 17.342 19.9338C15.8087 21.0189 14.1396 22.2447 14.1396 25.0579C14.1396 26.9066 15.6341 29.0165 18.1572 29.0165C20.3115 29.0165 21.7283 26.9066 22.1747 25.4397C22.33 24.9373 22.2912 24.7364 22.5435 24.7364C22.8734 24.7364 22.9899 25.5 23.4363 25.5C23.805 25.5 23.6886 25.299 24.1738 25.299C24.6202 25.299 24.7366 25.922 25.1054 25.922C25.6294 25.922 26.3281 25.4598 26.6775 25.4598C26.7939 25.4598 26.9686 25.4598 26.9686 25.5804C26.9686 25.7813 26.6386 25.9622 26.3281 26.2435C25.6876 26.8262 25.2218 27.1678 24.7366 28.0118C23.0287 31.0059 21.049 31.5485 20.0398 31.87C19.671 31.9905 19.3023 32.1714 19.147 32.5331C18.5841 33.8392 18.2542 34 18.0989 34C17.9049 34 17.8466 33.7789 17.8078 33.2766C17.769 32.734 17.4779 32.1111 16.4686 31.9302C13.9067 31.4279 10.7431 28.7352 10.7431 24.4953C10.7431 20.6773 13.538 19.1903 14.9548 17.7234C15.1489 17.5224 15.2847 17.3014 15.2847 16.9598V16.8392C15.2847 16.6584 15.2459 16.4172 15.013 16.1158C13.5962 14.2671 12.5287 13.0414 10.5879 13.0414C8.47236 13.0414 6.60915 14.8499 6.60915 17.4622C6.60915 20.2754 7.94833 21.2399 9.28751 21.5815C9.73391 21.7021 9.88918 21.7423 9.88918 21.883C9.88918 22.1844 9.59805 22.1241 9.59805 22.5863C9.59805 22.9279 9.85036 22.8877 9.85036 23.4302C9.85036 23.812 9.52042 23.9326 9.52042 24.5154C9.52042 24.9775 9.73391 25.1383 9.73391 25.3995C9.73391 25.7411 9.92799 25.7009 9.92799 26.4444C9.92799 26.6454 10.0056 26.786 9.85036 26.786C9.69509 26.786 9.52042 26.5248 9.28751 26.1631C8.76349 25.3593 8.20064 24.857 7.79307 24.5354C4.55186 22.104 4.43541 21.039 3.62026 19.3711C3.42617 18.9893 3.36795 18.3262 2.97978 18.1454C1.79587 17.5224 0.980713 17.3416 0.980713 16.3369C0.980713 15.8747 1.50474 16.3369 2.31989 16.3369C2.76629 16.3369 3.29031 16.4172 3.54262 15.4527C4.10547 13.4031 6.43448 10.1276 10.5297 10.1276C14.8771 10.1276 17.0315 13.8652 17.1867 14.0662C17.4779 14.4882 17.7496 14.6489 18.0407 14.6489C18.2348 14.6489 18.3707 14.6489 18.7006 14.3475C21.4566 11.8156 21.6701 10.6903 21.6701 9.22339C21.6701 7.37469 20.2533 5.22457 17.7302 5.22457C15.2071 5.22457 14.0038 7.29431 13.6738 8.84159C13.5574 9.34396 13.4797 9.60519 13.2662 9.60519C12.9363 9.60519 12.9363 9.14301 12.5675 9.14301C11.9659 9.14301 11.9077 9.40424 11.5971 9.40424C11.1895 9.40424 11.1895 8.64065 10.5879 8.64065C10.4326 8.64065 10.1027 8.84159 9.88918 8.84159C9.32633 8.84159 9.28751 8.96216 9.0352 8.96216C8.74408 8.96216 8.43354 8.8014 8.43354 8.58036C8.43354 8.35932 8.62763 8.19857 9.20988 7.89715C9.98622 7.47516 10.7043 7.17374 11.0731 6.30968C12.2182 3.6572 14.7607 2.81322 15.7311 2.43143C16.0999 2.27067 16.294 2.13001 16.4686 1.76831C17.245 0.301404 17.5943 0.140647 17.8078 0.140647C18.0213 0.140647 18.0019 0.522444 18.0989 0.984619C18.2154 1.52717 18.2154 1.94916 19.0694 2.1702C21.4954 2.83332 25.0471 5.14419 25.0471 9.36405C25.0471 13.5839 21.0296 16.2565 20.8355 16.4172C20.3891 16.7589 20.2339 17.0402 20.2339 17.3014C20.2339 17.5023 20.3503 17.7234 20.4668 17.9645C21.4372 19.974 23.1063 21.2801 25.0471 21.2801C27.3568 21.2801 29.1423 19.0496 29.1423 16.7388C29.1423 14.4279 27.6479 13.0414 26.3475 12.6194C25.8623 12.4586 25.6488 12.4586 25.6488 12.1974C25.6488 11.896 25.9788 11.9964 25.9788 11.5343C25.9788 11.1927 25.8235 11.273 25.8235 10.7305C25.8235 10.3487 26.2699 10.2281 26.2699 9.64538C26.2699 9.1832 26.0564 9.02244 26.0564 8.76122C26.0564 8.41961 25.9399 8.4598 25.9399 7.7163C25.9399 7.51535 25.8623 7.37469 26.0176 7.37469C26.2117 7.37469 26.3863 7.63592 26.6192 7.99762C27.1433 8.8014 27.5508 9.42434 27.9584 9.68556C30.8891 11.6146 31.5296 12.8404 32.2089 14.5685C32.3641 14.9503 32.5 15.6135 32.9464 15.8747C33.3151 16.1158 34.1303 16.3771 34.1303 16.6785" fill="white"/>
</svg>
