<svg width="102" height="16" viewBox="0 0 102 16" fill="none" xmlns="http://www.w3.org/2000/svg">
<path d="M101.915 8.11387L98.9261 8.07605V10.0902C98.9261 12.6812 98.4692 14.582 98.2503 15.1493C98.1076 15.3101 97.7744 15.4047 97.5746 15.3479C97.4508 14.894 97.1939 13.485 97.1939 11.1399V2.08077C97.1939 1.70252 96.1184 0.917653 95.7186 0.794721C95.6139 0.756896 95.9566 0.359733 96.0613 0.359733C96.8798 0.359733 99.0308 0.851459 98.9832 1.22971C98.9451 1.48503 98.9261 1.78763 98.9261 2.1186V7.30063L101.191 6.41174C101.391 6.33609 102.286 8.11387 101.924 8.11387M95.7091 9.09732C96.0232 9.53231 95.1761 11.3763 94.8716 10.9413C94.4338 10.3266 93.2345 8.51103 92.1591 7.30063C90.7219 9.2959 88.9326 10.9035 87.3241 11.7545C87.1242 11.7356 86.8863 11.4425 86.8863 11.2628C88.8755 9.50394 91.1216 6.4212 92.0639 3.61269C92.121 3.45193 91.4452 2.96021 91.1502 2.78054C91.055 2.7238 91.4643 2.4212 91.569 2.4212C92.1115 2.4212 93.6152 3.03586 93.9769 3.29118C94.1768 3.43302 94.1958 3.52758 94.1006 3.76399C93.7009 4.79472 93.1679 5.77817 92.5683 6.68597C93.9198 7.61269 95.4141 8.68125 95.7091 9.09732ZM86.0488 8.28408L83.0412 8.22735V10.0902C83.0412 12.6812 82.6224 14.582 82.3845 15.1493C82.2417 15.3101 81.9086 15.4047 81.7278 15.3479C81.585 14.894 81.3471 13.485 81.3471 11.1399V2.08077C81.3471 1.70252 80.2716 0.955478 79.8718 0.794721C79.7767 0.756896 80.1098 0.359733 80.2145 0.359733C81.033 0.359733 83.1364 0.851459 83.0983 1.22971C83.0793 1.48503 83.0412 1.78763 83.0412 2.1186V7.46139L85.3159 6.59141C85.5348 6.49685 86.4295 8.27463 86.0488 8.27463M76.2742 9.17297C77.1117 9.17297 77.7304 8.59614 77.7304 7.70725C77.7304 6.81836 77.1498 6.22262 76.2742 6.22262C75.3986 6.22262 74.818 6.81836 74.818 7.70725C74.818 8.59614 75.3986 9.17297 76.2742 9.17297ZM73.4284 1.61742C73.4094 1.54177 73.5046 1.2959 73.6093 1.30536C74.2089 1.41883 74.818 1.52285 75.5794 1.61742L77.4353 1.816C77.5971 1.83491 78.311 2.80891 77.8351 2.80891H75.0274C74.5515 2.80891 73.457 1.77817 73.4189 1.61742M71.563 3.82073C71.544 3.76399 71.6582 3.56541 71.7057 3.58432C72.0198 3.69779 73.1334 3.72616 74.1898 3.70725L77.9874 3.66943C79.0819 3.65051 79.4055 3.11151 79.5768 3.11151C79.7576 3.11151 80.4524 4.06659 80.4524 4.51103C80.4524 4.58668 80.3763 4.63397 80.2525 4.63397C80.0717 4.63397 79.0153 4.57723 78.1777 4.57723L74.0947 4.59614C73.438 4.59614 73.0001 4.73798 72.8003 4.91765C72.2863 4.77581 71.6487 4.00985 71.582 3.81127M80.6333 11.2344C78.9962 11.9815 75.8554 12.4165 73.7045 12.6812C73.1239 12.7569 72.7717 12.8609 72.4291 13.0595C71.8771 12.9177 71.0776 12.1139 71.0014 11.8113C71.0205 11.7167 71.0966 11.6316 71.1442 11.5749C71.7438 11.5749 72.6194 11.5938 73.6759 11.537C74.3326 11.4992 74.9512 11.4614 75.5128 11.4141L75.4081 9.85382C74.0185 9.61742 73.1619 8.80418 73.1619 7.67888C73.1619 6.44957 74.2374 5.61742 75.9316 5.52285C75.9506 5.4472 75.9696 5.39992 75.9696 5.32427C75.9696 5.18243 75.9316 5.01222 75.7317 4.87037C75.7317 4.52995 76.8262 4.87037 76.8262 5.05004C76.8262 5.12569 76.731 5.34318 76.6835 5.52285C78.3395 5.63633 79.3865 6.46848 79.3865 7.67888C79.3865 8.80418 78.4918 9.61742 77.1213 9.85382L77.0451 11.2628C78.7773 11.0642 79.948 10.79 80.7284 10.5347C80.8902 10.4779 80.8236 11.1304 80.6237 11.225M59.8944 2.41174L59.8754 5.43775H64.1202L64.2249 2.41174H59.8849H59.8944ZM57.1438 1.74035C57.1248 1.64579 57.3818 1.34318 57.5055 1.34318C57.8196 1.34318 58.9046 1.38101 59.6184 1.50394H63.6634C64.1773 1.50394 64.4438 1.42829 64.6437 1.24862C64.8626 1.17297 66.2807 1.39047 66.2522 1.62687L65.6526 5.26753C65.9095 5.50394 66.2522 5.97675 66.2522 6.23207C66.2522 6.30772 66.176 6.355 66.0523 6.355C65.8715 6.355 65.1957 6.33609 64.1773 6.33609H59.6946C59.5803 6.53467 59.4376 6.71434 59.2758 6.90347C59.114 7.06423 58.8189 7.13987 58.6 7.08314C58.4192 6.64815 58.2669 5.816 58.1432 4.31245L57.9814 2.43066C57.9624 2.25099 57.4484 1.85382 57.1438 1.74035ZM67.242 14.6009C67.242 14.6765 67.1849 14.7238 67.0421 14.7238H65.1672L59.5899 14.7427C58.0385 14.7427 57.7339 14.2132 57.7339 13.1824V11.6411C57.7339 11.3668 57.1534 10.894 56.8202 10.8467C56.7155 10.8278 57.0772 10.3739 57.22 10.3739C57.8577 10.3739 58.8094 10.5158 59.2853 10.6954C59.3805 10.7333 59.5232 10.79 59.4852 10.9886C59.4471 11.225 59.4471 11.5654 59.4471 11.8586V13.2013C59.4471 13.7593 59.647 13.8349 60.1419 13.8349L64.8245 13.816C65.8144 13.816 66.138 13.2675 66.2617 13.2675C66.5187 13.2675 67.242 14.1753 67.242 14.5914M69.0123 8.73798C69.0123 8.83255 68.9361 8.87983 68.8124 8.87983H63.0352V9.92947C63.0352 10.998 62.6355 11.9247 62.3595 12.3408C62.2167 12.5016 61.9026 12.5772 61.7028 12.5205C61.541 12.0288 61.303 11.3763 61.303 10.1848V8.87983H57.4199C56.7631 8.87983 56.3253 9.0595 56.1255 9.23917C55.6115 9.09732 54.5741 8.29354 54.5741 8.11387C54.5741 8.03822 54.6693 7.83964 54.7169 7.85855C55.0309 7.97203 56.1445 7.98148 57.2009 7.98148L66.138 7.96257C67.2706 7.96257 67.6513 7.329 67.794 7.329C67.9939 7.329 69.0123 8.29354 69.0123 8.72853M43.5527 4.1517C43.5527 5.31482 44.3141 6.09023 45.4658 6.09023C46.6174 6.09023 47.493 5.31482 47.493 4.1517C47.493 2.98857 46.6745 2.21316 45.4848 2.21316C44.2951 2.21316 43.5527 2.99803 43.5527 4.1517ZM41.8205 4.20843C41.8205 2.58196 43.1339 1.49449 45.1612 1.38101C45.1802 1.32427 45.1993 1.27699 45.1993 1.22025C45.1993 1.0595 45.1612 0.879828 44.9233 0.709615C44.9233 0.350277 46.1415 0.709615 46.1415 0.908197C46.1415 0.983847 46.0463 1.20134 45.9987 1.38101C47.9308 1.52285 49.2062 2.61032 49.2062 4.20843C49.2062 5.89165 47.7309 6.99803 45.5229 6.99803C43.3148 6.99803 41.8205 5.89165 41.8205 4.20843ZM52.7277 9.15406C52.7277 9.22971 52.6515 9.27699 52.5278 9.27699H48.5685V10.147C48.5685 12.5961 48.1307 14.4968 47.8927 15.0548C47.75 15.2155 47.4169 15.2912 47.236 15.2534C47.0933 14.7994 46.8363 13.3905 46.8363 11.1966V9.27699L44.0476 9.2959V9.84437C44.0476 12.2746 43.6098 14.1753 43.3909 14.7333C43.2482 14.894 42.915 14.9697 42.7152 14.9318C42.5914 14.4779 42.3345 13.069 42.3345 10.894V9.2959H41.1353C40.4785 9.2959 40.0407 9.47557 39.8409 9.65524C39.3269 9.5134 38.2895 8.70961 38.2895 8.51103C38.2895 8.4543 38.3847 8.25571 38.4323 8.27463C38.7463 8.37865 39.8599 8.39756 40.9164 8.39756L49.8534 8.35973C50.986 8.35973 51.3667 7.72616 51.5094 7.72616C51.7093 7.72616 52.7277 8.70016 52.7277 9.13515M27.4109 3.42356C27.4109 4.41647 28.1628 5.12569 29.2859 5.12569C30.4089 5.12569 31.1608 4.41647 31.1608 3.42356C31.1608 2.43066 30.4089 1.75926 29.2859 1.75926C28.1628 1.75926 27.4109 2.44957 27.4109 3.42356ZM25.6787 3.49921C25.6787 2.07132 26.935 1.03113 28.8861 0.908197C28.9052 0.813634 28.9432 0.74744 28.9432 0.652878C28.9432 0.492121 28.8861 0.321908 28.6672 0.161152C28.6672 -0.217099 29.8855 0.161152 29.8855 0.340821C29.8855 0.454296 29.7617 0.700159 29.6856 0.89874C31.6177 1.02167 32.9121 2.06186 32.9121 3.48976C32.9121 4.9933 31.4368 6.06186 29.2859 6.06186C27.1349 6.06186 25.6787 4.9933 25.6787 3.48976M34.3207 14.894C34.3207 14.9886 34.2445 15.0169 34.1208 15.0169H27.0302C25.8119 15.0169 25.3836 14.6009 25.3551 13.6552L25.317 12.4448C25.317 12.2652 24.8411 12.0288 24.5366 11.8964C24.5175 11.8018 24.7936 11.4992 24.9363 11.4992C25.279 11.4992 26.5829 11.5749 27.0492 11.7356H31.6653L31.6843 10.2699H27.0683C26.5067 10.2699 26.1355 10.4117 25.9357 10.6009C25.279 10.5063 24.746 9.65524 24.7365 9.53231C24.7174 9.43775 24.8126 9.25808 24.8983 9.27699C25.4788 9.38101 26.2117 9.38101 27.2681 9.38101H31.0466C31.5606 9.38101 31.8271 9.32427 32.0269 9.12569C32.2458 9.10678 33.702 9.26754 33.6544 9.50394L33.1976 11.6411C33.5402 11.8964 33.7591 12.3314 33.7591 12.4354C33.7591 12.5299 33.702 12.5961 33.6164 12.5961C33.4546 12.5961 32.4171 12.5772 31.5701 12.5772H27.0492V13.3716C27.0492 13.9862 27.2301 14.1091 28.0486 14.1091H32.046C33.1786 14.1091 33.3404 13.6363 33.4641 13.6363C33.7211 13.6363 34.3207 14.4874 34.3207 14.8656M36.405 7.88692C36.405 7.96257 36.3289 8.00985 36.2051 8.00985H33.6354L24.8221 8.02876C24.1844 8.02876 23.7466 8.20843 23.5468 8.36919C23.0138 8.22735 22.0715 7.44248 21.9954 7.24389C21.9764 7.18716 22.0906 6.98857 22.1382 7.00749C22.4522 7.12096 23.5563 7.13988 24.6222 7.13988L33.5402 7.10205C34.6538 7.10205 35.0345 6.46848 35.1963 6.46848C35.3961 6.46848 36.3955 7.44248 36.3955 7.87746M16.2658 7.8491C16.2658 8.00985 16.1421 8.00985 15.7043 8.14224C15.5234 8.19898 15.4283 8.48267 15.2855 8.93657C14.9714 9.89165 13.9721 11.433 11.8972 11.433C9.82239 11.433 8.72787 9.67415 8.65173 9.57959C8.54704 9.43775 8.37572 9.30536 8.23295 9.30536C8.13778 9.30536 8.07116 9.34319 8.01405 9.38101C7.26216 9.89165 6.44365 10.4685 6.44365 11.7924C6.44365 12.6623 7.1765 13.6552 8.41379 13.6552C9.47024 13.6552 10.165 12.6623 10.3839 11.972C10.4601 11.7356 10.441 11.6411 10.5648 11.6411C10.7266 11.6411 10.7837 12.0004 11.0026 12.0004C11.1834 12.0004 11.1263 11.9058 11.3642 11.9058C11.5831 11.9058 11.6403 12.199 11.8211 12.199C12.0781 12.199 12.4207 11.9815 12.592 11.9815C12.6491 11.9815 12.7348 11.9815 12.7348 12.0382C12.7348 12.1328 12.573 12.2179 12.4207 12.3503C12.1066 12.6245 11.8782 12.7853 11.6403 13.1824C10.8027 14.5914 9.83191 14.8467 9.337 14.998C9.15616 15.0548 8.97533 15.1399 8.89919 15.3101C8.62318 15.9247 8.46138 16.0004 8.38524 16.0004C8.29006 16.0004 8.26151 15.8964 8.24247 15.66C8.22344 15.4047 8.08067 15.1115 7.58576 15.0264C6.32944 14.79 4.77807 13.5229 4.77807 11.5276C4.77807 9.73089 6.1486 9.03113 6.84339 8.34082C6.93856 8.24626 7.00519 8.14224 7.00519 7.98148V7.92475C7.00519 7.83964 6.98615 7.72616 6.87194 7.58432C6.17716 6.71434 5.65369 6.13751 4.70193 6.13751C3.66451 6.13751 2.75082 6.98857 2.75082 8.21789C2.75082 9.54177 3.40754 9.99567 4.06425 10.1564C4.28316 10.2132 4.3593 10.2321 4.3593 10.2983C4.3593 10.4401 4.21653 10.4117 4.21653 10.6292C4.21653 10.79 4.34026 10.7711 4.34026 11.0264C4.34026 11.2061 4.17846 11.2628 4.17846 11.537C4.17846 11.7545 4.28316 11.8302 4.28316 11.9531C4.28316 12.1139 4.37833 12.095 4.37833 12.4448C4.37833 12.5394 4.4164 12.6056 4.34026 12.6056C4.26412 12.6056 4.17846 12.4827 4.06425 12.3125C3.80728 11.9342 3.53127 11.6978 3.3314 11.5465C1.74196 10.4023 1.68485 9.9011 1.28511 9.11623C1.18994 8.93657 1.16139 8.62451 0.971034 8.5394C0.390461 8.24626 -0.00927734 8.16115 -0.00927734 7.68834C-0.00927734 7.47084 0.247698 7.68834 0.647436 7.68834C0.866341 7.68834 1.12332 7.72616 1.24704 7.27226C1.52305 6.30772 2.66517 4.76635 4.67338 4.76635C6.80532 4.76635 7.86177 6.52522 7.93791 6.61978C8.08067 6.81836 8.21392 6.89401 8.35668 6.89401C8.45186 6.89401 8.51848 6.89401 8.68028 6.75217C10.0318 5.56068 10.1365 5.03113 10.1365 4.34082C10.1365 3.47084 9.44169 2.45902 8.2044 2.45902C6.96712 2.45902 6.37703 3.43302 6.21523 4.16115C6.15812 4.39756 6.12005 4.52049 6.01536 4.52049C5.85356 4.52049 5.85356 4.303 5.67272 4.303C5.37768 4.303 5.34913 4.42593 5.19684 4.42593C4.99697 4.42593 4.99697 4.06659 4.70193 4.06659C4.62579 4.06659 4.46399 4.16115 4.3593 4.16115C4.08329 4.16115 4.06425 4.21789 3.94052 4.21789C3.79776 4.21789 3.64548 4.14224 3.64548 4.03822C3.64548 3.9342 3.74065 3.85855 4.02618 3.71671C4.40688 3.51813 4.75903 3.37628 4.93987 2.96966C5.50141 1.72144 6.74821 1.32427 7.22409 1.1446C7.40492 1.06895 7.5001 1.00276 7.58576 0.832547C7.96646 0.142239 8.13778 0.0665891 8.24247 0.0665891C8.34717 0.0665891 8.33765 0.246258 8.38524 0.463752C8.44234 0.719071 8.44234 0.917653 8.86112 1.02167C10.0508 1.33373 11.7925 2.4212 11.7925 4.40701C11.7925 6.39283 9.82239 7.65051 9.72722 7.72616C9.50831 7.88692 9.43217 8.01931 9.43217 8.14224C9.43217 8.2368 9.48928 8.34082 9.54638 8.4543C10.0223 9.39992 10.8408 10.0146 11.7925 10.0146C12.9251 10.0146 13.8007 8.96493 13.8007 7.87746C13.8007 6.78999 13.0679 6.13751 12.4302 5.93893C12.1923 5.86328 12.0876 5.86328 12.0876 5.74035C12.0876 5.5985 12.2494 5.64578 12.2494 5.42829C12.2494 5.26753 12.1732 5.30536 12.1732 5.05004C12.1732 4.87037 12.3921 4.81363 12.3921 4.5394C12.3921 4.32191 12.2874 4.24626 12.2874 4.12333C12.2874 3.96257 12.2303 3.98148 12.2303 3.6316C12.2303 3.53704 12.1923 3.47084 12.2684 3.47084C12.3636 3.47084 12.4492 3.59378 12.5635 3.76399C12.8204 4.14224 13.0203 4.43538 13.2202 4.55831C14.6573 5.46612 14.9714 6.04295 15.3045 6.85619C15.3807 7.03586 15.4473 7.34791 15.6662 7.47084C15.847 7.58432 16.2468 7.70725 16.2468 7.8491" fill="white"/>
</svg>
