<svg width="91" height="30" viewBox="0 0 91 30" fill="none" xmlns="http://www.w3.org/2000/svg">
<path d="M72.4409 7.33643C72.4409 7.59165 72.4782 7.85615 72.5808 8.10673C73.0331 9.22042 74.1849 9.90719 75.6491 9.32715C75.9988 9.18793 85.6841 5.30394 85.6841 5.30394C85.6841 5.30394 81.8697 14.9281 81.7251 15.2854C81.1702 16.6636 81.837 17.9118 82.9701 18.3295C83.222 18.4223 83.4831 18.4687 83.7396 18.464C84.6675 18.4594 85.4835 17.9165 85.8846 16.8306C85.9452 16.6682 90.7155 3.63341 90.8181 3.32251C90.8787 3.13689 90.9906 2.7007 90.9906 2.39907C90.9906 1.75406 90.7528 1.14617 90.2912 0.686775C89.8389 0.232019 89.2327 0 88.5938 0C88.2814 0 88.0296 0.0556845 87.6472 0.176334C87.4187 0.25058 75.1222 4.80278 74.073 5.19257C73.0238 5.58237 72.4409 6.41763 72.4456 7.33643" fill="#ED1C24"/>
<path d="M49.4006 14.6866V14.4082H41.9443V16.3061H46.2763C45.1478 19.8606 41.1143 21.9488 41.1143 21.9488L42.1914 23.4476C42.1914 23.4476 49.4006 20.4871 49.4006 14.682V14.6866Z" fill="#454B52"/>
<path d="M47.0458 27.2907V23.6016H44.4019V27.7593C44.4019 29.0586 45.4417 29.996 46.8686 29.996H55.0617V28.1027H47.9691C47.3256 28.1027 47.0551 27.8475 47.0412 27.2907H47.0458Z" fill="#454B52"/>
<path d="M49.1023 17.9074V19.8053H52.2499V24.3807H54.8938V14.209H52.2499V17.9074H49.1023Z" fill="#454B52"/>
<path d="M71.886 21.8329H74.53V14.1299H71.886V16.529H69.1301V18.4037H71.886V21.8329Z" fill="#454B52"/>
<path d="M12.581 23.457H2.51807V27.7587C2.51807 29.058 3.55793 29.9953 4.98484 29.9953H13.1685V24.0417C13.1685 23.7169 12.9027 23.457 12.581 23.457ZM10.5246 28.102H6.08532C5.44182 28.102 5.1667 27.8515 5.15737 27.29V25.3596H10.5246V28.102Z" fill="#454B52"/>
<path d="M13.3457 14.4368V14.3486H2.37351V16.2465H10.5805C10.5805 16.3718 10.5805 16.5296 10.5805 16.6827C10.5805 18.4461 10.4919 19.6062 10.4453 20.0795H0V21.9774H16.0923V20.0795H12.8002C12.9587 19.4855 13.3504 17.6479 13.3504 14.4368H13.3457Z" fill="#454B52"/>
<path d="M29.7785 24.4133C31.9748 23.9353 33.5975 22.2973 33.5975 20.3576C33.5975 19.3135 33.1266 18.3576 32.3525 17.6198H35.1597V15.7218H29.7785V13.9307H27.1392V15.7218H21.758V17.6198H24.5652C23.7911 18.3576 23.3201 19.3089 23.3201 20.3576C23.3201 22.3019 24.9429 23.9353 27.1438 24.4133V26.3344H20.4197V28.2323H36.5073V26.3344H29.7831V24.4133H29.7785ZM26.034 20.2973C26.034 19.0026 27.1205 17.9446 28.4542 17.9446C29.7878 17.9446 30.8743 18.9979 30.8743 20.2973C30.8743 21.5966 29.7878 22.6499 28.4542 22.6499C27.1205 22.6499 26.034 21.5966 26.034 20.2973Z" fill="#454B52"/>
<path d="M66.8312 21.6709H69.3913C69.284 21.0537 68.3467 16.07 65.908 14.3438H62.9562L60.6853 21.7312H63.3386L64.8494 16.4134C66.1225 17.8983 66.7426 21.1837 66.8266 21.6709H66.8312Z" fill="#454B52"/>
<path d="M67.3581 28.1676C66.6866 28.1676 66.5654 27.9959 66.5654 27.4298V27.1931H74.5346V23.2024C74.5346 22.859 74.2828 22.5898 73.9237 22.5898H63.968V24.4181H72.0025V25.3973H64.038V27.7592C64.038 29.1281 65.0265 29.9959 66.5047 29.9959H74.7071V28.1676H67.3581Z" fill="#454B52"/>
</svg>
