<svg width="188" height="188" viewBox="0 0 188 188" fill="none" xmlns="http://www.w3.org/2000/svg">
<path d="M36.5 116.12H30.22C28.7 116.12 27.46 117.35 27.46 118.88C27.46 120.41 28.69 121.64 30.22 121.64H36.5C38.02 121.64 39.26 120.41 39.26 118.88C39.26 117.35 38.03 116.12 36.5 116.12Z" fill="#232323"/>
<path d="M45.1702 127.149H41.6702C40.1502 127.149 38.9102 128.379 38.9102 129.909C38.9102 131.439 40.1402 132.669 41.6702 132.669H45.1702C46.6902 132.669 47.9302 131.439 47.9302 129.909C47.9302 128.379 46.7002 127.149 45.1702 127.149Z" fill="#232323"/>
<path d="M60.7198 138.18H58.8498C57.3298 138.18 56.0898 139.41 56.0898 140.94C56.0898 142.47 57.3198 143.7 58.8498 143.7H60.7198C62.2398 143.7 63.4798 142.47 63.4798 140.94C63.4798 139.41 62.2498 138.18 60.7198 138.18Z" fill="#232323"/>
<path d="M160.67 116.12H154.39C152.87 116.12 151.63 117.35 151.63 118.88C151.63 120.41 152.86 121.64 154.39 121.64H160.67C162.19 121.64 163.43 120.41 163.43 118.88C163.43 117.35 162.2 116.12 160.67 116.12Z" fill="#232323"/>
<path d="M149.22 127.149H145.72C144.2 127.149 142.96 128.379 142.96 129.909C142.96 131.439 144.19 132.669 145.72 132.669H149.22C150.74 132.669 151.98 131.439 151.98 129.909C151.98 128.379 150.75 127.149 149.22 127.149Z" fill="#232323"/>
<path d="M132.03 138.18H130.16C128.64 138.18 127.4 139.41 127.4 140.94C127.4 142.47 128.63 143.7 130.16 143.7H132.03C133.55 143.7 134.79 142.47 134.79 140.94C134.79 139.41 133.56 138.18 132.03 138.18Z" fill="#232323"/>
<path d="M164.41 105.09H159.56C159.73 103.19 159.82 101.28 159.82 99.37C159.82 63.88 130.94 35 95.4501 35C59.9601 35 32.9702 62.02 31.1702 95.91C31.0702 97.72 32.5202 99.23 34.3302 99.23C36.0102 99.23 37.3802 97.91 37.4702 96.24C39.1002 65.68 64.4802 41.31 95.4402 41.31C126.4 41.31 153.5 67.35 153.5 99.37C153.5 101.28 153.4 103.19 153.21 105.09H130.95C131.11 103.72 131.2 102.33 131.2 100.95C131.2 81.23 115.16 65.19 95.4402 65.19C77.5402 65.19 62.6802 78.4 60.0802 95.59C59.7902 97.51 61.2702 99.24 63.2002 99.24C64.7802 99.24 66.0902 98.06 66.3302 96.5C68.4902 82.37 80.7202 71.51 95.4402 71.51C111.68 71.51 124.89 84.72 124.89 100.96C124.89 102.35 124.78 103.73 124.58 105.1H51.9302C51.7402 103.46 51.6302 101.81 51.6302 100.15C51.6302 75.99 71.2802 56.33 95.4402 56.33C118.31 56.33 137.13 73.95 139.08 96.33C139.22 97.97 140.58 99.24 142.22 99.24C144.09 99.24 145.53 97.62 145.37 95.76C143.14 70.17 121.61 50.02 95.4501 50.02C67.8102 50.02 45.3202 72.51 45.3202 100.15C45.3202 101.8 45.4202 103.45 45.5802 105.1H26.4802C25.0602 105.1 23.9102 106.25 23.9102 107.67V108.04C23.9102 109.46 25.0602 110.61 26.4802 110.61H54.5802C56.0002 110.61 57.1502 111.76 57.1502 113.18V113.55C57.1502 114.97 56.0002 116.12 54.5802 116.12H45.6902C44.2702 116.12 43.1202 117.27 43.1202 118.69V119.06C43.1202 120.48 44.2702 121.63 45.6902 121.63H62.4202C63.8402 121.63 64.9902 122.78 64.9902 124.2V124.57C64.9902 125.99 63.8402 127.14 62.4202 127.14H54.0902C52.6702 127.14 51.5202 128.29 51.5202 129.71V130.08C51.5202 131.5 52.6702 132.65 54.0902 132.65H74.3902C75.8102 132.65 76.9602 133.8 76.9602 135.22V135.59C76.9602 137.01 75.8102 138.16 74.3902 138.16H70.1102C68.6902 138.16 67.5402 139.31 67.5402 140.73V141.1C67.5402 142.52 68.6902 143.67 70.1102 143.67H86.1402C87.5302 143.67 88.7802 144.71 88.8602 146.11C88.9402 147.59 87.7602 148.82 86.2902 148.82H82.8902C81.4702 148.82 80.3202 149.97 80.3202 151.39V151.76C80.3202 153.18 81.4702 154.33 82.8902 154.33H107.98C109.4 154.33 110.55 153.18 110.55 151.76V151.39C110.55 149.97 109.4 148.82 107.98 148.82H104.74C103.35 148.82 102.1 147.78 102.02 146.38C101.94 144.9 103.12 143.67 104.59 143.67H120.75C122.17 143.67 123.32 142.52 123.32 141.1V140.73C123.32 139.31 122.17 138.16 120.75 138.16H116.49C115.07 138.16 113.92 137.01 113.92 135.59V135.22C113.92 133.8 115.07 132.65 116.49 132.65H136.79C138.21 132.65 139.36 131.5 139.36 130.08V129.71C139.36 128.29 138.21 127.14 136.79 127.14H128.46C127.04 127.14 125.89 125.99 125.89 124.57V124.2C125.89 122.78 127.04 121.63 128.46 121.63H145.2C146.62 121.63 147.77 120.48 147.77 119.06V118.69C147.77 117.27 146.62 116.12 145.2 116.12H136.31C134.89 116.12 133.74 114.97 133.74 113.55V113.18C133.74 111.76 134.89 110.61 136.31 110.61H164.41C165.83 110.61 166.98 109.46 166.98 108.04V107.67C166.98 106.25 165.83 105.1 164.41 105.1V105.09Z" fill="#232323"/>
<rect x="7.5" y="15.5" width="174" height="158" stroke="#232323" stroke-width="9"/>
</svg>
