<svg id="logo" xmlns="http://www.w3.org/2000/svg" xmlns:xlink="http://www.w3.org/1999/xlink" width="120.333" height="31.364" viewBox="0 0 120.333 31.364">
  <defs>
    <clipPath id="clip-path">
      <rect id="사각형_30" data-name="사각형 30" width="120.333" height="31.364" fill="#3a4188"/>
    </clipPath>
  </defs>
  <g id="그룹_1" data-name="그룹 1" clip-path="url(#clip-path)">
    <path id="패스_1" data-name="패스 1" d="M374.3,175.873v3.362h-4.4l.938.7c2.394,2.065,2.992,4.807.751,7.287-4.362,4.826-17.583,4.8-21.793-.235-2.376-2.841-.9-5.918,1.829-7.752h-4.639l-.141-.14v-3.222Zm-14.92,4.23c-2.131.155-6.758,1.386-5.489,4.387,1.069,2.529,6.231,2.837,8.553,2.588,2.1-.225,6.434-1.444,5.249-4.387-1-2.494-6.072-2.75-8.312-2.587" transform="translate(-314.317 -159.438)" fill="#3a4188"/>
    <path id="패스_2" data-name="패스 2" d="M1008.993,30.665h4.311V25.249h4.873V39.723H1013.3v-5.7h-4.311c-.79,2.96-3.77,4.88-6.669,5.447-5.6,1.1-13.68-2.757-11.089-9.368,2.7-6.874,15.546-6.733,17.758.559m-9.2-2.307a4.03,4.03,0,1,0,.719,8c5.411-.484,4.836-8.3-.719-8" transform="translate(-897.844 -22.727)" fill="#3a4188"/>
    <path id="패스_3" data-name="패스 3" d="M371.39,0V2.8h10.684V6.071h-3.468l.955,1.429c1.152,2.5-.271,4.643-2.369,5.986-3.064,1.962-7.737,2.334-11.269,1.813-4.638-.684-10.8-4-6.623-9.229h-3.468V2.8h10.59V0Zm-3.3,6.1c-1.943.126-6.456,1.145-5.092,3.991,1.418,2.958,9.951,2.931,11.749.214.833-1.258.119-2.453-1.023-3.152A10.3,10.3,0,0,0,368.091,6.1" transform="translate(-322.47 -0.001)" fill="#3a4188"/>
    <path id="패스_4" data-name="패스 4" d="M1038.393,197.858v2.428h13.683v-2.428h4.873v10.926H1034.41c-.314,0-.89-.695-.89-.981v-9.945Zm13.683,5.79h-13.683v1.774h13.683Z" transform="translate(-936.616 -179.368)" fill="#3a4188"/>
    <path id="패스_5" data-name="패스 5" d="M19.962,29.979v3.362H12.933c.25,4.51,2.309,8.509,6.747,10.086L17.522,46c-.423.19-2.429-1.032-2.876-1.337a14.433,14.433,0,0,1-3.345-3.2L10.216,39.6a7.966,7.966,0,0,1-2.675,3.359A16.607,16.607,0,0,1,2.2,46.05L0,43.427a12.268,12.268,0,0,0,6.2-4.981,13.592,13.592,0,0,0,1.483-5.105H.562V29.979Z" transform="translate(0 -27.178)" fill="#3a4188"/>
    <path id="패스_6" data-name="패스 6" d="M681.263,34.246V30.978h14.011a6.6,6.6,0,0,1,.659.277c1.458.837.662,3.866.355,5.216-1.615,7.086-5.807,14.187-11.868,18.3L680.7,52.5a28.881,28.881,0,0,0,9.2-11.469,23.061,23.061,0,0,0,1.753-5.817c.034-.269.138-.8-.036-.969Z" transform="translate(-616.879 -28.083)" fill="#3a4188"/>
    <rect id="사각형_29" data-name="사각형 29" width="4.873" height="27.174" transform="translate(83.596 2.335)" fill="#3a4188"/>
    <path id="패스_7" data-name="패스 7" d="M42.946,218.843v5.976H61.6v3.362H39.151c-.428,0-1.172-.649-1.172-1.074v-8.264Z" transform="translate(-34.418 -198.392)" fill="#3a4188"/>
    <path id="패스_8" data-name="패스 8" d="M241.855,24.982v19.05h-4.826l-.141-.14V24.982Z" transform="translate(-214.677 -22.648)" fill="#3a4188"/>
  </g>
</svg>
