<svg width="128" height="30" viewBox="0 0 128 30" fill="none" xmlns="http://www.w3.org/2000/svg">
<path d="M126.122 14.3225H114.016V12.4606H126.122V14.3225ZM126.299 18.3148H113.877V16.4159H126.299V18.3148ZM118.669 18.1388H116.324V13.1368H118.669V18.1388ZM123.842 18.1388H121.534V13.1368H123.842V18.1388ZM121.228 12.8682H118.873V10.1819H121.228V12.8682ZM127.773 11.0619H112.384V9.20004H127.773V11.0619ZM120.903 2.42882C120.903 3.42305 120.625 4.3339 120.069 5.16139C119.513 5.98888 118.713 6.68361 117.668 7.24556C116.63 7.80751 115.406 8.17803 113.997 8.35711L113.135 6.53231C114.34 6.3841 115.375 6.10004 116.241 5.68012C117.112 5.2602 117.764 4.76926 118.197 4.20731C118.635 3.63918 118.855 3.04635 118.855 2.42882V1.87305H120.903V2.42882ZM121.293 2.42882C121.293 3.034 121.512 3.62374 121.951 4.19805C122.39 4.76617 123.039 5.26329 123.898 5.68938C124.757 6.1093 125.792 6.39028 127.003 6.53231L126.169 8.35711C124.741 8.17803 123.508 7.80751 122.47 7.24556C121.432 6.67743 120.635 5.97962 120.078 5.15213C119.528 4.32464 119.253 3.41687 119.253 2.42882V1.87305H121.293V2.42882Z" fill="#111111"/>
<path d="M101.437 2.82684C102.314 2.82684 103.108 3.00593 103.819 3.36409C104.536 3.71609 105.095 4.20702 105.497 4.8369C105.905 5.46678 106.109 6.17694 106.109 6.96738C106.109 7.764 105.905 8.47724 105.497 9.10712C105.095 9.73083 104.536 10.2218 103.819 10.5799C103.108 10.9319 102.314 11.1079 101.437 11.1079C100.553 11.1079 99.7526 10.9319 99.0357 10.5799C98.325 10.2218 97.7657 9.73083 97.3579 9.10712C96.95 8.47724 96.746 7.764 96.746 6.96738C96.746 6.17694 96.95 5.46678 97.3579 4.8369C97.7657 4.20702 98.325 3.71609 99.0357 3.36409C99.7526 3.00593 100.553 2.82684 101.437 2.82684ZM101.437 4.86469C100.986 4.87087 100.584 4.95732 100.232 5.12405C99.8793 5.28461 99.6012 5.52545 99.3973 5.84656C99.1933 6.16768 99.0914 6.54129 99.0914 6.96738C99.0914 7.40583 99.1933 7.78252 99.3973 8.09746C99.6012 8.40623 99.8793 8.64398 100.232 8.81071C100.584 8.97744 100.986 9.0639 101.437 9.07007C101.888 9.0639 102.293 8.97744 102.651 8.81071C103.016 8.64398 103.297 8.40623 103.495 8.09746C103.699 7.78252 103.801 7.40583 103.801 6.96738C103.801 6.54129 103.699 6.16768 103.495 5.84656C103.297 5.52545 103.016 5.28461 102.651 5.12405C102.293 4.95732 101.888 4.87087 101.437 4.86469ZM110.141 18.6109H107.796V1.6875H110.141V18.6109ZM96.0415 13.2384C98.0562 13.2384 99.9566 13.2044 101.743 13.1365C103.535 13.0686 105.234 12.9235 106.841 12.7011L107.008 14.3963C105.852 14.6248 104.653 14.7946 103.411 14.9057C102.169 15.0107 100.998 15.0786 99.8978 15.1095C98.7978 15.1404 97.6051 15.1558 96.3196 15.1558L96.0415 13.2384Z" fill="#111111"/>
<path d="M92.1664 6.03182H87.7724V4.16997H92.1664V6.03182ZM92.2313 9.44059H87.7724V7.5139H92.2313V9.44059ZM93.7794 11.5803H91.4248V1.6875H93.7794V11.5803ZM88.2823 10.654H80.2637V2.938H88.2823V10.654ZM82.609 8.79218H85.9555V4.80911H82.609V8.79218ZM88.0134 12.025C89.2124 12.025 90.2475 12.1546 91.1189 12.414C91.9903 12.6672 92.6577 13.0408 93.1212 13.5348C93.5909 14.0288 93.8289 14.6186 93.835 15.304C93.8289 15.9895 93.5909 16.5761 93.1212 17.064C92.6577 17.558 91.9903 17.9316 91.1189 18.1848C90.2475 18.438 89.2124 18.5646 88.0134 18.5646C86.8207 18.5646 85.7886 18.438 84.9172 18.1848C84.052 17.9316 83.3846 17.558 82.9149 17.064C82.4514 16.5761 82.2197 15.9895 82.2197 15.304C82.2197 14.6186 82.4514 14.0288 82.9149 13.5348C83.3846 13.0408 84.052 12.6672 84.9172 12.414C85.7886 12.1546 86.8207 12.025 88.0134 12.025ZM88.0134 13.822C87.2595 13.822 86.6291 13.8775 86.1223 13.9887C85.6156 14.0937 85.2293 14.2573 84.9636 14.4796C84.6978 14.6958 84.565 14.9706 84.565 15.304C84.565 15.619 84.6978 15.8845 84.9636 16.1007C85.2293 16.3168 85.6156 16.4804 86.1223 16.5916C86.6353 16.7027 87.2657 16.7614 88.0134 16.7676C88.7674 16.7614 89.4009 16.7027 89.9138 16.5916C90.4329 16.4804 90.8223 16.3168 91.0818 16.1007C91.3414 15.8845 91.4712 15.619 91.4712 15.304C91.4712 14.9706 91.3414 14.6958 91.0818 14.4796C90.8223 14.2573 90.436 14.0937 89.9231 13.9887C89.4101 13.8775 88.7736 13.822 88.0134 13.822Z" fill="#111111"/>
<path d="M68.1019 4.70728C68.1019 5.69533 67.9628 6.63706 67.6847 7.53248C67.4128 8.42172 66.9833 9.21834 66.3962 9.92232C65.8091 10.6263 65.0768 11.1605 64.1992 11.5248L62.9199 9.70001C63.6739 9.37272 64.3012 8.94045 64.8017 8.4032C65.3085 7.86594 65.6762 7.28238 65.9049 6.6525C66.1335 6.02262 66.251 5.37421 66.2571 4.70728V2.72501H68.1019V4.70728ZM68.5468 4.70728C68.5468 5.34333 68.6612 5.94851 68.8898 6.52282C69.1185 7.09094 69.4677 7.60967 69.9374 8.07899C70.4132 8.54214 71.0096 8.90957 71.7265 9.18128L70.475 10.9876C69.616 10.6603 68.9053 10.1817 68.3429 9.5518C67.7805 8.91575 67.3634 8.18706 67.0914 7.36575C66.8257 6.53826 66.6928 5.6521 66.6928 4.70728V2.72501H68.5468V4.70728ZM77.65 12.0343H75.3974V1.72461H77.65V12.0343ZM76.0185 7.75479H73.3117V5.83736H76.0185V7.75479ZM73.9884 11.5063H71.8006V2.01176H73.9884V11.5063ZM71.8841 12.2658C73.0645 12.2658 74.0934 12.3894 74.971 12.6364C75.8547 12.8834 76.5345 13.2446 77.0104 13.7201C77.4924 14.1956 77.7335 14.7576 77.7335 15.406C77.7335 16.0544 77.4924 16.6133 77.0104 17.0826C76.5345 17.5581 75.8547 17.9224 74.971 18.1756C74.0934 18.435 73.0645 18.5647 71.8841 18.5647C70.6975 18.5647 69.6654 18.435 68.7879 18.1756C67.9103 17.9224 67.2336 17.5581 66.7577 17.0826C66.2819 16.6133 66.0439 16.0544 66.0439 15.406C66.0439 14.7576 66.2819 14.1956 66.7577 13.7201C67.2336 13.2446 67.9103 12.8834 68.7879 12.6364C69.6654 12.3894 70.6975 12.2658 71.8841 12.2658ZM71.8841 14.0258C71.1486 14.0196 70.5214 14.069 70.0022 14.174C69.4831 14.279 69.0876 14.4365 68.8157 14.6464C68.5438 14.8564 68.4109 15.1096 68.4171 15.406C68.4109 15.7086 68.5438 15.9618 68.8157 16.1655C69.0876 16.3693 69.48 16.5237 69.993 16.6287C70.5121 16.7337 71.1425 16.7862 71.8841 16.7862C72.6257 16.7862 73.2529 16.7337 73.7659 16.6287C74.285 16.5237 74.6774 16.3693 74.9432 16.1655C75.2151 15.9618 75.3542 15.7086 75.3603 15.406C75.3542 15.1096 75.2151 14.8564 74.9432 14.6464C74.6774 14.4365 74.2819 14.279 73.7566 14.174C73.2375 14.069 72.6133 14.0196 71.8841 14.0258Z" fill="#111111"/>
<path d="M121.902 22.8242H125.406V23.8079H122.983V25.204H125.222V26.1837H122.983V27.5838H125.413V28.5674H121.902V22.8242Z" fill="#111111"/>
<path d="M117.749 22.8242H121.188V23.8079H118.83V25.204H120.961V26.1837H118.83V28.5674H117.749V22.8242Z" fill="#111111"/>
<path d="M116.862 28.5674H115.78V22.8242H116.862V28.5674Z" fill="#111111"/>
<path d="M111.75 22.8242H112.832V27.5838H115.077V28.5674H111.75V22.8242Z" fill="#111111"/>
<path d="M105.376 22.8242H107.417C107.809 22.8242 108.145 22.9009 108.426 23.0543C108.708 23.205 108.921 23.4218 109.068 23.7047C109.215 23.9877 109.288 24.3182 109.288 24.6963C109.288 25.0744 109.213 25.401 109.064 25.676C108.918 25.951 108.701 26.1625 108.415 26.3106C108.132 26.456 107.791 26.5288 107.392 26.5288H106.011V25.557H107.222C107.434 25.557 107.61 25.5253 107.752 25.4618C107.894 25.3957 108 25.3005 108.069 25.1762C108.139 25.0493 108.174 24.8893 108.174 24.6963C108.174 24.5033 108.139 24.3393 108.069 24.2045C108 24.0696 107.893 23.9692 107.749 23.9031C107.607 23.8369 107.43 23.8039 107.219 23.8039H106.458V28.5674H105.376V22.8242ZM109.475 28.5674H108.271L107.006 25.9576H108.178L109.475 28.5674Z" fill="#111111"/>
<path d="M104.591 25.6951C104.591 26.3059 104.485 26.8334 104.274 27.2776C104.064 27.7219 103.775 28.0616 103.405 28.297C103.037 28.5297 102.62 28.646 102.154 28.646C101.688 28.646 101.269 28.5297 100.899 28.297C100.532 28.0616 100.242 27.7219 100.03 27.2776C99.8213 26.8308 99.7168 26.3032 99.7168 25.6951C99.7168 25.0843 99.8213 24.5567 100.03 24.1125C100.242 23.6656 100.532 23.3259 100.899 23.0932C101.269 22.8605 101.688 22.7441 102.154 22.7441C102.62 22.7441 103.037 22.8605 103.405 23.0932C103.775 23.3259 104.064 23.6656 104.274 24.1125C104.485 24.5567 104.591 25.0843 104.591 25.6951ZM103.495 25.6951C103.495 25.2905 103.44 24.9468 103.329 24.6638C103.221 24.3809 103.066 24.1667 102.864 24.0213C102.662 23.8732 102.425 23.7992 102.154 23.7992C101.885 23.7992 101.649 23.8732 101.447 24.0213C101.248 24.1667 101.092 24.3809 100.979 24.6638C100.868 24.9468 100.813 25.2905 100.813 25.6951C100.813 26.097 100.868 26.4394 100.979 26.7223C101.092 27.0026 101.248 27.2168 101.447 27.3649C101.649 27.513 101.885 27.5883 102.154 27.591C102.425 27.5883 102.662 27.513 102.864 27.3649C103.066 27.2168 103.221 27.0026 103.329 26.7223C103.44 26.4394 103.495 26.097 103.495 25.6951Z" fill="#111111"/>
<path d="M95.6646 22.8242H99.1037V23.8079H96.7461V25.204H98.8766V26.1837H96.7461V28.5674H95.6646V22.8242Z" fill="#111111"/>
<path d="M89.0024 22.8242H93.278V23.8079H91.6774V28.5674H90.6067V23.8079H89.0024V22.8242Z" fill="#111111"/>
<path d="M87.3873 24.4655C87.3752 24.3122 87.332 24.1813 87.2575 24.0729C87.183 23.9644 87.0796 23.8825 86.9474 23.8269C86.8177 23.7714 86.6639 23.7437 86.486 23.7437C86.3082 23.7437 86.1555 23.7714 86.0282 23.8269C85.9008 23.8825 85.8035 23.9605 85.7362 24.061C85.6689 24.1588 85.6352 24.2712 85.6352 24.3981C85.6304 24.5938 85.7025 24.7471 85.8515 24.8582C86.0005 24.9666 86.206 25.0539 86.468 25.12L86.9366 25.2429C87.4293 25.3672 87.8127 25.5642 88.0866 25.8339C88.363 26.1036 88.5012 26.4685 88.5012 26.9286C88.5012 27.2776 88.4207 27.5817 88.2597 27.8408C88.1011 28.1 87.8691 28.2996 87.5639 28.4398C87.2611 28.5773 86.8994 28.646 86.4788 28.646C86.0558 28.6487 85.6893 28.5786 85.3793 28.4358C85.0716 28.2904 84.8313 28.0788 84.6583 27.8012C84.4876 27.5209 84.3963 27.1785 84.3843 26.7739H85.4369C85.449 26.9616 85.4994 27.1216 85.5884 27.2538C85.6773 27.3834 85.7962 27.4812 85.9453 27.5473C86.0967 27.6108 86.2709 27.6425 86.468 27.6425C86.6554 27.6425 86.8201 27.6121 86.9619 27.5513C87.1037 27.4905 87.213 27.4059 87.2899 27.2975C87.3668 27.1891 87.4053 27.0635 87.4053 26.9207C87.4053 26.7937 87.3716 26.6853 87.3043 26.5954C87.2371 26.5055 87.1385 26.4302 87.0087 26.3693C86.8814 26.3085 86.7167 26.2504 86.5148 26.1948L85.9416 26.0441C85.485 25.9198 85.1341 25.7308 84.889 25.4769C84.6438 25.2204 84.5225 24.8873 84.5249 24.4774C84.5249 24.1363 84.609 23.8336 84.7772 23.5691C84.9455 23.3047 85.1786 23.1011 85.4766 22.9583C85.777 22.8155 86.1171 22.7441 86.4968 22.7441C86.8765 22.7441 87.2118 22.8169 87.5026 22.9623C87.7958 23.1051 88.0229 23.3074 88.184 23.5691C88.345 23.8309 88.4267 24.1297 88.4291 24.4655H87.3873Z" fill="#111111"/>
<path d="M80.2134 22.8242H83.7175V23.8079H81.2949V25.204H83.5336V26.1837H81.2949V27.5838H83.7247V28.5674H80.2134V22.8242Z" fill="#111111"/>
<path d="M75.5483 22.8242H77.5888C77.9805 22.8242 78.317 22.9009 78.5982 23.0543C78.8794 23.205 79.0933 23.4218 79.2399 23.7047C79.3865 23.9877 79.4598 24.3182 79.4598 24.6963C79.4598 25.0744 79.3853 25.401 79.2363 25.676C79.0897 25.951 78.8734 26.1625 78.5874 26.3106C78.3038 26.456 77.9625 26.5288 77.5635 26.5288H76.1828V25.557H77.3941C77.6056 25.557 77.7823 25.5253 77.924 25.4618C78.0658 25.3957 78.1716 25.3005 78.2413 25.1762C78.311 25.0493 78.3458 24.8893 78.3458 24.6963C78.3458 24.5033 78.311 24.3393 78.2413 24.2045C78.1716 24.0696 78.0646 23.9692 77.9204 23.9031C77.7786 23.8369 77.602 23.8039 77.3905 23.8039H76.6298V28.5674H75.5483V22.8242ZM79.6472 28.5674H78.4432L77.1778 25.9576H78.3494L79.6472 28.5674Z" fill="#111111"/>
<path d="M74.7627 25.6951C74.7627 26.3059 74.6569 26.8334 74.4454 27.2776C74.2363 27.7219 73.9467 28.0616 73.5766 28.297C73.2089 28.5297 72.7919 28.646 72.3257 28.646C71.8594 28.646 71.4412 28.5297 71.0711 28.297C70.7034 28.0616 70.4138 27.7219 70.2023 27.2776C69.9932 26.8308 69.8887 26.3032 69.8887 25.6951C69.8887 25.0843 69.9932 24.5567 70.2023 24.1125C70.4138 23.6656 70.7034 23.3259 71.0711 23.0932C71.4412 22.8605 71.8594 22.7441 72.3257 22.7441C72.7919 22.7441 73.2089 22.8605 73.5766 23.0932C73.9467 23.3259 74.2363 23.6656 74.4454 24.1125C74.6569 24.5567 74.7627 25.0843 74.7627 25.6951ZM73.6667 25.6951C73.6667 25.2905 73.6115 24.9468 73.5009 24.6638C73.3928 24.3809 73.2377 24.1667 73.0359 24.0213C72.834 23.8732 72.5972 23.7992 72.3257 23.7992C72.0565 23.7992 71.821 23.8732 71.6191 24.0213C71.4196 24.1667 71.2634 24.3809 71.1504 24.6638C71.0399 24.9468 70.9846 25.2905 70.9846 25.6951C70.9846 26.097 71.0399 26.4394 71.1504 26.7223C71.2634 27.0026 71.4196 27.2168 71.6191 27.3649C71.821 27.513 72.0565 27.5883 72.3257 27.591C72.5972 27.5883 72.834 27.513 73.0359 27.3649C73.2377 27.2168 73.3928 27.0026 73.5009 26.7223C73.6115 26.4394 73.6667 26.097 73.6667 25.6951Z" fill="#111111"/>
<path d="M65.8369 22.8242H69.2761V23.8079H66.9184V25.204H69.049V26.1837H66.9184V28.5674H65.8369V22.8242Z" fill="#111111"/>
<path fill-rule="evenodd" clip-rule="evenodd" d="M29.274 3.52047C26.7368 1.33859 18.6212 1.72881 16.1954 3.20429C15.2504 3.68247 14.6024 8.78262 14.273 12.5648C17.0509 17.6946 19.6897 26.0578 18.3932 27.7852C18.1261 28.141 17.6086 28.4488 16.9117 28.7078C19.712 29.6831 24.6728 29.8721 26.8481 29.501C27.6074 29.2169 28.2301 28.3406 28.7318 27.0708C27.1678 25.5539 26.0357 23.4224 25.9463 20.6173C25.9463 17.0494 27.9732 14.3008 30.4611 12.6326C30.4068 8.25739 29.9547 4.49585 29.274 3.52047Z" fill="#A4B648"/>
<path fill-rule="evenodd" clip-rule="evenodd" d="M46.3025 1.93977C47.7791 -0.27355 50.5713 -0.99462 53.2637 1.93977C55.6263 4.97518 59.592 23.2289 59.592 27.023C59.592 28.6037 57.6333 29.215 55.795 29.5524C51.0664 30.0227 48.6153 29.8964 44.404 29.5524C42.3655 29.3087 41.3818 28.993 40.7157 28.5176C43.4606 26.9678 45.9218 24.2523 45.1423 20.6173C44.7265 18.2282 43.5935 15.7112 41.9578 13.8229C43.7824 8.0203 45.6264 2.9532 46.3025 1.93977Z" fill="#6A8238"/>
<path fill-rule="evenodd" clip-rule="evenodd" d="M28.7318 27.0708C30.8567 29.1317 33.7789 30.0579 35.9662 29.9972C37.1815 29.9972 39.0038 29.4841 40.7157 28.5176C40.3415 28.2506 40.0676 27.9332 39.7632 27.55C39.0406 26.0584 38.9081 25.1227 39.2358 23.2289C40.0177 20.2198 40.985 16.9168 41.9578 13.8229C40.2744 11.8794 38.0586 10.6021 35.5443 10.8159C33.9498 10.8997 32.1048 11.5304 30.4611 12.6326C30.525 17.7726 30.0399 23.7596 28.7318 27.0708Z" fill="#6DA13C"/>
<path fill-rule="evenodd" clip-rule="evenodd" d="M16.9117 28.7078C16.0008 28.3905 15.3185 27.99 15.0352 27.4985C14.0859 26.0544 13.664 18.9407 14.0859 15.0623C14.1281 14.3742 14.1906 13.5107 14.273 12.5648C12.9832 10.1832 11.6635 8.49849 10.6936 8.49849C8.52238 8.4985 8.18888 8.42021 7.9677 8.54335C7.87729 8.59369 7.80564 8.67767 7.63492 8.81442C5.8419 9.34139 -1.4356 25.1506 0.251901 27.7852C1.70202 30.0492 12.6544 30.29 16.9117 28.7078Z" fill="#446A37"/>
<path d="M45.1423 20.6173C45.9218 24.2523 43.4606 26.9678 40.7157 28.5176C40.3415 28.2506 40.0676 27.9332 39.7632 27.55C39.0406 26.0584 38.9081 25.1227 39.2358 23.2289C40.0177 20.2198 40.985 16.9168 41.9578 13.8229C43.5935 15.7112 44.7265 18.2282 45.1423 20.6173Z" fill="#446A39"/>
<path fill-rule="evenodd" clip-rule="evenodd" d="M30.4611 12.6326C30.525 17.7726 30.0399 23.7596 28.7318 27.0708C27.1678 25.5539 26.0357 23.4224 25.9463 20.6173C25.9463 17.0494 27.9732 14.3008 30.4611 12.6326Z" fill="#538433"/>
<path d="M16.9117 28.7078C16.0008 28.3905 15.3185 27.99 15.0352 27.4985C14.0859 26.0544 13.664 18.9407 14.0859 15.0623C14.1281 14.3742 14.1906 13.5107 14.273 12.5648C17.0509 17.6946 19.6897 26.0578 18.3932 27.7852C18.1261 28.141 17.6086 28.4488 16.9117 28.7078Z" fill="#39572F"/>
</svg>
