<svg width="244" height="45" viewBox="0 0 244 45" fill="none" xmlns="http://www.w3.org/2000/svg">
<path d="M17.3895 27.6338C17.6814 27.9215 16.4565 29.0478 16.2345 29.2451C15.3303 30.0466 13.9081 30.8111 13.1189 31.6537C12.5887 32.2209 12.9956 32.7799 13.6985 32.6361C14.6438 32.1963 15.729 31.1358 16.6497 30.7618C17.1676 30.5521 17.1676 30.8234 16.8223 31.1358L13.123 33.5691C12.6709 34.1281 13.3367 34.7776 14.0273 34.4734C15.0713 34.0172 16.3661 32.7265 17.4553 32.1716C18.0431 31.8716 18.3637 31.9908 17.78 32.4963C16.8922 33.2691 15.5317 33.8445 14.6685 34.7118C14.3068 35.3201 15.0631 35.5791 15.618 35.3612C16.6332 34.9584 17.8746 33.6472 18.861 33.1786C19.5434 32.8539 19.4406 33.3143 18.9967 33.7171C18.6062 34.0665 16.7278 35.0201 16.8305 35.4845C17.3525 36.4505 18.8487 35.2174 19.4694 34.794C20.9614 33.7788 22.3302 32.6402 23.3989 31.1851C24.4675 29.7301 25.3924 28.0613 26.1322 26.4295C26.309 26.4295 26.2432 26.8693 26.235 26.9844C25.6965 34.9296 20.9491 42.7681 12.9915 45C6.34095 43.3312 1.72915 37.5315 0.00281213 31.0988C-0.0218499 30.807 0.122012 31.0125 0.187777 31.1153C1.14138 32.632 1.86479 34.309 3.06501 35.6736C3.735 36.434 7.51651 39.5456 8.38379 39.4921C8.67973 39.4757 9.02911 39.188 8.93046 38.8591C8.81538 38.4686 6.54647 37.363 6.47248 36.9889C6.38617 36.5697 6.71088 36.6765 6.96983 36.7957C7.90288 37.2355 9.4196 38.7975 10.3526 39.0441C10.9939 39.2167 11.5364 38.7317 11.0062 38.185C10.476 37.6384 7.98098 36.2532 7.78779 35.875L7.89055 35.5709L11.9351 38.1645C13.012 38.1193 13.0655 37.5315 12.3092 36.8821C11.4131 36.1093 9.89228 35.5339 9.04967 34.8146C8.75372 34.5638 8.5071 34.0706 9.11543 34.346C9.95394 34.7241 11.3556 36.0148 12.0543 36.2326C12.3626 36.3313 12.6544 36.2778 12.8517 36.0107C13.0326 35.7887 12.8641 35.4722 12.7038 35.279C12.0831 34.5309 10.5458 33.7048 9.74431 33.0142C9.4607 32.7676 8.27692 31.629 8.33858 31.3084C8.44956 31.1481 8.49888 31.1728 8.65918 31.1769C9.34561 31.1975 9.87995 31.366 10.6034 31.1605C10.924 31.07 11.9433 30.4206 11.7091 30.0466C11.3432 29.7095 10.8336 29.9068 10.3979 29.8452C9.28395 29.6931 8.19882 29.093 7.15069 28.9697C6.58346 28.9039 6.0039 29.0272 5.44901 28.8628C4.26523 28.5134 3.07323 26.6638 2.40736 25.6732C2.40736 25.5581 3.91174 25.1101 4.15014 25.0073C10.8788 22.1054 10.6979 15.2165 11.8817 9.0263C12.4777 5.91889 13.3655 2.34289 15.5687 0C16.2428 1.57015 17.0813 4.10212 19.1364 4.12678C20.8587 4.14733 21.6314 3.70752 23.5098 4.27064C25.1416 4.75977 26.6789 6.45734 28.0929 6.62175C28.7258 6.69574 29.8439 6.6793 30.4933 6.62997C31.04 6.58887 32.9677 6.08741 33.2596 6.16962C34.5954 6.53955 34.1104 9.67984 33.7076 10.6499C32.3388 13.9587 26.8515 14.1971 25.5033 17.3169C24.4552 19.7378 23.403 23.0878 21.1916 24.7607C20.2051 25.5046 19.9338 25.2169 18.8528 25.3361C17.9074 25.4389 17.0114 25.9157 16.0989 26.0965C15.655 26.187 14.3726 26.2075 14.1711 26.376C13.6902 26.7788 15.022 27.6338 15.3261 27.6338H17.3854H17.3895ZM22.8892 7.45615C21.7958 7.69455 22.3384 9.81549 23.4564 9.23182C24.3196 8.78379 24.0154 7.20953 22.8892 7.45615Z" fill="white"/>
<path d="M63.3598 27.4979C64.197 27.4979 64.7356 27.5836 64.9831 27.762C65.2306 27.9405 65.3544 28.1832 65.3544 28.5045C65.3544 29.0613 65.1287 29.5967 64.6847 30.0964C64.2406 30.5961 63.651 30.8531 62.9304 30.8531H59.0797V37.8705C59.0797 38.1132 58.8977 38.3702 58.541 38.6414C58.177 38.9127 57.6602 39.0483 56.976 39.0483C56.2917 39.0483 55.7749 38.9127 55.4255 38.6414C55.0761 38.3702 54.9014 38.106 54.9014 37.8419V30.8531H51.138V37.8419C51.138 38.106 50.956 38.3702 50.5994 38.6414C50.2354 38.9127 49.7186 39.0483 49.0343 39.0483C48.3501 39.0483 47.826 38.9127 47.4693 38.6414C47.1053 38.3702 46.9306 38.106 46.9306 37.8419V30.8531H42.6577C41.8206 30.8531 41.282 30.7674 41.049 30.6032C40.8088 30.4391 40.6923 30.1963 40.6923 29.8751C40.6923 29.1469 40.9253 28.5687 41.3911 28.1404C41.857 27.7121 42.4102 27.4979 43.0581 27.4979H63.3817H63.3598ZM52.9797 25.8774C50.6794 25.8774 48.7723 25.3206 47.2655 24.1998C45.7514 23.079 45.0016 21.4514 45.0016 19.3098C45.0016 17.3752 45.6932 15.7904 47.0835 14.5697C48.4738 13.349 50.4392 12.7422 52.987 12.7422C55.5347 12.7422 57.5583 13.3561 58.9414 14.584C60.3317 15.8118 61.0232 17.3895 61.0232 19.3098C61.0232 21.4371 60.2516 23.0576 58.7011 24.1855C57.1507 25.3135 55.2435 25.8774 52.987 25.8774H52.9797ZM52.9797 16.2901C51.764 16.2901 50.8177 16.5614 50.1408 17.1039C49.4638 17.6465 49.129 18.3818 49.129 19.3098C49.129 20.2378 49.4638 20.9803 50.1408 21.5157C50.8177 22.0582 51.764 22.3295 52.9797 22.3295C54.1953 22.3295 55.178 22.0582 55.8622 21.5157C56.5465 20.9731 56.8886 20.2378 56.8886 19.3098C56.8886 18.3818 56.5465 17.6393 55.8622 17.1039C55.178 16.5614 54.2171 16.2901 52.9797 16.2901Z" fill="white"/>
<path d="M77.7287 14.843C78.7279 14.843 79.5171 15.0851 80.0819 15.5694C80.6466 16.0536 80.929 16.8512 80.929 17.9692C80.929 20.4047 80.1181 23.0183 78.489 25.8027C76.8599 28.5942 74.876 30.8659 72.5373 32.632C71.7264 33.2089 70.9806 33.4652 70.3 33.4154C69.6194 33.3584 69.0401 33.1163 68.5695 32.689C68.3016 32.4255 68.193 32.0908 68.2437 31.6707C68.2871 31.2505 68.6057 30.8303 69.1922 30.4031C71.4005 28.6583 73.2396 26.586 74.695 24.2004C76.1503 21.8147 76.8816 19.9632 76.8816 18.6671C76.8816 18.425 76.8309 18.2826 76.7368 18.2327C76.6427 18.19 76.563 18.1615 76.5123 18.1615H71.0675C70.4448 18.1615 69.8945 17.9407 69.4239 17.4921C68.9532 17.0435 68.7143 16.4951 68.7143 15.8471C68.7143 15.5337 68.8302 15.2845 69.0691 15.1065C69.308 14.9284 69.8366 14.843 70.6692 14.843H77.7287ZM84.2452 37.8448V13.9457C84.2452 13.7036 84.4189 13.4472 84.7665 13.1623C85.114 12.8846 85.6281 12.7422 86.3087 12.7422C86.9893 12.7422 87.5034 12.8846 87.8509 13.1623C88.1985 13.4401 88.3722 13.7036 88.3722 13.9457V37.8448C88.3722 38.1083 88.1912 38.3718 87.8364 38.6424C87.4744 38.913 86.9603 39.0483 86.2797 39.0483C85.5991 39.0483 85.0923 38.913 84.752 38.6424C84.4117 38.3718 84.2379 38.1083 84.2379 37.8448H84.2452Z" fill="white"/>
<path d="M106.438 21.3433V24.5315H114.53C115.282 24.5315 115.767 24.6094 115.992 24.7653C116.217 24.9211 116.323 25.1691 116.323 25.5021C116.323 25.9981 116.119 26.4798 115.718 26.9474C115.317 27.4079 114.797 27.6418 114.178 27.6418H94.2472C93.4949 27.6418 93.0098 27.5709 92.7989 27.4221C92.588 27.2733 92.4825 27.0324 92.4825 26.6995C92.4825 26.1114 92.6864 25.6013 93.1012 25.1762C93.516 24.7511 94.0152 24.5386 94.5987 24.5386H102.416V21.3504H106.438V21.3433ZM97.7413 22.3422C97.2491 22.3422 96.8906 22.2218 96.6797 21.9809C96.4688 21.74 96.3633 21.3999 96.3633 20.9536V14.1875C96.3633 13.7412 96.4688 13.394 96.6797 13.1319C96.8906 12.8697 97.2421 12.7422 97.7413 12.7422H110.761C111.57 12.7422 112.09 12.8343 112.329 13.0185C112.568 13.2027 112.688 13.4507 112.688 13.7695C112.688 14.3434 112.477 14.8677 112.055 15.3494C111.633 15.8312 111.071 16.0721 110.375 16.0721H100.821C100.638 16.0721 100.518 16.1004 100.462 16.1571C100.406 16.2138 100.378 16.313 100.378 16.4618V18.7077C100.378 18.8565 100.406 18.9486 100.462 18.984C100.518 19.0194 100.638 19.0478 100.821 19.069H110.951C111.76 19.069 112.28 19.154 112.519 19.3312C112.758 19.5083 112.878 19.7492 112.878 20.068C112.878 20.6206 112.66 21.1378 112.217 21.6196C111.774 22.1014 111.218 22.3422 110.537 22.3422H97.7342H97.7413ZM104.399 28.8604C106.6 28.8604 108.477 29.3138 110.03 30.2207C111.584 31.1275 112.357 32.4524 112.357 34.1882C112.357 35.924 111.584 37.2418 110.03 38.1274C108.477 39.013 106.6 39.4594 104.399 39.4594C102.065 39.4594 100.153 39.0059 98.6622 38.0991C97.1648 37.1922 96.4195 35.8886 96.4195 34.1882C96.4195 32.4878 97.1788 31.1488 98.7044 30.2348C100.23 29.3209 102.128 28.8604 104.406 28.8604H104.399ZM104.371 36.1295C105.545 36.1295 106.487 35.9736 107.19 35.6548C107.893 35.343 108.252 34.8471 108.252 34.1811C108.252 33.5151 107.9 33.0192 107.19 32.6933C106.48 32.3674 105.545 32.2044 104.371 32.2044C103.197 32.2044 102.255 32.3674 101.552 32.6933C100.842 33.0192 100.49 33.5151 100.49 34.1811C100.49 34.8471 100.842 35.336 101.552 35.6548C102.255 35.9665 103.197 36.1295 104.371 36.1295Z" fill="white"/>
<path d="M140.391 23.0269C141.158 23.0269 141.652 23.1123 141.881 23.276C142.103 23.4397 142.218 23.6746 142.218 23.9736C142.218 24.5145 142.024 25.0127 141.63 25.4611C141.237 25.9166 140.707 26.1444 140.033 26.1444H132.155V28.849C132.155 29.1124 131.976 29.3757 131.625 29.6462C131.267 29.9166 130.758 30.0519 130.085 30.0519C129.412 30.0519 128.903 29.9166 128.574 29.6462C128.237 29.3757 128.065 29.1124 128.065 28.849V26.1444H119.764C118.998 26.1444 118.504 26.0661 118.289 25.9095C118.074 25.7529 117.967 25.5252 117.967 25.2262C117.967 24.6853 118.16 24.1871 118.54 23.7244C118.919 23.2618 119.449 23.0269 120.123 23.0269H140.399H140.391ZM121.405 35.9024V33.4469C121.405 32.9985 121.512 32.6569 121.727 32.4149C121.942 32.1729 122.3 32.0519 122.808 32.0519H134.167C134.375 32.0519 134.497 32.0234 134.547 31.9665C134.59 31.9095 134.619 31.7814 134.619 31.575V31.1835C134.619 30.9985 134.597 30.8704 134.547 30.8063C134.497 30.7423 134.375 30.7067 134.167 30.7067H122.894C122.149 30.7067 121.662 30.6284 121.433 30.4718C121.211 30.3152 121.097 30.0875 121.097 29.7885C121.097 29.2689 121.29 28.7778 121.684 28.3223C122.078 27.8668 122.601 27.639 123.252 27.639H137.276C137.777 27.639 138.142 27.76 138.372 28.002C138.594 28.244 138.708 28.5857 138.708 29.0341V33.3259C138.708 33.7743 138.594 34.1088 138.372 34.3437C138.15 34.5786 137.784 34.6925 137.276 34.6925H126.11C125.902 34.6925 125.781 34.728 125.73 34.7921C125.68 34.8562 125.659 34.9914 125.659 35.1978V35.6177C125.659 35.8028 125.68 35.9238 125.73 35.9807C125.773 36.0377 125.902 36.0661 126.11 36.0661H137.555C138.322 36.0661 138.816 36.1444 139.045 36.301C139.267 36.4576 139.382 36.6711 139.382 36.9273C139.382 37.4469 139.181 37.9309 138.78 38.3793C138.379 38.8277 137.849 39.0483 137.197 39.0483H124.692C123.625 39.0483 122.815 38.7779 122.25 38.237C121.691 37.696 121.412 36.9202 121.412 35.8953L121.405 35.9024ZM123.252 21.6604C122.751 21.6604 122.386 21.5394 122.171 21.2974C121.956 21.0554 121.849 20.7138 121.849 20.2654V14.1372C121.849 13.6888 121.956 13.3472 122.171 13.1052C122.386 12.8632 122.744 12.7422 123.252 12.7422H136.825C137.333 12.7422 137.691 12.8632 137.92 13.1052C138.142 13.3472 138.257 13.6888 138.257 14.1372V20.2654C138.257 20.7138 138.142 21.0554 137.92 21.2974C137.698 21.5394 137.333 21.6604 136.825 21.6604H123.252ZM125.917 16.4219V17.9806C125.917 18.1301 125.945 18.2298 126.003 18.2725C126.06 18.3223 126.189 18.3436 126.397 18.3436H133.716C133.888 18.3436 134.003 18.3152 134.082 18.2582C134.153 18.2013 134.196 18.1088 134.196 17.9806V16.4219C134.196 16.2725 134.16 16.1728 134.082 16.1301C134.01 16.0874 133.888 16.0589 133.716 16.0589H126.397C126.189 16.0589 126.06 16.0803 126.003 16.1301C125.945 16.1799 125.917 16.2725 125.917 16.4219Z" fill="white"/>
<path d="M166.536 33.2188C167.358 33.2188 167.895 33.3126 168.145 33.5003C168.395 33.688 168.524 33.9334 168.524 34.2365C168.524 34.8428 168.302 35.3842 167.866 35.8606C167.43 36.3442 166.865 36.5823 166.171 36.5823H146.204C145.381 36.5823 144.852 36.4957 144.623 36.3297C144.387 36.1565 144.273 35.9183 144.273 35.5935C144.273 35.0088 144.495 34.4675 144.931 33.9695C145.367 33.4714 145.925 33.2188 146.597 33.2188H154.357V28.6932H149.622C149.115 28.6932 148.757 28.5777 148.542 28.3395C148.328 28.1013 148.221 27.7621 148.221 27.3073V14.7843C148.221 14.5172 148.385 14.2502 148.721 13.9759C149.057 13.7016 149.558 13.5645 150.23 13.5645C150.902 13.5645 151.41 13.7016 151.753 13.9759C152.097 14.2502 152.268 14.5172 152.268 14.7843V18.4293H160.471V14.7843C160.471 14.5172 160.643 14.2502 160.986 13.9759C161.329 13.7016 161.837 13.5645 162.509 13.5645C163.182 13.5645 163.668 13.7016 164.018 13.9759C164.369 14.2502 164.548 14.5172 164.548 14.7843V27.3073C164.548 27.7621 164.433 28.1013 164.211 28.3395C163.99 28.5777 163.625 28.6932 163.117 28.6932H158.44V33.2188H166.507H166.536ZM152.283 24.9687C152.283 25.1348 152.311 25.2502 152.383 25.2935C152.447 25.3441 152.576 25.3657 152.762 25.3657H160.042C160.214 25.3657 160.328 25.3441 160.393 25.2935C160.457 25.2502 160.493 25.1348 160.493 24.9687V21.8001H152.29V24.9687H152.283Z" fill="white"/>
<path d="M192.431 33.2147C193.253 33.2147 193.79 33.3087 194.04 33.4966C194.29 33.6845 194.419 33.9375 194.419 34.2627C194.419 34.8265 194.197 35.3541 193.761 35.8456C193.325 36.3371 192.738 36.5828 192.009 36.5828H172.099C171.276 36.5828 170.747 36.4961 170.518 36.3299C170.282 36.1564 170.168 35.9179 170.168 35.5926C170.168 34.9132 170.404 34.3494 170.869 33.8941C171.334 33.4388 171.884 33.2147 172.521 33.2147H180.28V27.4686H184.4V33.2147H192.438H192.431ZM188.848 14.6466C189.67 14.6466 190.2 14.7333 190.443 14.914C190.686 15.0947 190.807 15.3405 190.807 15.6657C190.807 16.2729 190.586 16.8149 190.135 17.3064C189.685 17.7979 189.12 18.0437 188.426 18.0437H175.796C175.103 18.0437 174.609 17.9858 174.302 17.863C173.994 17.7401 173.837 17.4654 173.837 17.0245C173.837 16.3451 174.08 15.7814 174.566 15.326C175.053 14.8707 175.603 14.6466 176.218 14.6466H180.28V12.7819C180.28 12.5 180.452 12.2181 180.795 11.9362C181.139 11.6543 181.646 11.5098 182.319 11.5098C182.991 11.5098 183.506 11.6543 183.856 11.9362C184.214 12.2181 184.385 12.5 184.385 12.7819V14.6466H188.841H188.848ZM182.319 16.9956C184.371 16.9956 186.123 17.5811 187.568 18.752C189.012 19.9229 189.742 21.5925 189.742 23.7608C189.742 25.9291 189.027 27.5554 187.596 28.7552C186.166 29.955 184.407 30.5549 182.319 30.5549C180.23 30.5549 178.492 29.9622 177.055 28.7841C175.618 27.606 174.895 25.9291 174.895 23.7608C174.895 21.5925 175.617 19.894 177.069 18.7375C178.514 17.5738 180.266 16.9956 182.319 16.9956ZM182.319 26.9627C183.348 26.9627 184.164 26.6664 184.772 26.0737C185.379 25.481 185.68 24.7221 185.68 23.7969C185.68 22.8718 185.379 22.1129 184.772 21.5202C184.164 20.9275 183.348 20.6312 182.319 20.6312C181.289 20.6312 180.481 20.9275 179.88 21.5202C179.279 22.1129 178.986 22.8718 178.986 23.7969C178.986 24.7221 179.286 25.481 179.88 26.0737C180.473 26.6664 181.289 26.9627 182.319 26.9627Z" fill="white"/>
<path d="M204.292 26.5019C203.914 26.1665 203.543 25.724 203.194 25.1745C202.845 24.6249 202.503 24.0183 202.183 23.3474C201.878 24.0183 201.544 24.6677 201.188 25.3029C200.824 25.9381 200.453 26.4234 200.075 26.7588C199.581 27.2798 198.992 27.6081 198.309 27.7366C197.625 27.865 197.044 27.7009 196.571 27.237C196.193 26.8302 196.026 26.4662 196.07 26.1451C196.113 25.831 196.419 25.3529 196.964 24.7177C198.105 23.5401 198.927 22.1485 199.443 20.5284C199.959 18.9084 200.213 17.2883 200.213 15.6683V14.5763C200.213 14.3337 200.381 14.0768 200.715 13.8056C201.049 13.5344 201.536 13.3988 202.183 13.3988C202.83 13.3988 203.325 13.5344 203.666 13.8056C204.008 14.0768 204.183 14.3337 204.183 14.5763V15.6683C204.183 17.6095 204.473 19.308 205.062 20.7853C205.651 22.2555 206.429 23.4902 207.396 24.475C207.868 24.9746 208.159 25.41 208.261 25.7597C208.362 26.1165 208.217 26.5233 207.817 26.9872C207.381 27.4368 206.814 27.601 206.123 27.4796C205.433 27.3583 204.822 27.0372 204.284 26.5162L204.292 26.5019ZM217.5 35.7797C218.336 35.7797 218.874 35.8653 219.121 36.0295C219.368 36.1936 219.492 36.4363 219.492 36.7574C219.492 37.3355 219.267 37.8636 218.823 38.3347C218.38 38.8128 217.805 39.0483 217.1 39.0483H205.113C204.03 39.0483 203.208 38.77 202.634 38.2276C202.067 37.6781 201.784 36.893 201.784 35.8653V31.2835C201.784 31.0195 201.958 30.7554 202.3 30.4842C202.641 30.213 203.15 30.0774 203.834 30.0774C204.437 30.0774 204.946 30.1987 205.346 30.4414C205.745 30.684 205.942 30.9624 205.942 31.2764V35.0518C205.942 35.3658 206.036 35.5656 206.225 35.6512C206.414 35.7369 206.72 35.7797 207.134 35.7797H217.493H217.5ZM211.205 12.7493C211.83 12.7493 212.303 12.8778 212.63 13.1418C212.949 13.4059 213.117 13.6414 213.117 13.8698V31.362C213.117 31.5833 212.957 31.8259 212.63 32.0757C212.31 32.3255 211.83 32.454 211.205 32.454C210.58 32.454 210.1 32.3255 209.765 32.0757C209.431 31.8259 209.264 31.5833 209.264 31.362V21.549H207.926C207.301 21.549 206.778 21.3135 206.363 20.8496C205.949 20.3857 205.738 19.8219 205.738 19.1724C205.738 18.8156 205.884 18.5658 206.182 18.4159C206.472 18.2661 206.938 18.1947 207.563 18.1947H209.271V13.8627C209.271 13.6414 209.438 13.3988 209.773 13.1347C210.107 12.8706 210.587 12.7422 211.212 12.7422L211.205 12.7493ZM214.651 31.362V13.8698C214.651 13.6486 214.81 13.4059 215.138 13.1418C215.457 12.8778 215.937 12.7493 216.562 12.7493C217.188 12.7493 217.66 12.8778 217.987 13.1418C218.314 13.4059 218.474 13.6414 218.474 13.8698V31.362C218.474 31.5833 218.314 31.8259 217.987 32.0757C217.66 32.3255 217.188 32.454 216.562 32.454C215.937 32.454 215.465 32.3255 215.138 32.0757C214.818 31.8259 214.651 31.5833 214.651 31.362Z" fill="white"/>
<path d="M235.357 29.1426C236.184 29.1426 236.717 29.228 236.962 29.4061C237.207 29.5841 237.329 29.8262 237.329 30.1467C237.329 30.7022 237.106 31.2291 236.652 31.7205C236.199 32.2119 235.63 32.4611 234.932 32.4611H225.013C224.502 32.4611 224.142 32.3472 223.926 32.1122C223.71 31.8772 223.602 31.5425 223.602 31.0938V16.2601C223.602 15.8115 223.71 15.4625 223.926 15.2133C224.142 14.964 224.502 14.8359 225.013 14.8359H234.147C234.975 14.8359 235.515 14.9284 235.767 15.1136C236.019 15.2987 236.148 15.548 236.148 15.8684C236.148 16.3741 235.925 16.8797 235.472 17.3853C235.018 17.898 234.45 18.1544 233.751 18.1544H228.202C228.029 18.1544 227.921 18.1758 227.864 18.2256C227.806 18.2755 227.777 18.368 227.777 18.5176V21.1097H232.881C233.708 21.1097 234.248 21.1952 234.5 21.3732C234.752 21.5513 234.882 21.7934 234.882 22.1138C234.882 22.6907 234.658 23.2177 234.219 23.7019C233.78 24.1862 233.197 24.4283 232.485 24.4283H227.777V28.7794C227.777 28.929 227.806 29.0286 227.864 29.0714C227.921 29.1212 228.029 29.1426 228.202 29.1426H235.364H235.357ZM241.252 12.7422C241.928 12.7422 242.447 12.8846 242.799 13.1623C243.152 13.4401 243.332 13.7036 243.332 13.9457V37.8448C243.332 38.1083 243.152 38.3718 242.799 38.6424C242.439 38.913 241.928 39.0483 241.252 39.0483C240.575 39.0483 240.064 38.913 239.719 38.6424C239.373 38.3718 239.2 38.1083 239.2 37.8448V26.6929H237.005C236.307 26.6929 235.767 26.4507 235.385 25.9665C234.997 25.4822 234.81 24.9553 234.81 24.3784C234.81 24.0651 234.925 23.8158 235.162 23.6378C235.4 23.4598 235.925 23.3743 236.753 23.3743H239.208V13.9457C239.208 13.7036 239.38 13.4472 239.726 13.1623C240.071 12.8775 240.582 12.7422 241.259 12.7422H241.252Z" fill="white"/>
</svg>
